<svg xmlns="http://www.w3.org/2000/svg" xmlns:xlink="http://www.w3.org/1999/xlink" width="401" height="812" viewBox="0 0 401 812">
  <defs>
    <clipPath id="clip-path">
      <rect id="Rectángulo_378204" data-name="Rectángulo 378204" width="58.591" height="43.251" fill="none"/>
    </clipPath>
    <clipPath id="clip-path-2">
      <rect id="Rectángulo_378205" data-name="Rectángulo 378205" width="5.198" height="5.229" fill="none"/>
    </clipPath>
    <clipPath id="clip-path-3">
      <rect id="Rectángulo_378206" data-name="Rectángulo 378206" width="5.196" height="5.229" fill="none"/>
    </clipPath>
  </defs>
  <g id="Grupo_1075361" data-name="Grupo 1075361" transform="translate(8696 10701)">
    <rect id="Rectángulo_378854" data-name="Rectángulo 378854" width="400" height="800" transform="translate(-8696 -10700)" fill="#bcf6ff"/>
    <rect id="Rectángulo_378859" data-name="Rectángulo 378859" width="400" height="79" transform="translate(-8696 -10701)" fill="#e2dffc"/>
    <rect id="Rectángulo_378855" data-name="Rectángulo 378855" width="400" height="146" transform="translate(-8696 -10622)" fill="#dbf8fd"/>
    <path id="Trazado_612012" data-name="Trazado 612012" d="M11.188-4.263A4.528,4.528,0,0,1,9.664-1.011,5.355,5.355,0,0,1,6.038.176,4.816,4.816,0,0,1,2.167-1.481,6.793,6.793,0,0,1,.756-6.029v-.782a7.671,7.671,0,0,1,.65-3.252,4.874,4.874,0,0,1,1.859-2.158,5.207,5.207,0,0,1,2.808-.751,5.217,5.217,0,0,1,3.568,1.187,4.866,4.866,0,0,1,1.564,3.331H8.569a2.673,2.673,0,0,0-.69-1.8,2.555,2.555,0,0,0-1.806-.558A2.24,2.24,0,0,0,4.1-9.866a5.3,5.3,0,0,0-.672,2.931v.967a5.667,5.667,0,0,0,.628,3.032,2.2,2.2,0,0,0,1.982.958,2.6,2.6,0,0,0,1.824-.558,2.521,2.521,0,0,0,.69-1.727Zm1.169-.58A5.64,5.64,0,0,1,12.9-7.365a3.989,3.989,0,0,1,1.569-1.714,4.577,4.577,0,0,1,2.377-.606,4.33,4.33,0,0,1,3.142,1.178,4.727,4.727,0,0,1,1.358,3.2l.018.65a4.97,4.97,0,0,1-1.222,3.511A4.247,4.247,0,0,1,16.866.176a4.268,4.268,0,0,1-3.283-1.318,5.058,5.058,0,0,1-1.226-3.586Zm2.54.18a3.555,3.555,0,0,0,.51,2.073,1.682,1.682,0,0,0,1.459.717,1.686,1.686,0,0,0,1.441-.709,3.89,3.89,0,0,0,.519-2.267,3.519,3.519,0,0,0-.519-2.06,1.686,1.686,0,0,0-1.459-.731,1.658,1.658,0,0,0-1.441.726A3.955,3.955,0,0,0,14.9-4.662ZM25.313-9.51l.079,1.063a3.342,3.342,0,0,1,2.733-1.239,2.536,2.536,0,0,1,2.522,1.45A3.265,3.265,0,0,1,33.5-9.686a2.836,2.836,0,0,1,2.3.9,4.141,4.141,0,0,1,.756,2.711V0H34.014V-6.064A1.811,1.811,0,0,0,33.7-7.247a1.4,1.4,0,0,0-1.116-.374A1.585,1.585,0,0,0,31-6.53L31.008,0h-2.54V-6.056a1.789,1.789,0,0,0-.325-1.2,1.416,1.416,0,0,0-1.107-.369,1.646,1.646,0,0,0-1.564.9V0h-2.54V-9.51ZM47.074-4.667a5.7,5.7,0,0,1-1,3.52A3.2,3.2,0,0,1,43.383.176a2.963,2.963,0,0,1-2.329-1V3.656h-2.54V-9.51h2.355l.088.932a2.985,2.985,0,0,1,2.408-1.107,3.22,3.22,0,0,1,2.733,1.3A5.858,5.858,0,0,1,47.074-4.8Zm-2.54-.185a3.743,3.743,0,0,0-.47-2.048A1.532,1.532,0,0,0,42.7-7.62a1.663,1.663,0,0,0-1.644.914v3.894a1.692,1.692,0,0,0,1.661.94Q44.534-1.872,44.534-4.852Zm3.718.009A5.64,5.64,0,0,1,48.8-7.365a3.989,3.989,0,0,1,1.569-1.714,4.577,4.577,0,0,1,2.377-.606,4.33,4.33,0,0,1,3.142,1.178,4.727,4.727,0,0,1,1.358,3.2l.018.65a4.97,4.97,0,0,1-1.222,3.511A4.247,4.247,0,0,1,52.761.176a4.268,4.268,0,0,1-3.283-1.318,5.058,5.058,0,0,1-1.226-3.586Zm2.54.18a3.555,3.555,0,0,0,.51,2.073,1.682,1.682,0,0,0,1.459.717A1.686,1.686,0,0,0,54.2-2.581a3.89,3.89,0,0,0,.519-2.267,3.519,3.519,0,0,0-.519-2.06,1.686,1.686,0,0,0-1.459-.731,1.658,1.658,0,0,0-1.441.726A3.955,3.955,0,0,0,50.792-4.662ZM61.163-9.51l.079,1.1a3.32,3.32,0,0,1,2.733-1.274,2.759,2.759,0,0,1,2.25.888,4.142,4.142,0,0,1,.756,2.654V0h-2.54V-6.082a1.648,1.648,0,0,0-.352-1.173,1.574,1.574,0,0,0-1.169-.365,1.747,1.747,0,0,0-1.608.914V0h-2.54V-9.51ZM73.283.176a4.668,4.668,0,0,1-3.406-1.283,4.561,4.561,0,0,1-1.314-3.419v-.246a5.745,5.745,0,0,1,.554-2.562,4.064,4.064,0,0,1,1.569-1.74A4.4,4.4,0,0,1,73-9.686a3.947,3.947,0,0,1,3.072,1.23,5,5,0,0,1,1.121,3.489v1.037H71.139a2.36,2.36,0,0,0,.743,1.494,2.245,2.245,0,0,0,1.569.563,2.742,2.742,0,0,0,2.294-1.063l1.248,1.4A3.813,3.813,0,0,1,75.445-.277,5.075,5.075,0,0,1,73.283.176Zm-.29-7.813a1.587,1.587,0,0,0-1.226.512,2.651,2.651,0,0,0-.6,1.466H74.7v-.2a1.891,1.891,0,0,0-.457-1.311A1.638,1.638,0,0,0,72.993-7.638Zm7.98-1.872.079,1.1a3.32,3.32,0,0,1,2.733-1.274,2.759,2.759,0,0,1,2.25.888,4.142,4.142,0,0,1,.756,2.654V0h-2.54V-6.082A1.648,1.648,0,0,0,83.9-7.255a1.574,1.574,0,0,0-1.169-.365,1.747,1.747,0,0,0-1.608.914V0h-2.54V-9.51Zm10.784-2.338V-9.51h1.626v1.863H91.758V-2.9a1.133,1.133,0,0,0,.2.756,1.015,1.015,0,0,0,.773.229,4.051,4.051,0,0,0,.747-.062V-.053a5.229,5.229,0,0,1-1.538.229,2.425,2.425,0,0,1-2.725-2.7V-7.646H87.829V-9.51h1.389v-2.338ZM99.176.176A4.668,4.668,0,0,1,95.77-1.107a4.561,4.561,0,0,1-1.314-3.419v-.246a5.745,5.745,0,0,1,.554-2.562,4.064,4.064,0,0,1,1.569-1.74,4.4,4.4,0,0,1,2.316-.611,3.947,3.947,0,0,1,3.072,1.23,5,5,0,0,1,1.121,3.489v1.037H97.031a2.36,2.36,0,0,0,.743,1.494,2.245,2.245,0,0,0,1.569.563,2.742,2.742,0,0,0,2.294-1.063l1.248,1.4a3.813,3.813,0,0,1-1.547,1.261A5.075,5.075,0,0,1,99.176.176Zm-.29-7.813a1.587,1.587,0,0,0-1.226.512,2.651,2.651,0,0,0-.6,1.466h3.533v-.2a1.891,1.891,0,0,0-.457-1.311A1.638,1.638,0,0,0,98.886-7.638Zm10.793,5.01a.818.818,0,0,0-.461-.734,5.241,5.241,0,0,0-1.481-.479q-3.393-.712-3.393-2.883a2.613,2.613,0,0,1,1.05-2.114,4.237,4.237,0,0,1,2.747-.848,4.56,4.56,0,0,1,2.9.853,2.687,2.687,0,0,1,1.085,2.215h-2.54a1.229,1.229,0,0,0-.352-.9,1.488,1.488,0,0,0-1.1-.356,1.52,1.52,0,0,0-.993.29.916.916,0,0,0-.352.738.783.783,0,0,0,.4.681,4.114,4.114,0,0,0,1.349.448,11.019,11.019,0,0,1,1.6.426,2.628,2.628,0,0,1,2.013,2.558,2.481,2.481,0,0,1-1.116,2.1,4.815,4.815,0,0,1-2.883.8,5.029,5.029,0,0,1-2.123-.426,3.561,3.561,0,0,1-1.455-1.169,2.716,2.716,0,0,1-.527-1.6h2.408a1.326,1.326,0,0,0,.5,1.037,1.987,1.987,0,0,0,1.248.36,1.839,1.839,0,0,0,1.1-.277A.861.861,0,0,0,109.679-2.628Zm12.542.756a1.666,1.666,0,0,0,1.143-.387,1.355,1.355,0,0,0,.457-1.028H126.2a3.258,3.258,0,0,1-.527,1.771,3.48,3.48,0,0,1-1.419,1.248,4.442,4.442,0,0,1-1.991.444,4.129,4.129,0,0,1-3.217-1.3A5.13,5.13,0,0,1,117.87-4.7v-.167a5.071,5.071,0,0,1,1.169-3.507,4.08,4.08,0,0,1,3.208-1.31,4,4,0,0,1,2.861,1.015,3.594,3.594,0,0,1,1.094,2.7H123.82a1.745,1.745,0,0,0-.457-1.206,1.524,1.524,0,0,0-1.16-.464,1.53,1.53,0,0,0-1.34.647,3.749,3.749,0,0,0-.453,2.1v.264a3.8,3.8,0,0,0,.448,2.113A1.549,1.549,0,0,0,122.221-1.872ZM130.333,0h-2.549V-13.5h2.549Zm7.6,0a2.821,2.821,0,0,1-.255-.853,3.073,3.073,0,0,1-2.4,1.028,3.376,3.376,0,0,1-2.316-.809,2.6,2.6,0,0,1-.918-2.039,2.687,2.687,0,0,1,1.121-2.32,5.529,5.529,0,0,1,3.239-.817h1.169v-.545a1.567,1.567,0,0,0-.338-1.055,1.331,1.331,0,0,0-1.068-.4,1.513,1.513,0,0,0-1.006.308,1.045,1.045,0,0,0-.365.844h-2.54a2.551,2.551,0,0,1,.51-1.529,3.37,3.37,0,0,1,1.441-1.1,5.253,5.253,0,0,1,2.092-.4,4.15,4.15,0,0,1,2.791.883,3.09,3.09,0,0,1,1.033,2.483V-2.2A4.546,4.546,0,0,0,140.5-.149V0Zm-2.1-1.767a2.188,2.188,0,0,0,1.037-.25,1.645,1.645,0,0,0,.7-.672V-4.324h-.949q-1.907,0-2.03,1.318l-.009.149a1.017,1.017,0,0,0,.334.782A1.3,1.3,0,0,0,135.835-1.767ZM145.5-3.1,147.27-9.51h2.654L146.716,0H144.29l-3.208-9.51h2.654ZM155.3.176A4.668,4.668,0,0,1,151.9-1.107a4.561,4.561,0,0,1-1.314-3.419v-.246a5.745,5.745,0,0,1,.554-2.562,4.064,4.064,0,0,1,1.569-1.74,4.4,4.4,0,0,1,2.316-.611,3.947,3.947,0,0,1,3.072,1.23,5,5,0,0,1,1.121,3.489v1.037h-6.056a2.36,2.36,0,0,0,.743,1.494,2.245,2.245,0,0,0,1.569.563,2.742,2.742,0,0,0,2.294-1.063l1.248,1.4a3.813,3.813,0,0,1-1.547,1.261A5.075,5.075,0,0,1,155.3.176Zm-.29-7.813a1.587,1.587,0,0,0-1.226.512,2.651,2.651,0,0,0-.6,1.466h3.533v-.2a1.891,1.891,0,0,0-.457-1.311A1.638,1.638,0,0,0,155.013-7.638ZM.58,14.375a5.731,5.731,0,0,1,1-3.542A3.237,3.237,0,0,1,4.307,9.514,2.913,2.913,0,0,1,6.6,10.552V5.7H9.149V19.2H6.855l-.123-1.011a2.989,2.989,0,0,1-2.443,1.187A3.228,3.228,0,0,1,1.6,18.053,5.916,5.916,0,0,1,.58,14.375Zm2.54.189a3.754,3.754,0,0,0,.466,2.051,1.517,1.517,0,0,0,1.354.713A1.7,1.7,0,0,0,6.6,16.333V12.575a1.675,1.675,0,0,0-1.644-.995Q3.12,11.58,3.12,14.564ZM15.5,19.376a4.668,4.668,0,0,1-3.406-1.283,4.561,4.561,0,0,1-1.314-3.419v-.246a5.745,5.745,0,0,1,.554-2.562,4.064,4.064,0,0,1,1.569-1.74,4.4,4.4,0,0,1,2.316-.611,3.947,3.947,0,0,1,3.072,1.23,5,5,0,0,1,1.121,3.489v1.037H13.351a2.36,2.36,0,0,0,.743,1.494,2.245,2.245,0,0,0,1.569.563,2.742,2.742,0,0,0,2.294-1.063l1.248,1.4a3.813,3.813,0,0,1-1.547,1.261A5.075,5.075,0,0,1,15.5,19.376Zm-.29-7.813a1.587,1.587,0,0,0-1.226.512,2.651,2.651,0,0,0-.6,1.466H16.91v-.2a1.891,1.891,0,0,0-.457-1.311A1.638,1.638,0,0,0,15.205,11.562ZM23.528,19.2H20.979V5.7h2.549Zm16.787-4.263a4.528,4.528,0,0,1-1.525,3.252,5.355,5.355,0,0,1-3.625,1.187,4.816,4.816,0,0,1-3.872-1.657,6.793,6.793,0,0,1-1.411-4.548v-.782a7.671,7.671,0,0,1,.65-3.252,4.874,4.874,0,0,1,1.859-2.158A5.207,5.207,0,0,1,35.2,6.227a5.217,5.217,0,0,1,3.568,1.187,4.866,4.866,0,0,1,1.564,3.331H37.7a2.673,2.673,0,0,0-.69-1.8A2.555,2.555,0,0,0,35.2,8.389a2.24,2.24,0,0,0-1.973.945,5.3,5.3,0,0,0-.672,2.931v.967a5.667,5.667,0,0,0,.628,3.032,2.2,2.2,0,0,0,1.982.958,2.6,2.6,0,0,0,1.824-.558,2.521,2.521,0,0,0,.69-1.727Zm6.469-.422h-2.1V19.2H42.047V6.4H46.8a5.375,5.375,0,0,1,3.5,1.011,3.488,3.488,0,0,1,1.23,2.856,3.937,3.937,0,0,1-.567,2.184,3.866,3.866,0,0,1-1.718,1.393l2.769,5.229V19.2h-2.83Zm-2.1-2.136h2.127a2.178,2.178,0,0,0,1.538-.505,1.806,1.806,0,0,0,.545-1.393,1.933,1.933,0,0,0-.514-1.424A2.137,2.137,0,0,0,46.8,8.539H44.684ZM56.979,6.4l3.287,9.281L63.536,6.4H67V19.2H64.354V15.7l.264-6.038L61.163,19.2H59.353L55.907,9.673l.264,6.029v3.5H53.534V6.4ZM76,9.69l.079,1.063a3.342,3.342,0,0,1,2.733-1.239,2.536,2.536,0,0,1,2.522,1.45,3.265,3.265,0,0,1,2.856-1.45,2.836,2.836,0,0,1,2.3.9,4.141,4.141,0,0,1,.756,2.711V19.2H84.7V13.136a1.811,1.811,0,0,0-.316-1.182,1.4,1.4,0,0,0-1.116-.374,1.585,1.585,0,0,0-1.582,1.09l.009,6.53h-2.54V13.144a1.789,1.789,0,0,0-.325-1.2,1.416,1.416,0,0,0-1.107-.369,1.646,1.646,0,0,0-1.564.9V19.2h-2.54V9.69ZM88.8,14.357a5.64,5.64,0,0,1,.545-2.522,3.989,3.989,0,0,1,1.569-1.714A4.577,4.577,0,0,1,93.3,9.514a4.33,4.33,0,0,1,3.142,1.178,4.727,4.727,0,0,1,1.358,3.2l.018.65a4.97,4.97,0,0,1-1.222,3.511,4.735,4.735,0,0,1-6.561,0A5.058,5.058,0,0,1,88.8,14.471Zm2.54.18a3.555,3.555,0,0,0,.51,2.073,1.831,1.831,0,0,0,2.9.009,3.89,3.89,0,0,0,.519-2.267,3.519,3.519,0,0,0-.519-2.06,1.686,1.686,0,0,0-1.459-.731,1.658,1.658,0,0,0-1.441.726A3.955,3.955,0,0,0,91.345,14.538Zm7.638-.163a5.731,5.731,0,0,1,1-3.542,3.237,3.237,0,0,1,2.729-1.318A2.913,2.913,0,0,1,105,10.552V5.7h2.549V19.2h-2.294l-.123-1.011a2.989,2.989,0,0,1-2.443,1.187A3.228,3.228,0,0,1,100,18.053,5.916,5.916,0,0,1,98.982,14.375Zm2.54.189a3.754,3.754,0,0,0,.466,2.051,1.517,1.517,0,0,0,1.354.713A1.7,1.7,0,0,0,105,16.333V12.575a1.675,1.675,0,0,0-1.644-.995Q101.522,11.58,101.522,14.564ZM113.9,19.376a4.668,4.668,0,0,1-3.406-1.283,4.561,4.561,0,0,1-1.314-3.419v-.246a5.745,5.745,0,0,1,.554-2.562,4.064,4.064,0,0,1,1.569-1.74,4.4,4.4,0,0,1,2.316-.611,3.947,3.947,0,0,1,3.072,1.23,5,5,0,0,1,1.121,3.489v1.037h-6.056a2.36,2.36,0,0,0,.743,1.494,2.245,2.245,0,0,0,1.569.563,2.742,2.742,0,0,0,2.294-1.063l1.248,1.4a3.813,3.813,0,0,1-1.547,1.261A5.075,5.075,0,0,1,113.9,19.376Zm-.29-7.813a1.587,1.587,0,0,0-1.226.512,2.651,2.651,0,0,0-.6,1.466h3.533v-.2a1.891,1.891,0,0,0-.457-1.311A1.638,1.638,0,0,0,113.607,11.562Zm10.986.51a6.9,6.9,0,0,0-.914-.07,1.86,1.86,0,0,0-1.89.976V19.2h-2.54V9.69h2.4l.07,1.134a2.354,2.354,0,0,1,2.118-1.31,2.662,2.662,0,0,1,.791.114Zm3.56-2.382.079,1.1a3.32,3.32,0,0,1,2.733-1.274,2.759,2.759,0,0,1,2.25.888,4.142,4.142,0,0,1,.756,2.654V19.2h-2.54V13.118a1.648,1.648,0,0,0-.352-1.173,1.574,1.574,0,0,0-1.169-.365,1.747,1.747,0,0,0-1.608.914V19.2h-2.54V9.69Zm7.348,4.667a5.64,5.64,0,0,1,.545-2.522,3.989,3.989,0,0,1,1.569-1.714,4.577,4.577,0,0,1,2.377-.606,4.33,4.33,0,0,1,3.142,1.178,4.727,4.727,0,0,1,1.358,3.2l.018.65a4.97,4.97,0,0,1-1.222,3.511,4.735,4.735,0,0,1-6.561,0,5.058,5.058,0,0,1-1.226-3.586Zm2.54.18a3.555,3.555,0,0,0,.51,2.073,1.831,1.831,0,0,0,2.9.009,3.89,3.89,0,0,0,.519-2.267,3.519,3.519,0,0,0-.519-2.06,1.686,1.686,0,0,0-1.459-.731,1.658,1.658,0,0,0-1.441.726A3.955,3.955,0,0,0,138.041,14.538Z" transform="translate(-8531 -10664)" fill="#12263f"/>
    <path id="Trazado_611331" data-name="Trazado 611331" d="M61.189,46.878H43.845V76.689H61.189Zm8.272,29.811H86.8V31.168H69.461ZM35.573,34.177H18.229V76.689H35.573Zm-1.486-26.8a10.159,10.159,0,1,0,2.979,7.186A10.13,10.13,0,0,0,34.087,7.376ZM26.1,8.96V8.035a.805.805,0,1,1,1.61,0V8.96a3.255,3.255,0,0,1,2.448,3.153.805.805,0,1,1-1.61,0,1.644,1.644,0,0,0-3.288,0c0,1.23.914,1.448,1.828,1.666,1.534.365,3.069.73,3.069,3.232A3.255,3.255,0,0,1,27.7,20.165v.925a.805.805,0,0,1-1.61,0v-.925a3.255,3.255,0,0,1-2.448-3.153.805.805,0,1,1,1.61,0,1.644,1.644,0,0,0,3.288,0c0-1.23-.914-1.448-1.828-1.666-1.534-.365-3.069-.73-3.069-3.232A3.255,3.255,0,0,1,26.1,8.96ZM59.7,19.842a10.161,10.161,0,1,0,2.977,7.186A10.13,10.13,0,0,0,59.7,19.842Zm-7.991,1.583V20.5a.805.805,0,1,1,1.61,0v.925a3.255,3.255,0,0,1,2.448,3.153.805.805,0,0,1-1.61,0,1.644,1.644,0,0,0-3.288,0c0,1.23.914,1.448,1.828,1.666,1.534.365,3.069.73,3.069,3.232a3.255,3.255,0,0,1-2.448,3.153v.925a.805.805,0,0,1-1.61,0V32.63a3.255,3.255,0,0,1-2.448-3.153.805.805,0,0,1,1.61,0,1.644,1.644,0,0,0,3.288,0c0-1.23-.914-1.448-1.828-1.666-1.534-.365-3.069-.73-3.069-3.232a3.255,3.255,0,0,1,2.448-3.153ZM85.318,2.977A10.161,10.161,0,1,0,88.3,10.163,10.133,10.133,0,0,0,85.318,2.977ZM77.327,4.56V3.635a.805.805,0,1,1,1.61,0V4.56a3.255,3.255,0,0,1,2.448,3.153.805.805,0,1,1-1.61,0,1.644,1.644,0,0,0-3.288,0c0,1.23.914,1.448,1.828,1.666,1.534.365,3.069.73,3.069,3.232a3.255,3.255,0,0,1-2.448,3.153v.925a.805.805,0,1,1-1.61,0v-.925a3.255,3.255,0,0,1-2.448-3.153.805.805,0,1,1,1.61,0,1.644,1.644,0,0,0,3.288,0c0-1.23-.914-1.448-1.828-1.666-1.534-.365-3.069-.73-3.069-3.232A3.255,3.255,0,0,1,77.327,4.56Z" transform="translate(-8629.74 -10593)" fill="#255f68" fill-rule="evenodd"/>
    <path id="Trazado_612013" data-name="Trazado 612013" d="M11.188-4.263A4.528,4.528,0,0,1,9.664-1.011,5.355,5.355,0,0,1,6.038.176,4.816,4.816,0,0,1,2.167-1.481,6.793,6.793,0,0,1,.756-6.029v-.782a7.671,7.671,0,0,1,.65-3.252,4.874,4.874,0,0,1,1.859-2.158,5.207,5.207,0,0,1,2.808-.751,5.217,5.217,0,0,1,3.568,1.187,4.866,4.866,0,0,1,1.564,3.331H8.569a2.673,2.673,0,0,0-.69-1.8,2.555,2.555,0,0,0-1.806-.558A2.24,2.24,0,0,0,4.1-9.866a5.3,5.3,0,0,0-.672,2.931v.967a5.667,5.667,0,0,0,.628,3.032,2.2,2.2,0,0,0,1.982.958,2.6,2.6,0,0,0,1.824-.558,2.521,2.521,0,0,0,.69-1.727Zm1.169-.58A5.64,5.64,0,0,1,12.9-7.365a3.989,3.989,0,0,1,1.569-1.714,4.577,4.577,0,0,1,2.377-.606,4.33,4.33,0,0,1,3.142,1.178,4.727,4.727,0,0,1,1.358,3.2l.018.65a4.97,4.97,0,0,1-1.222,3.511A4.247,4.247,0,0,1,16.866.176a4.268,4.268,0,0,1-3.283-1.318,5.058,5.058,0,0,1-1.226-3.586Zm2.54.18a3.555,3.555,0,0,0,.51,2.073,1.682,1.682,0,0,0,1.459.717,1.686,1.686,0,0,0,1.441-.709,3.89,3.89,0,0,0,.519-2.267,3.519,3.519,0,0,0-.519-2.06,1.686,1.686,0,0,0-1.459-.731,1.658,1.658,0,0,0-1.441.726A3.955,3.955,0,0,0,14.9-4.662ZM25.313-9.51l.079,1.063a3.342,3.342,0,0,1,2.733-1.239,2.536,2.536,0,0,1,2.522,1.45A3.265,3.265,0,0,1,33.5-9.686a2.836,2.836,0,0,1,2.3.9,4.141,4.141,0,0,1,.756,2.711V0H34.014V-6.064A1.811,1.811,0,0,0,33.7-7.247a1.4,1.4,0,0,0-1.116-.374A1.585,1.585,0,0,0,31-6.53L31.008,0h-2.54V-6.056a1.789,1.789,0,0,0-.325-1.2,1.416,1.416,0,0,0-1.107-.369,1.646,1.646,0,0,0-1.564.9V0h-2.54V-9.51ZM47.074-4.667a5.7,5.7,0,0,1-1,3.52A3.2,3.2,0,0,1,43.383.176a2.963,2.963,0,0,1-2.329-1V3.656h-2.54V-9.51h2.355l.088.932a2.985,2.985,0,0,1,2.408-1.107,3.22,3.22,0,0,1,2.733,1.3A5.858,5.858,0,0,1,47.074-4.8Zm-2.54-.185a3.743,3.743,0,0,0-.47-2.048A1.532,1.532,0,0,0,42.7-7.62a1.663,1.663,0,0,0-1.644.914v3.894a1.692,1.692,0,0,0,1.661.94Q44.534-1.872,44.534-4.852ZM53.024.176a4.668,4.668,0,0,1-3.406-1.283A4.561,4.561,0,0,1,48.3-4.526v-.246a5.745,5.745,0,0,1,.554-2.562,4.064,4.064,0,0,1,1.569-1.74,4.4,4.4,0,0,1,2.316-.611,3.947,3.947,0,0,1,3.072,1.23,5,5,0,0,1,1.121,3.489v1.037H50.88a2.36,2.36,0,0,0,.743,1.494,2.245,2.245,0,0,0,1.569.563,2.742,2.742,0,0,0,2.294-1.063l1.248,1.4A3.813,3.813,0,0,1,55.187-.277,5.075,5.075,0,0,1,53.024.176Zm-.29-7.813a1.587,1.587,0,0,0-1.226.512,2.651,2.651,0,0,0-.6,1.466h3.533v-.2a1.891,1.891,0,0,0-.457-1.311A1.638,1.638,0,0,0,52.734-7.638Zm8.684-4.21V-9.51h1.626v1.863H61.418V-2.9a1.133,1.133,0,0,0,.2.756,1.015,1.015,0,0,0,.773.229,4.051,4.051,0,0,0,.747-.062V-.053A5.229,5.229,0,0,1,61.6.176a2.425,2.425,0,0,1-2.725-2.7V-7.646H57.489V-9.51h1.389v-2.338ZM67.14,0H64.591V-9.51H67.14Zm-2.7-11.971a1.251,1.251,0,0,1,.382-.94,1.436,1.436,0,0,1,1.042-.369,1.44,1.44,0,0,1,1.037.369,1.244,1.244,0,0,1,.387.94,1.247,1.247,0,0,1-.391.949,1.443,1.443,0,0,1-1.033.369,1.443,1.443,0,0,1-1.033-.369A1.247,1.247,0,0,1,64.441-11.971Zm7.831.123V-9.51H73.9v1.863H72.272V-2.9a1.133,1.133,0,0,0,.2.756,1.015,1.015,0,0,0,.773.229A4.051,4.051,0,0,0,74-1.978V-.053a5.229,5.229,0,0,1-1.538.229,2.425,2.425,0,0,1-2.725-2.7V-7.646H68.344V-9.51h1.389v-2.338ZM77.994,0H75.445V-9.51h2.549ZM75.3-11.971a1.251,1.251,0,0,1,.382-.94,1.436,1.436,0,0,1,1.042-.369,1.44,1.44,0,0,1,1.037.369,1.244,1.244,0,0,1,.387.94,1.247,1.247,0,0,1-.391.949,1.443,1.443,0,0,1-1.033.369,1.443,1.443,0,0,1-1.033-.369A1.247,1.247,0,0,1,75.3-11.971ZM83.646-3.1,85.412-9.51h2.654L84.858,0H82.433L79.225-9.51h2.654ZM91.863,0H89.314V-9.51h2.549Zm-2.7-11.971a1.251,1.251,0,0,1,.382-.94,1.436,1.436,0,0,1,1.042-.369,1.44,1.44,0,0,1,1.037.369,1.244,1.244,0,0,1,.387.94,1.247,1.247,0,0,1-.391.949,1.443,1.443,0,0,1-1.033.369,1.443,1.443,0,0,1-1.033-.369A1.247,1.247,0,0,1,89.165-11.971ZM93.56-4.825a5.731,5.731,0,0,1,1-3.542,3.237,3.237,0,0,1,2.729-1.318A2.913,2.913,0,0,1,99.58-8.648V-13.5h2.549V0H99.835l-.123-1.011A2.989,2.989,0,0,1,97.269.176a3.228,3.228,0,0,1-2.694-1.323A5.916,5.916,0,0,1,93.56-4.825Zm2.54.189a3.754,3.754,0,0,0,.466,2.051,1.517,1.517,0,0,0,1.354.713,1.7,1.7,0,0,0,1.661-.995V-6.625a1.675,1.675,0,0,0-1.644-.995Q96.1-7.62,96.1-4.636ZM109.608,0a2.821,2.821,0,0,1-.255-.853,3.073,3.073,0,0,1-2.4,1.028,3.376,3.376,0,0,1-2.316-.809,2.6,2.6,0,0,1-.918-2.039,2.687,2.687,0,0,1,1.121-2.32,5.529,5.529,0,0,1,3.239-.817h1.169v-.545a1.567,1.567,0,0,0-.338-1.055,1.331,1.331,0,0,0-1.068-.4,1.513,1.513,0,0,0-1.006.308,1.045,1.045,0,0,0-.365.844h-2.54a2.551,2.551,0,0,1,.51-1.529,3.37,3.37,0,0,1,1.441-1.1,5.253,5.253,0,0,1,2.092-.4,4.15,4.15,0,0,1,2.791.883A3.09,3.09,0,0,1,111.8-6.319V-2.2a4.546,4.546,0,0,0,.378,2.048V0Zm-2.1-1.767a2.188,2.188,0,0,0,1.037-.25,1.645,1.645,0,0,0,.7-.672V-4.324H108.3q-1.907,0-2.03,1.318l-.009.149a1.017,1.017,0,0,0,.334.782A1.3,1.3,0,0,0,107.508-1.767Zm5.845-3.059a5.731,5.731,0,0,1,1-3.542,3.237,3.237,0,0,1,2.729-1.318,2.913,2.913,0,0,1,2.294,1.037V-13.5h2.549V0h-2.294L119.5-1.011A2.989,2.989,0,0,1,117.062.176a3.228,3.228,0,0,1-2.694-1.323A5.916,5.916,0,0,1,113.353-4.825Zm2.54.189a3.754,3.754,0,0,0,.466,2.051,1.517,1.517,0,0,0,1.354.713,1.7,1.7,0,0,0,1.661-.995V-6.625a1.675,1.675,0,0,0-1.644-.995Q115.893-7.62,115.893-4.636Z" transform="translate(-8505.5 -10548)" fill="#12263f"/>
    <g id="Glyph" transform="translate(-8440 -10446.654)">
      <g id="Glyph-2" data-name="Glyph" transform="translate(0 0)">
        <path id="Trazado_611320" data-name="Trazado 611320" d="M64.992,0H7.663A7.685,7.685,0,0,0,0,7.663v7.663H72.654V7.663A7.685,7.685,0,0,0,64.992,0ZM8.8,10.5a1.7,1.7,0,1,1,1.7-1.7,1.7,1.7,0,0,1-1.7,1.7Zm9.082,0a1.7,1.7,0,1,1,1.7-1.7A1.7,1.7,0,0,1,17.88,10.5Zm9.082,0a1.7,1.7,0,1,1,1.7-1.7A1.7,1.7,0,0,1,26.962,10.5Zm36.327,0H54.207a1.7,1.7,0,1,1,0-3.406h9.082a1.7,1.7,0,0,1,0,3.406Z" transform="translate(0 0)" fill="#255f68"/>
        <path id="Trazado_611321" data-name="Trazado 611321" d="M63.156,81.8h7.969l.6-8.8H62.56Z" transform="translate(-27.05 -31.564)" fill="#255f68"/>
        <path id="Trazado_611322" data-name="Trazado 611322" d="M92.916,55.022A.857.857,0,0,0,92.082,54H82.523l-.613,9.082h9.371Z" transform="translate(-35.417 -23.349)" fill="#255f68"/>
        <path id="Trazado_611323" data-name="Trazado 611323" d="M45.209,81.8h7.958l-.6-8.8H43.41Z" transform="translate(-18.77 -31.564)" fill="#255f68"/>
        <path id="Trazado_611324" data-name="Trazado 611324" d="M50.776,63.082,50.163,54H39.52l1.862,9.082Z" transform="translate(-17.088 -23.349)" fill="#255f68"/>
        <circle id="Elipse_6013" data-name="Elipse 6013" cx="0.851" cy="0.851" r="0.851" transform="translate(30.367 57.896)" fill="#255f68"/>
        <path id="Trazado_611325" data-name="Trazado 611325" d="M90.4,73H81.25l-.59,8.8h7.952Z" transform="translate(-34.876 -31.564)" fill="#255f68"/>
        <path id="Trazado_611326" data-name="Trazado 611326" d="M0,77.963a7.689,7.689,0,0,0,7.663,7.663H64.992a7.689,7.689,0,0,0,7.663-7.663V30H0ZM10.5,38.23h8.514A2.853,2.853,0,0,1,21.8,40.5l.289,1.419H56.665a2.567,2.567,0,0,1,2.5,3.059l-3.7,18.226h1a2.838,2.838,0,0,1,0,5.676H53.492a4.541,4.541,0,1,1-7.084,0H34.761a4.541,4.541,0,1,1-7.084,0H24.123a2.853,2.853,0,0,1-2.781-2.27L16.7,43.906H10.5a2.838,2.838,0,0,1,0-5.676Z" transform="translate(0 -12.972)" fill="#255f68"/>
        <circle id="Elipse_6014" data-name="Elipse 6014" cx="0.851" cy="0.851" r="0.851" transform="translate(49.098 57.896)" fill="#255f68"/>
        <path id="Trazado_611327" data-name="Trazado 611327" d="M71.281,63.082,71.894,54H61.28l.613,9.082Z" transform="translate(-26.497 -23.349)" fill="#255f68"/>
      </g>
    </g>
    <path id="Trazado_612014" data-name="Trazado 612014" d="M1.143,0V-12.8H5.08a5.98,5.98,0,0,1,3.019.76,5.3,5.3,0,0,1,2.079,2.162,6.669,6.669,0,0,1,.747,3.186V-6.1a6.688,6.688,0,0,1-.734,3.173A5.256,5.256,0,0,1,8.121-.773,6.025,6.025,0,0,1,5.106,0ZM3.779-10.661v8.543H5.054A2.863,2.863,0,0,0,7.418-3.129a4.567,4.567,0,0,0,.835-2.892V-6.7a4.64,4.64,0,0,0-.809-2.958A2.854,2.854,0,0,0,5.08-10.661ZM15.354,0H12.806V-9.51h2.549Zm-2.7-11.971a1.251,1.251,0,0,1,.382-.94,1.436,1.436,0,0,1,1.042-.369,1.44,1.44,0,0,1,1.037.369,1.244,1.244,0,0,1,.387.94,1.247,1.247,0,0,1-.391.949,1.443,1.443,0,0,1-1.033.369,1.443,1.443,0,0,1-1.033-.369A1.247,1.247,0,0,1,12.656-11.971Zm4.421,7.146A5.573,5.573,0,0,1,18.119-8.35a3.375,3.375,0,0,1,2.808-1.336,2.96,2.96,0,0,1,2.435,1.072l.105-.9h2.3V-.316A4.064,4.064,0,0,1,25.2,1.854a3.641,3.641,0,0,1-1.6,1.406,5.608,5.608,0,0,1-2.408.483,5.215,5.215,0,0,1-2.039-.417,3.619,3.619,0,0,1-1.5-1.077L18.782.7a2.975,2.975,0,0,0,2.3,1.063,2.178,2.178,0,0,0,1.573-.541,2.027,2.027,0,0,0,.563-1.534v-.51a2.938,2.938,0,0,1-2.312.993,3.366,3.366,0,0,1-2.773-1.34A5.572,5.572,0,0,1,17.077-4.72Zm2.54.189a3.47,3.47,0,0,0,.519,2.029,1.65,1.65,0,0,0,1.424.735,1.764,1.764,0,0,0,1.661-.871V-6.749a1.76,1.76,0,0,0-1.644-.871,1.66,1.66,0,0,0-1.437.748A3.911,3.911,0,0,0,19.617-4.636ZM30.4,0H27.853V-9.51H30.4ZM27.7-11.971a1.251,1.251,0,0,1,.382-.94,1.436,1.436,0,0,1,1.042-.369,1.44,1.44,0,0,1,1.037.369,1.244,1.244,0,0,1,.387.94,1.247,1.247,0,0,1-.391.949,1.443,1.443,0,0,1-1.033.369,1.443,1.443,0,0,1-1.033-.369A1.247,1.247,0,0,1,27.7-11.971Zm7.831.123V-9.51H37.16v1.863H35.534V-2.9a1.133,1.133,0,0,0,.2.756,1.015,1.015,0,0,0,.773.229,4.051,4.051,0,0,0,.747-.062V-.053a5.229,5.229,0,0,1-1.538.229,2.425,2.425,0,0,1-2.725-2.7V-7.646H31.605V-9.51h1.389v-2.338ZM44.086,0a2.821,2.821,0,0,1-.255-.853,3.073,3.073,0,0,1-2.4,1.028,3.376,3.376,0,0,1-2.316-.809A2.6,2.6,0,0,1,38.2-2.672a2.687,2.687,0,0,1,1.121-2.32,5.529,5.529,0,0,1,3.239-.817h1.169v-.545a1.567,1.567,0,0,0-.338-1.055,1.331,1.331,0,0,0-1.068-.4,1.513,1.513,0,0,0-1.006.308,1.045,1.045,0,0,0-.365.844h-2.54a2.551,2.551,0,0,1,.51-1.529,3.37,3.37,0,0,1,1.441-1.1,5.253,5.253,0,0,1,2.092-.4,4.15,4.15,0,0,1,2.791.883,3.09,3.09,0,0,1,1.033,2.483V-2.2a4.546,4.546,0,0,0,.378,2.048V0Zm-2.1-1.767a2.188,2.188,0,0,0,1.037-.25,1.645,1.645,0,0,0,.7-.672V-4.324h-.949q-1.907,0-2.03,1.318l-.009.149a1.017,1.017,0,0,0,.334.782A1.3,1.3,0,0,0,41.985-1.767ZM50.906,0H48.357V-13.5h2.549Zm4.772,0H53.13V-9.51h2.549Zm-2.7-11.971a1.251,1.251,0,0,1,.382-.94A1.436,1.436,0,0,1,54.4-13.28a1.44,1.44,0,0,1,1.037.369,1.244,1.244,0,0,1,.387.94,1.247,1.247,0,0,1-.391.949,1.443,1.443,0,0,1-1.033.369,1.443,1.443,0,0,1-1.033-.369A1.247,1.247,0,0,1,52.98-11.971Zm7.708,9.923h4.649V0H57.445V-1.547l4.474-5.915H57.577V-9.51H65.2v1.5ZM72.439,0a2.821,2.821,0,0,1-.255-.853,3.073,3.073,0,0,1-2.4,1.028,3.376,3.376,0,0,1-2.316-.809,2.6,2.6,0,0,1-.918-2.039,2.687,2.687,0,0,1,1.121-2.32A5.529,5.529,0,0,1,70.91-5.81h1.169v-.545a1.567,1.567,0,0,0-.338-1.055,1.331,1.331,0,0,0-1.068-.4,1.513,1.513,0,0,0-1.006.308,1.045,1.045,0,0,0-.365.844h-2.54a2.551,2.551,0,0,1,.51-1.529,3.37,3.37,0,0,1,1.441-1.1,5.253,5.253,0,0,1,2.092-.4A4.15,4.15,0,0,1,73.6-8.8a3.09,3.09,0,0,1,1.033,2.483V-2.2a4.546,4.546,0,0,0,.378,2.048V0Zm-2.1-1.767a2.188,2.188,0,0,0,1.037-.25,1.645,1.645,0,0,0,.7-.672V-4.324H71.13q-1.907,0-2.03,1.318l-.009.149a1.017,1.017,0,0,0,.334.782A1.3,1.3,0,0,0,70.339-1.767Zm10.2-.105a1.666,1.666,0,0,0,1.143-.387,1.355,1.355,0,0,0,.457-1.028h2.382a3.258,3.258,0,0,1-.527,1.771A3.48,3.48,0,0,1,82.569-.268a4.442,4.442,0,0,1-1.991.444,4.129,4.129,0,0,1-3.217-1.3A5.13,5.13,0,0,1,76.184-4.7v-.167a5.071,5.071,0,0,1,1.169-3.507,4.08,4.08,0,0,1,3.208-1.31A4,4,0,0,1,83.421-8.67a3.594,3.594,0,0,1,1.094,2.7H82.134a1.745,1.745,0,0,0-.457-1.206,1.524,1.524,0,0,0-1.16-.464,1.53,1.53,0,0,0-1.34.647,3.749,3.749,0,0,0-.453,2.1v.264a3.8,3.8,0,0,0,.448,2.113A1.549,1.549,0,0,0,80.534-1.872ZM88.646,0H86.1V-9.51h2.549Zm-2.7-11.971a1.251,1.251,0,0,1,.382-.94,1.436,1.436,0,0,1,1.042-.369,1.44,1.44,0,0,1,1.037.369,1.244,1.244,0,0,1,.387.94,1.247,1.247,0,0,1-.391.949,1.443,1.443,0,0,1-1.033.369,1.443,1.443,0,0,1-1.033-.369A1.247,1.247,0,0,1,85.948-11.971Zm4.395,7.128a5.64,5.64,0,0,1,.545-2.522,3.989,3.989,0,0,1,1.569-1.714,4.577,4.577,0,0,1,2.377-.606,4.33,4.33,0,0,1,3.142,1.178,4.727,4.727,0,0,1,1.358,3.2l.018.65A4.97,4.97,0,0,1,98.13-1.147,4.247,4.247,0,0,1,94.852.176a4.268,4.268,0,0,1-3.283-1.318,5.058,5.058,0,0,1-1.226-3.586Zm2.54.18a3.555,3.555,0,0,0,.51,2.073,1.682,1.682,0,0,0,1.459.717,1.686,1.686,0,0,0,1.441-.709,3.89,3.89,0,0,0,.519-2.267,3.519,3.519,0,0,0-.519-2.06,1.686,1.686,0,0,0-1.459-.731,1.658,1.658,0,0,0-1.441.726A3.955,3.955,0,0,0,92.883-4.662ZM95.335-13.5H98.1l-2.435,2.725H93.6Zm7.919,3.99.079,1.1a3.32,3.32,0,0,1,2.733-1.274,2.759,2.759,0,0,1,2.25.888,4.142,4.142,0,0,1,.756,2.654V0h-2.54V-6.082a1.648,1.648,0,0,0-.352-1.173,1.574,1.574,0,0,0-1.169-.365,1.747,1.747,0,0,0-1.608.914V0h-2.54V-9.51Z" transform="translate(-8609.5 -10403.827)" fill="#12263f"/>
    <rect id="Rectángulo_378857" data-name="Rectángulo 378857" width="400" height="146" transform="translate(-8696 -10327)" fill="#dbf8fd"/>
    <rect id="Rectángulo_378858" data-name="Rectángulo 378858" width="400" height="146" transform="translate(-8695 -10035)" fill="#dbf8fd"/>
    <g id="Grupo_1074655" data-name="Grupo 1074655" transform="translate(-8613 -10295.936)">
      <path id="Trazado_611307" data-name="Trazado 611307" d="M24.332,31.807a15.806,15.806,0,0,0-6.069,12.456v4.754H8.754A4.748,4.748,0,0,1,4,44.262V41.093A11.085,11.085,0,0,1,15.093,30h3.169A11.024,11.024,0,0,1,24.332,31.807Z" transform="translate(0 15.788)" fill="#255f68"/>
      <circle id="Elipse_6009" data-name="Elipse 6009" cx="7.131" cy="7.131" r="7.131" transform="translate(47.58 31.525)" fill="#255f68"/>
      <circle id="Elipse_6010" data-name="Elipse 6010" cx="7.131" cy="7.131" r="7.131" transform="translate(9.547 31.525)" fill="#255f68"/>
      <path id="Trazado_611308" data-name="Trazado 611308" d="M51.5,41.093v3.169a4.748,4.748,0,0,1-4.754,4.754H37.239V44.262A15.806,15.806,0,0,0,31.17,31.807,11.024,11.024,0,0,1,37.239,30h3.169A11.085,11.085,0,0,1,51.5,41.093Z" transform="translate(15.887 15.788)" fill="#255f68"/>
      <circle id="Elipse_6011" data-name="Elipse 6011" cx="8.716" cy="8.716" r="8.716" transform="translate(26.978 29.941)" fill="#255f68"/>
      <path id="Trazado_611309" data-name="Trazado 611309" d="M30.847,31H27.678A12.692,12.692,0,0,0,15,43.678v4.754a4.76,4.76,0,0,0,4.754,4.754H38.771a4.76,4.76,0,0,0,4.754-4.754V43.678A12.692,12.692,0,0,0,30.847,31Z" transform="translate(6.432 16.373)" fill="#255f68"/>
      <path id="Trazado_611310" data-name="Trazado 611310" d="M41.716,22.323l-3.824,1.36a1.638,1.638,0,0,1-2.187-1.589l.111-4.057-2.475-3.217a1.639,1.639,0,0,1,.835-2.572L38.07,11.1l2.295-3.348a1.639,1.639,0,0,1,2.7,0L45.362,11.1l3.894,1.147a1.639,1.639,0,0,1,.835,2.572l-2.475,3.217.111,4.057a1.639,1.639,0,0,1-2.187,1.589Z" transform="translate(16.957 2.363)" fill="#255f68"/>
      <path id="Trazado_611311" data-name="Trazado 611311" d="M12.716,22.323l-3.824,1.36a1.638,1.638,0,0,1-2.187-1.589l.111-4.057L4.341,14.819a1.639,1.639,0,0,1,.835-2.572L9.07,11.1l2.295-3.348a1.639,1.639,0,0,1,2.7,0L16.362,11.1l3.894,1.147a1.639,1.639,0,0,1,.835,2.572l-2.475,3.217.111,4.057a1.639,1.639,0,0,1-2.187,1.589Z" transform="translate(0 2.363)" fill="#255f68"/>
      <path id="Trazado_611312" data-name="Trazado 611312" d="M27.813,21.12l-4.534,1.612a1.942,1.942,0,0,1-2.593-1.884l.132-4.81-2.935-3.814a1.944,1.944,0,0,1,.99-3.049L23.49,7.813l2.721-3.97a1.943,1.943,0,0,1,3.206,0l2.721,3.97,4.616,1.361a1.944,1.944,0,0,1,.99,3.049l-2.935,3.814.132,4.81a1.943,1.943,0,0,1-2.593,1.884L27.814,21.12Z" transform="translate(7.881)" fill="#255f68"/>
    </g>
    <path id="Trazado_612015" data-name="Trazado 612015" d="M8.842-5.546H3.779v3.428H9.721V0H1.143V-12.8H9.7v2.136H3.779v3.05H8.842Zm5.88-1.125,1.6-2.839h2.716L16.33-4.852,19.151,0H16.427l-1.7-2.988L13.043,0H10.31l2.821-4.852-2.7-4.658h2.725Zm14.1,2a5.7,5.7,0,0,1-1,3.52A3.2,3.2,0,0,1,25.128.176a2.963,2.963,0,0,1-2.329-1V3.656h-2.54V-9.51h2.355l.088.932A2.985,2.985,0,0,1,25.11-9.686a3.22,3.22,0,0,1,2.733,1.3A5.858,5.858,0,0,1,28.819-4.8Zm-2.54-.185a3.743,3.743,0,0,0-.47-2.048,1.532,1.532,0,0,0-1.367-.721,1.663,1.663,0,0,0-1.644.914v3.894a1.692,1.692,0,0,0,1.661.94Q26.279-1.872,26.279-4.852ZM34.77.176a4.668,4.668,0,0,1-3.406-1.283A4.561,4.561,0,0,1,30.05-4.526v-.246A5.745,5.745,0,0,1,30.6-7.334a4.064,4.064,0,0,1,1.569-1.74,4.4,4.4,0,0,1,2.316-.611,3.947,3.947,0,0,1,3.072,1.23,5,5,0,0,1,1.121,3.489v1.037H32.625a2.36,2.36,0,0,0,.743,1.494,2.245,2.245,0,0,0,1.569.563A2.742,2.742,0,0,0,37.23-2.936l1.248,1.4A3.813,3.813,0,0,1,36.932-.277,5.075,5.075,0,0,1,34.77.176Zm-.29-7.813a1.587,1.587,0,0,0-1.226.512,2.651,2.651,0,0,0-.6,1.466h3.533v-.2a1.891,1.891,0,0,0-.457-1.311A1.638,1.638,0,0,0,34.479-7.638Zm9.6,5.766a1.666,1.666,0,0,0,1.143-.387,1.355,1.355,0,0,0,.457-1.028h2.382a3.258,3.258,0,0,1-.527,1.771A3.48,3.48,0,0,1,46.112-.268a4.442,4.442,0,0,1-1.991.444,4.129,4.129,0,0,1-3.217-1.3A5.13,5.13,0,0,1,39.727-4.7v-.167A5.071,5.071,0,0,1,40.9-8.376,4.08,4.08,0,0,1,44.1-9.686,4,4,0,0,1,46.964-8.67a3.594,3.594,0,0,1,1.094,2.7H45.677a1.745,1.745,0,0,0-.457-1.206,1.524,1.524,0,0,0-1.16-.464,1.53,1.53,0,0,0-1.34.647,3.749,3.749,0,0,0-.453,2.1v.264a3.8,3.8,0,0,0,.448,2.113A1.549,1.549,0,0,0,44.077-1.872Zm8.473-9.976V-9.51h1.626v1.863H52.55V-2.9a1.133,1.133,0,0,0,.2.756,1.015,1.015,0,0,0,.773.229,4.051,4.051,0,0,0,.747-.062V-.053a5.229,5.229,0,0,1-1.538.229,2.425,2.425,0,0,1-2.725-2.7V-7.646H48.621V-9.51H50.01v-2.338ZM61.1,0a2.821,2.821,0,0,1-.255-.853,3.073,3.073,0,0,1-2.4,1.028,3.376,3.376,0,0,1-2.316-.809,2.6,2.6,0,0,1-.918-2.039,2.687,2.687,0,0,1,1.121-2.32,5.529,5.529,0,0,1,3.239-.817h1.169v-.545A1.567,1.567,0,0,0,60.4-7.409a1.331,1.331,0,0,0-1.068-.4,1.513,1.513,0,0,0-1.006.308,1.045,1.045,0,0,0-.365.844h-2.54a2.551,2.551,0,0,1,.51-1.529,3.37,3.37,0,0,1,1.441-1.1,5.253,5.253,0,0,1,2.092-.4,4.15,4.15,0,0,1,2.791.883A3.09,3.09,0,0,1,63.29-6.319V-2.2a4.546,4.546,0,0,0,.378,2.048V0ZM59-1.767a2.188,2.188,0,0,0,1.037-.25,1.645,1.645,0,0,0,.7-.672V-4.324h-.949q-1.907,0-2.03,1.318l-.009.149a1.017,1.017,0,0,0,.334.782A1.3,1.3,0,0,0,59-1.767Zm9.281-10.081V-9.51h1.626v1.863H68.282V-2.9a1.133,1.133,0,0,0,.2.756,1.015,1.015,0,0,0,.773.229A4.051,4.051,0,0,0,70-1.978V-.053a5.229,5.229,0,0,1-1.538.229,2.425,2.425,0,0,1-2.725-2.7V-7.646H64.354V-9.51h1.389v-2.338ZM74,0H71.455V-9.51H74Zm-2.7-11.971a1.251,1.251,0,0,1,.382-.94,1.436,1.436,0,0,1,1.042-.369,1.44,1.44,0,0,1,1.037.369,1.244,1.244,0,0,1,.387.94,1.247,1.247,0,0,1-.391.949,1.443,1.443,0,0,1-1.033.369,1.443,1.443,0,0,1-1.033-.369A1.247,1.247,0,0,1,71.306-11.971ZM79.655-3.1,81.422-9.51h2.654L80.868,0H78.442L75.234-9.51h2.654ZM90.571,0a2.821,2.821,0,0,1-.255-.853,3.073,3.073,0,0,1-2.4,1.028A3.376,3.376,0,0,1,85.6-.633a2.6,2.6,0,0,1-.918-2.039A2.687,2.687,0,0,1,85.8-4.992a5.529,5.529,0,0,1,3.239-.817h1.169v-.545a1.567,1.567,0,0,0-.338-1.055A1.331,1.331,0,0,0,88.8-7.8,1.513,1.513,0,0,0,87.8-7.5a1.045,1.045,0,0,0-.365.844h-2.54a2.551,2.551,0,0,1,.51-1.529,3.37,3.37,0,0,1,1.441-1.1,5.253,5.253,0,0,1,2.092-.4,4.15,4.15,0,0,1,2.791.883A3.09,3.09,0,0,1,92.76-6.319V-2.2a4.546,4.546,0,0,0,.378,2.048V0Zm-2.1-1.767a2.188,2.188,0,0,0,1.037-.25,1.645,1.645,0,0,0,.7-.672V-4.324h-.949q-1.907,0-2.03,1.318l-.009.149a1.017,1.017,0,0,0,.334.782A1.3,1.3,0,0,0,88.471-1.767Zm11.391-.861a.818.818,0,0,0-.461-.734,5.241,5.241,0,0,0-1.481-.479q-3.393-.712-3.393-2.883a2.613,2.613,0,0,1,1.05-2.114,4.237,4.237,0,0,1,2.747-.848,4.56,4.56,0,0,1,2.9.853A2.687,2.687,0,0,1,102.3-6.618h-2.54a1.229,1.229,0,0,0-.352-.9,1.488,1.488,0,0,0-1.1-.356,1.52,1.52,0,0,0-.993.29.916.916,0,0,0-.352.738.783.783,0,0,0,.4.681,4.114,4.114,0,0,0,1.349.448,11.019,11.019,0,0,1,1.6.426,2.628,2.628,0,0,1,2.013,2.558,2.481,2.481,0,0,1-1.116,2.1,4.815,4.815,0,0,1-2.883.8A5.029,5.029,0,0,1,96.209-.25a3.561,3.561,0,0,1-1.455-1.169,2.716,2.716,0,0,1-.527-1.6h2.408a1.326,1.326,0,0,0,.5,1.037,1.987,1.987,0,0,0,1.248.36,1.839,1.839,0,0,0,1.1-.277A.861.861,0,0,0,99.861-2.628ZM1.143,19.2V6.4H5.08a5.98,5.98,0,0,1,3.019.76,5.3,5.3,0,0,1,2.079,2.162,6.669,6.669,0,0,1,.747,3.186V13.1a6.688,6.688,0,0,1-.734,3.173,5.256,5.256,0,0,1-2.07,2.153,6.025,6.025,0,0,1-3.015.773ZM3.779,8.539v8.543H5.054a2.863,2.863,0,0,0,2.364-1.011,4.567,4.567,0,0,0,.835-2.892V12.5a4.64,4.64,0,0,0-.809-2.958A2.854,2.854,0,0,0,5.08,8.539ZM17.051,19.376a4.668,4.668,0,0,1-3.406-1.283,4.561,4.561,0,0,1-1.314-3.419v-.246a5.745,5.745,0,0,1,.554-2.562,4.064,4.064,0,0,1,1.569-1.74,4.4,4.4,0,0,1,2.316-.611,3.947,3.947,0,0,1,3.072,1.23,5,5,0,0,1,1.121,3.489v1.037H14.906a2.36,2.36,0,0,0,.743,1.494,2.245,2.245,0,0,0,1.569.563,2.742,2.742,0,0,0,2.294-1.063l1.248,1.4a3.813,3.813,0,0,1-1.547,1.261A5.075,5.075,0,0,1,17.051,19.376Zm-.29-7.813a1.587,1.587,0,0,0-1.226.512,2.651,2.651,0,0,0-.6,1.466h3.533v-.2a1.891,1.891,0,0,0-.457-1.311A1.638,1.638,0,0,0,16.761,11.562ZM25.084,19.2H22.535V5.7h2.549Zm10.529-1.872a1.666,1.666,0,0,0,1.143-.387,1.355,1.355,0,0,0,.457-1.028h2.382a3.258,3.258,0,0,1-.527,1.771,3.48,3.48,0,0,1-1.419,1.248,4.442,4.442,0,0,1-1.991.444,4.129,4.129,0,0,1-3.217-1.3A5.13,5.13,0,0,1,31.263,14.5v-.167a5.071,5.071,0,0,1,1.169-3.507,4.08,4.08,0,0,1,3.208-1.31A4,4,0,0,1,38.5,10.53a3.594,3.594,0,0,1,1.094,2.7H37.213a1.745,1.745,0,0,0-.457-1.206,1.7,1.7,0,0,0-2.5.183,3.749,3.749,0,0,0-.453,2.1v.264a3.8,3.8,0,0,0,.448,2.113A1.549,1.549,0,0,0,35.613,17.328ZM43.726,19.2H41.177V5.7h2.549Zm4.772,0H45.949V9.69H48.5ZM45.8,7.229a1.251,1.251,0,0,1,.382-.94,1.648,1.648,0,0,1,2.079,0,1.244,1.244,0,0,1,.387.94,1.247,1.247,0,0,1-.391.949,1.629,1.629,0,0,1-2.065,0A1.247,1.247,0,0,1,45.8,7.229Zm9.167,12.146a4.668,4.668,0,0,1-3.406-1.283,4.561,4.561,0,0,1-1.314-3.419v-.246a5.745,5.745,0,0,1,.554-2.562,4.064,4.064,0,0,1,1.569-1.74,4.4,4.4,0,0,1,2.316-.611,3.947,3.947,0,0,1,3.072,1.23,5,5,0,0,1,1.121,3.489v1.037H52.822a2.36,2.36,0,0,0,.743,1.494,2.245,2.245,0,0,0,1.569.563,2.742,2.742,0,0,0,2.294-1.063l1.248,1.4a3.813,3.813,0,0,1-1.547,1.261A5.075,5.075,0,0,1,54.967,19.376Zm-.29-7.813a1.587,1.587,0,0,0-1.226.512,2.651,2.651,0,0,0-.6,1.466h3.533v-.2a1.891,1.891,0,0,0-.457-1.311A1.638,1.638,0,0,0,54.677,11.562Zm7.98-1.872.079,1.1A3.32,3.32,0,0,1,65.47,9.514a2.759,2.759,0,0,1,2.25.888,4.142,4.142,0,0,1,.756,2.654V19.2h-2.54V13.118a1.648,1.648,0,0,0-.352-1.173,1.574,1.574,0,0,0-1.169-.365,1.747,1.747,0,0,0-1.608.914V19.2h-2.54V9.69ZM73.441,7.352V9.69h1.626v1.863H73.441V16.3a1.133,1.133,0,0,0,.2.756,1.015,1.015,0,0,0,.773.229,4.051,4.051,0,0,0,.747-.062v1.925a5.229,5.229,0,0,1-1.538.229,2.425,2.425,0,0,1-2.725-2.7V11.554H69.513V9.69H70.9V7.352Zm7.418,12.023a4.668,4.668,0,0,1-3.406-1.283,4.561,4.561,0,0,1-1.314-3.419v-.246a5.745,5.745,0,0,1,.554-2.562,4.064,4.064,0,0,1,1.569-1.74,4.4,4.4,0,0,1,2.316-.611,3.947,3.947,0,0,1,3.072,1.23,5,5,0,0,1,1.121,3.489v1.037H78.715a2.36,2.36,0,0,0,.743,1.494,2.245,2.245,0,0,0,1.569.563,2.742,2.742,0,0,0,2.294-1.063l1.248,1.4a3.813,3.813,0,0,1-1.547,1.261A5.075,5.075,0,0,1,80.859,19.376Zm-.29-7.813a1.587,1.587,0,0,0-1.226.512,2.651,2.651,0,0,0-.6,1.466h3.533v-.2a1.891,1.891,0,0,0-.457-1.311A1.638,1.638,0,0,0,80.569,11.562Z" transform="translate(-8505.5 -10247.5)" fill="#12263f"/>
    <g id="Grupo_1074656" data-name="Grupo 1074656" transform="translate(-8438 -10137)">
      <path id="Trazado_611313" data-name="Trazado 611313" d="M20,41.341c0,3.289,9.039,6.953,22.018,6.953s22.018-3.664,22.018-6.953v-9.78c-4.161,3.364-13.29,5.144-22.018,5.144S24.161,34.925,20,31.561Z" transform="translate(2.859 4.696)" fill="#255f68"/>
      <path id="Trazado_611314" data-name="Trazado 611314" d="M20,53.341c0,3.289,9.039,6.953,22.018,6.953s22.018-3.664,22.018-6.953v-9.78c-4.161,3.364-13.29,5.144-22.018,5.144S24.161,46.925,20,43.561Z" transform="translate(2.859 6.602)" fill="#255f68"/>
      <path id="Trazado_611315" data-name="Trazado 611315" d="M64.036,29.341v-9.78c-4.161,3.364-13.29,5.144-22.018,5.144S24.161,22.925,20,19.561v9.78c0,3.289,9.039,6.953,22.018,6.953S64.036,32.629,64.036,29.341ZM25.712,28.182a1.159,1.159,0,0,1-1.507.649q-.637-.254-1.221-.525a1.159,1.159,0,0,1,.98-2.1q.521.245,1.1.472a1.159,1.159,0,0,1,.651,1.505Zm5.853,1.462a1.159,1.159,0,0,1-1.135.927,1.121,1.121,0,0,1-.232-.023q-.606-.122-1.189-.256a1.159,1.159,0,1,1,.519-2.259q.554.127,1.129.243a1.159,1.159,0,0,1,.907,1.367Z" transform="translate(2.859 2.79)" fill="#255f68"/>
      <path id="Trazado_611316" data-name="Trazado 611316" d="M24.018,2C11.039,2,2,5.664,2,8.953c0,2.986,7.714,6.4,19.265,6.885,2.818-4.488,13.484-6.885,23.613-6.885.385,0,.772,0,1.159.01v-.01C46.036,5.664,37,2,24.018,2Z" fill="#255f68"/>
      <path id="Trazado_611317" data-name="Trazado 611317" d="M20.542,52.2V40.614C11.085,40.145,5.021,38.03,2,35.5v9.85c0,2.9,7.405,6.258,18.542,6.852Z" transform="translate(0 5.321)" fill="#255f68"/>
      <ellipse id="Elipse_6012" data-name="Elipse 6012" cx="22" cy="7" rx="22" ry="7" transform="translate(23 11)" fill="#255f68"/>
      <path id="Trazado_611318" data-name="Trazado 611318" d="M2,33.349c0,2.9,7.405,6.258,18.542,6.852V28.613C13.009,28.214,5.624,26.444,2,23.507Z" transform="translate(0 3.416)" fill="#255f68"/>
      <path id="Trazado_611319" data-name="Trazado 611319" d="M20.542,16.711a.481.481,0,0,1,.007-.1C12.994,16.217,5.618,14.455,2,11.521v9.826c0,2.9,7.4,6.258,18.542,6.851ZM7.712,20.188a1.159,1.159,0,0,1-1.507.649q-.637-.254-1.221-.525a1.159,1.159,0,0,1,.98-2.1q.521.245,1.1.472a1.159,1.159,0,0,1,.651,1.505Zm5.853,1.462a1.159,1.159,0,0,1-1.135.927,1.12,1.12,0,0,1-.232-.023q-.607-.122-1.189-.256a1.159,1.159,0,1,1,.519-2.259c.37.085.745.166,1.129.243a1.159,1.159,0,0,1,.907,1.367Z" transform="translate(0 1.512)" fill="#255f68"/>
    </g>
    <path id="Trazado_612016" data-name="Trazado 612016" d="M11.268-1.617A4.577,4.577,0,0,1,9.255-.294a8.429,8.429,0,0,1-2.883.47A5.711,5.711,0,0,1,3.458-.549a4.836,4.836,0,0,1-1.934-2.1A7.408,7.408,0,0,1,.826-5.9v-.87a7.868,7.868,0,0,1,.646-3.318A4.779,4.779,0,0,1,3.335-12.23a5.367,5.367,0,0,1,2.852-.743,5.345,5.345,0,0,1,3.56,1.085,4.639,4.639,0,0,1,1.521,3.16H8.7a2.552,2.552,0,0,0-.778-1.608,2.484,2.484,0,0,0-1.657-.51A2.338,2.338,0,0,0,4.219-9.835a5.315,5.315,0,0,0-.712,3.006v.817a5.06,5.06,0,0,0,.765,3.041A2.618,2.618,0,0,0,6.513-1.942a2.925,2.925,0,0,0,2.118-.633V-4.781h-2.4V-6.724h5.036ZM17.613.176a4.668,4.668,0,0,1-3.406-1.283,4.561,4.561,0,0,1-1.314-3.419v-.246a5.745,5.745,0,0,1,.554-2.562,4.064,4.064,0,0,1,1.569-1.74,4.4,4.4,0,0,1,2.316-.611A3.947,3.947,0,0,1,20.4-8.455a5,5,0,0,1,1.121,3.489v1.037H15.469a2.36,2.36,0,0,0,.743,1.494,2.245,2.245,0,0,0,1.569.563,2.742,2.742,0,0,0,2.294-1.063l1.248,1.4A3.813,3.813,0,0,1,19.775-.277,5.075,5.075,0,0,1,17.613.176Zm-.29-7.813a1.587,1.587,0,0,0-1.226.512,2.651,2.651,0,0,0-.6,1.466h3.533v-.2a1.891,1.891,0,0,0-.457-1.311A1.638,1.638,0,0,0,17.323-7.638Zm10.793,5.01a.818.818,0,0,0-.461-.734,5.241,5.241,0,0,0-1.481-.479q-3.393-.712-3.393-2.883a2.613,2.613,0,0,1,1.05-2.114,4.237,4.237,0,0,1,2.747-.848,4.56,4.56,0,0,1,2.9.853A2.687,2.687,0,0,1,30.56-6.618H28.02a1.229,1.229,0,0,0-.352-.9,1.488,1.488,0,0,0-1.1-.356,1.52,1.52,0,0,0-.993.29.916.916,0,0,0-.352.738.783.783,0,0,0,.4.681,4.114,4.114,0,0,0,1.349.448,11.019,11.019,0,0,1,1.6.426,2.628,2.628,0,0,1,2.013,2.558,2.481,2.481,0,0,1-1.116,2.1,4.815,4.815,0,0,1-2.883.8A5.029,5.029,0,0,1,24.464-.25,3.561,3.561,0,0,1,23.01-1.419a2.716,2.716,0,0,1-.527-1.6h2.408a1.326,1.326,0,0,0,.5,1.037,1.987,1.987,0,0,0,1.248.36,1.839,1.839,0,0,0,1.1-.277A.861.861,0,0,0,28.116-2.628Zm7.146-9.22V-9.51h1.626v1.863H35.262V-2.9a1.133,1.133,0,0,0,.2.756,1.015,1.015,0,0,0,.773.229,4.051,4.051,0,0,0,.747-.062V-.053a5.229,5.229,0,0,1-1.538.229,2.425,2.425,0,0,1-2.725-2.7V-7.646H31.333V-9.51h1.389v-2.338ZM40.983,0H38.435V-9.51h2.549Zm-2.7-11.971a1.251,1.251,0,0,1,.382-.94,1.436,1.436,0,0,1,1.042-.369,1.44,1.44,0,0,1,1.037.369,1.244,1.244,0,0,1,.387.94,1.247,1.247,0,0,1-.391.949,1.443,1.443,0,0,1-1.033.369,1.443,1.443,0,0,1-1.033-.369A1.247,1.247,0,0,1,38.285-11.971ZM42.68-4.843a5.64,5.64,0,0,1,.545-2.522,3.989,3.989,0,0,1,1.569-1.714,4.577,4.577,0,0,1,2.377-.606,4.33,4.33,0,0,1,3.142,1.178,4.727,4.727,0,0,1,1.358,3.2l.018.65a4.97,4.97,0,0,1-1.222,3.511A4.247,4.247,0,0,1,47.188.176a4.268,4.268,0,0,1-3.283-1.318A5.058,5.058,0,0,1,42.68-4.729Zm2.54.18a3.555,3.555,0,0,0,.51,2.073,1.682,1.682,0,0,0,1.459.717,1.686,1.686,0,0,0,1.441-.709,3.89,3.89,0,0,0,.519-2.267,3.519,3.519,0,0,0-.519-2.06,1.686,1.686,0,0,0-1.459-.731,1.658,1.658,0,0,0-1.441.726A3.955,3.955,0,0,0,45.22-4.662ZM47.672-13.5H50.44l-2.435,2.725H45.94Zm7.919,3.99.079,1.1A3.32,3.32,0,0,1,58.4-9.686a2.759,2.759,0,0,1,2.25.888,4.142,4.142,0,0,1,.756,2.654V0h-2.54V-6.082a1.648,1.648,0,0,0-.352-1.173,1.574,1.574,0,0,0-1.169-.365,1.747,1.747,0,0,0-1.608.914V0H53.2V-9.51Zm11.83,4.685a5.731,5.731,0,0,1,1-3.542,3.237,3.237,0,0,1,2.729-1.318,2.913,2.913,0,0,1,2.294,1.037V-13.5H75.99V0H73.7l-.123-1.011A2.989,2.989,0,0,1,71.13.176a3.228,3.228,0,0,1-2.694-1.323A5.916,5.916,0,0,1,67.421-4.825Zm2.54.189a3.754,3.754,0,0,0,.466,2.051,1.517,1.517,0,0,0,1.354.713,1.7,1.7,0,0,0,1.661-.995V-6.625A1.675,1.675,0,0,0,71.8-7.62Q69.961-7.62,69.961-4.636ZM82.336.176A4.668,4.668,0,0,1,78.93-1.107a4.561,4.561,0,0,1-1.314-3.419v-.246a5.745,5.745,0,0,1,.554-2.562,4.064,4.064,0,0,1,1.569-1.74,4.4,4.4,0,0,1,2.316-.611,3.947,3.947,0,0,1,3.072,1.23,5,5,0,0,1,1.121,3.489v1.037H80.191a2.36,2.36,0,0,0,.743,1.494,2.245,2.245,0,0,0,1.569.563A2.742,2.742,0,0,0,84.8-2.936l1.248,1.4A3.813,3.813,0,0,1,84.5-.277,5.075,5.075,0,0,1,82.336.176Zm-.29-7.813a1.587,1.587,0,0,0-1.226.512,2.651,2.651,0,0,0-.6,1.466h3.533v-.2a1.891,1.891,0,0,0-.457-1.311A1.638,1.638,0,0,0,82.046-7.638Zm9.729,2.813a5.731,5.731,0,0,1,1-3.542A3.237,3.237,0,0,1,95.5-9.686,2.913,2.913,0,0,1,97.8-8.648V-13.5h2.549V0H98.051l-.123-1.011A2.989,2.989,0,0,1,95.484.176a3.228,3.228,0,0,1-2.694-1.323A5.916,5.916,0,0,1,91.775-4.825Zm2.54.189a3.754,3.754,0,0,0,.466,2.051,1.517,1.517,0,0,0,1.354.713A1.7,1.7,0,0,0,97.8-2.867V-6.625a1.675,1.675,0,0,0-1.644-.995Q94.315-7.62,94.315-4.636ZM107.824,0a2.821,2.821,0,0,1-.255-.853,3.073,3.073,0,0,1-2.4,1.028,3.376,3.376,0,0,1-2.316-.809,2.6,2.6,0,0,1-.918-2.039,2.687,2.687,0,0,1,1.121-2.32,5.529,5.529,0,0,1,3.239-.817h1.169v-.545a1.567,1.567,0,0,0-.338-1.055,1.331,1.331,0,0,0-1.068-.4,1.513,1.513,0,0,0-1.006.308,1.045,1.045,0,0,0-.365.844h-2.54a2.551,2.551,0,0,1,.51-1.529,3.37,3.37,0,0,1,1.441-1.1,5.253,5.253,0,0,1,2.092-.4,4.15,4.15,0,0,1,2.791.883,3.09,3.09,0,0,1,1.033,2.483V-2.2a4.546,4.546,0,0,0,.378,2.048V0Zm-2.1-1.767a2.188,2.188,0,0,0,1.037-.25,1.645,1.645,0,0,0,.7-.672V-4.324h-.949q-1.907,0-2.03,1.318l-.009.149a1.017,1.017,0,0,0,.334.782A1.3,1.3,0,0,0,105.724-1.767ZM115-11.848V-9.51h1.626v1.863H115V-2.9a1.133,1.133,0,0,0,.2.756,1.015,1.015,0,0,0,.773.229,4.051,4.051,0,0,0,.747-.062V-.053a5.229,5.229,0,0,1-1.538.229,2.425,2.425,0,0,1-2.725-2.7V-7.646h-1.389V-9.51h1.389v-2.338Zm2.382,7a5.64,5.64,0,0,1,.545-2.522A3.989,3.989,0,0,1,119.5-9.079a4.577,4.577,0,0,1,2.377-.606,4.33,4.33,0,0,1,3.142,1.178,4.727,4.727,0,0,1,1.358,3.2l.018.65a4.97,4.97,0,0,1-1.222,3.511A4.247,4.247,0,0,1,121.9.176a4.268,4.268,0,0,1-3.283-1.318,5.058,5.058,0,0,1-1.226-3.586Zm2.54.18a3.555,3.555,0,0,0,.51,2.073,1.682,1.682,0,0,0,1.459.717,1.686,1.686,0,0,0,1.441-.709,3.89,3.89,0,0,0,.519-2.267,3.519,3.519,0,0,0-.519-2.06,1.686,1.686,0,0,0-1.459-.731,1.658,1.658,0,0,0-1.441.726A3.955,3.955,0,0,0,119.927-4.662ZM133.11-2.628a.818.818,0,0,0-.461-.734,5.241,5.241,0,0,0-1.481-.479q-3.393-.712-3.393-2.883a2.613,2.613,0,0,1,1.05-2.114,4.237,4.237,0,0,1,2.747-.848,4.56,4.56,0,0,1,2.9.853,2.687,2.687,0,0,1,1.085,2.215h-2.54a1.229,1.229,0,0,0-.352-.9,1.488,1.488,0,0,0-1.1-.356,1.52,1.52,0,0,0-.993.29.916.916,0,0,0-.352.738.783.783,0,0,0,.4.681,4.114,4.114,0,0,0,1.349.448,11.019,11.019,0,0,1,1.6.426,2.628,2.628,0,0,1,2.013,2.558,2.481,2.481,0,0,1-1.116,2.1,4.815,4.815,0,0,1-2.883.8,5.029,5.029,0,0,1-2.123-.426A3.561,3.561,0,0,1,128-1.419a2.716,2.716,0,0,1-.527-1.6h2.408a1.326,1.326,0,0,0,.5,1.037,1.987,1.987,0,0,0,1.248.36,1.839,1.839,0,0,0,1.1-.277A.861.861,0,0,0,133.11-2.628Z" transform="translate(-8609.5 -10096.053)" fill="#12263f"/>
    <g id="Grupo_1074657" data-name="Grupo 1074657" transform="translate(-8611 -9993.694)">
      <path id="Trazado_611328" data-name="Trazado 611328" d="M56.858,2H9.837A7.86,7.86,0,0,0,2,9.837V56.858a7.847,7.847,0,0,0,7.837,7.837H56.858a7.835,7.835,0,0,0,7.837-7.837V9.837A7.847,7.847,0,0,0,56.858,2ZM54.9,51.47H39.6a6.361,6.361,0,0,1-12.108,0H11.8a1.959,1.959,0,1,1,0-3.918H27.489a6.361,6.361,0,0,1,12.108,0H54.9a1.959,1.959,0,1,1,0,3.918Zm0-16.163h-28a6.361,6.361,0,0,1-12.108,0h-3a1.959,1.959,0,1,1,0-3.918h3a6.361,6.361,0,0,1,12.108,0h28a1.959,1.959,0,1,1,0,3.918Zm0-16.163H44.985a6.361,6.361,0,0,1-12.108,0H11.8a1.959,1.959,0,0,1,0-3.918H32.877a6.361,6.361,0,0,1,12.108,0H54.9a1.959,1.959,0,1,1,0,3.918Z" fill="#255f68"/>
    </g>
    <path id="Trazado_612017" data-name="Trazado 612017" d="M3.779-4.509V0H1.143V-12.8H6.135a5.776,5.776,0,0,1,2.536.527,3.886,3.886,0,0,1,1.683,1.5,4.178,4.178,0,0,1,.589,2.21A3.674,3.674,0,0,1,9.655-5.594,5.363,5.363,0,0,1,6.091-4.509Zm0-2.136H6.135a2.316,2.316,0,0,0,1.6-.492,1.79,1.79,0,0,0,.549-1.406,2.111,2.111,0,0,0-.554-1.521,2.068,2.068,0,0,0-1.529-.6H3.779ZM16.849.176a4.668,4.668,0,0,1-3.406-1.283,4.561,4.561,0,0,1-1.314-3.419v-.246a5.745,5.745,0,0,1,.554-2.562,4.064,4.064,0,0,1,1.569-1.74,4.4,4.4,0,0,1,2.316-.611,3.947,3.947,0,0,1,3.072,1.23A5,5,0,0,1,20.76-4.966v1.037H14.7a2.36,2.36,0,0,0,.743,1.494,2.245,2.245,0,0,0,1.569.563A2.742,2.742,0,0,0,19.31-2.936l1.248,1.4A3.813,3.813,0,0,1,19.011-.277,5.075,5.075,0,0,1,16.849.176Zm-.29-7.813a1.587,1.587,0,0,0-1.226.512,2.651,2.651,0,0,0-.6,1.466h3.533v-.2a1.891,1.891,0,0,0-.457-1.311A1.638,1.638,0,0,0,16.559-7.638Zm10.986.51a6.9,6.9,0,0,0-.914-.07,1.86,1.86,0,0,0-1.89.976V0H22.2V-9.51h2.4l.07,1.134a2.354,2.354,0,0,1,2.118-1.31,2.662,2.662,0,0,1,.791.114Zm6.372,4.5a.818.818,0,0,0-.461-.734,5.241,5.241,0,0,0-1.481-.479q-3.393-.712-3.393-2.883a2.613,2.613,0,0,1,1.05-2.114,4.237,4.237,0,0,1,2.747-.848,4.56,4.56,0,0,1,2.9.853A2.687,2.687,0,0,1,36.36-6.618H33.82a1.229,1.229,0,0,0-.352-.9,1.488,1.488,0,0,0-1.1-.356,1.52,1.52,0,0,0-.993.29.916.916,0,0,0-.352.738.783.783,0,0,0,.4.681,4.114,4.114,0,0,0,1.349.448,11.019,11.019,0,0,1,1.6.426,2.628,2.628,0,0,1,2.013,2.558,2.481,2.481,0,0,1-1.116,2.1,4.815,4.815,0,0,1-2.883.8A5.029,5.029,0,0,1,30.265-.25a3.561,3.561,0,0,1-1.455-1.169,2.716,2.716,0,0,1-.527-1.6h2.408a1.326,1.326,0,0,0,.5,1.037,1.987,1.987,0,0,0,1.248.36,1.839,1.839,0,0,0,1.1-.277A.861.861,0,0,0,33.917-2.628Zm3.709-2.215a5.64,5.64,0,0,1,.545-2.522A3.989,3.989,0,0,1,39.74-9.079a4.577,4.577,0,0,1,2.377-.606,4.33,4.33,0,0,1,3.142,1.178,4.727,4.727,0,0,1,1.358,3.2l.018.65a4.97,4.97,0,0,1-1.222,3.511A4.247,4.247,0,0,1,42.135.176a4.268,4.268,0,0,1-3.283-1.318,5.058,5.058,0,0,1-1.226-3.586Zm2.54.18a3.555,3.555,0,0,0,.51,2.073,1.682,1.682,0,0,0,1.459.717,1.686,1.686,0,0,0,1.441-.709,3.89,3.89,0,0,0,.519-2.267,3.519,3.519,0,0,0-.519-2.06,1.686,1.686,0,0,0-1.459-.731,1.658,1.658,0,0,0-1.441.726A3.955,3.955,0,0,0,40.166-4.662ZM50.537-9.51l.079,1.1A3.32,3.32,0,0,1,53.35-9.686,2.759,2.759,0,0,1,55.6-8.8a4.142,4.142,0,0,1,.756,2.654V0h-2.54V-6.082a1.648,1.648,0,0,0-.352-1.173,1.574,1.574,0,0,0-1.169-.365,1.747,1.747,0,0,0-1.608.914V0h-2.54V-9.51ZM63.791,0a2.821,2.821,0,0,1-.255-.853,3.073,3.073,0,0,1-2.4,1.028,3.376,3.376,0,0,1-2.316-.809A2.6,2.6,0,0,1,57.9-2.672a2.687,2.687,0,0,1,1.121-2.32,5.529,5.529,0,0,1,3.239-.817h1.169v-.545a1.567,1.567,0,0,0-.338-1.055,1.331,1.331,0,0,0-1.068-.4,1.513,1.513,0,0,0-1.006.308,1.045,1.045,0,0,0-.365.844h-2.54a2.551,2.551,0,0,1,.51-1.529,3.37,3.37,0,0,1,1.441-1.1,5.253,5.253,0,0,1,2.092-.4,4.15,4.15,0,0,1,2.791.883,3.09,3.09,0,0,1,1.033,2.483V-2.2a4.546,4.546,0,0,0,.378,2.048V0Zm-2.1-1.767a2.188,2.188,0,0,0,1.037-.25,1.645,1.645,0,0,0,.7-.672V-4.324h-.949q-1.907,0-2.03,1.318l-.009.149a1.017,1.017,0,0,0,.334.782A1.3,1.3,0,0,0,61.69-1.767ZM70.611,0H68.063V-13.5h2.549Zm4.772,0H72.835V-9.51h2.549Zm-2.7-11.971a1.251,1.251,0,0,1,.382-.94,1.436,1.436,0,0,1,1.042-.369,1.44,1.44,0,0,1,1.037.369,1.244,1.244,0,0,1,.387.94,1.247,1.247,0,0,1-.391.949,1.443,1.443,0,0,1-1.033.369,1.443,1.443,0,0,1-1.033-.369A1.247,1.247,0,0,1,72.686-11.971Zm7.708,9.923h4.649V0H77.15V-1.547l4.474-5.915H77.282V-9.51H84.9v1.5ZM92.145,0a2.821,2.821,0,0,1-.255-.853A3.073,3.073,0,0,1,89.49.176a3.376,3.376,0,0,1-2.316-.809,2.6,2.6,0,0,1-.918-2.039,2.687,2.687,0,0,1,1.121-2.32,5.529,5.529,0,0,1,3.239-.817h1.169v-.545a1.567,1.567,0,0,0-.338-1.055,1.331,1.331,0,0,0-1.068-.4,1.513,1.513,0,0,0-1.006.308,1.045,1.045,0,0,0-.365.844h-2.54a2.551,2.551,0,0,1,.51-1.529,3.37,3.37,0,0,1,1.441-1.1,5.253,5.253,0,0,1,2.092-.4A4.15,4.15,0,0,1,93.3-8.8a3.09,3.09,0,0,1,1.033,2.483V-2.2a4.546,4.546,0,0,0,.378,2.048V0Zm-2.1-1.767a2.188,2.188,0,0,0,1.037-.25,1.645,1.645,0,0,0,.7-.672V-4.324h-.949q-1.907,0-2.03,1.318l-.009.149a1.017,1.017,0,0,0,.334.782A1.3,1.3,0,0,0,90.044-1.767Zm10.2-.105a1.666,1.666,0,0,0,1.143-.387,1.355,1.355,0,0,0,.457-1.028h2.382a3.258,3.258,0,0,1-.527,1.771,3.48,3.48,0,0,1-1.419,1.248,4.442,4.442,0,0,1-1.991.444,4.129,4.129,0,0,1-3.217-1.3A5.13,5.13,0,0,1,95.889-4.7v-.167a5.071,5.071,0,0,1,1.169-3.507,4.08,4.08,0,0,1,3.208-1.31,4,4,0,0,1,2.861,1.015,3.594,3.594,0,0,1,1.094,2.7h-2.382a1.745,1.745,0,0,0-.457-1.206,1.524,1.524,0,0,0-1.16-.464,1.53,1.53,0,0,0-1.34.647,3.749,3.749,0,0,0-.453,2.1v.264a3.8,3.8,0,0,0,.448,2.113A1.549,1.549,0,0,0,100.239-1.872ZM108.352,0H105.8V-9.51h2.549Zm-2.7-11.971a1.251,1.251,0,0,1,.382-.94,1.436,1.436,0,0,1,1.042-.369,1.44,1.44,0,0,1,1.037.369,1.244,1.244,0,0,1,.387.94,1.247,1.247,0,0,1-.391.949,1.443,1.443,0,0,1-1.033.369,1.443,1.443,0,0,1-1.033-.369A1.247,1.247,0,0,1,105.653-11.971Zm4.395,7.128a5.64,5.64,0,0,1,.545-2.522,3.989,3.989,0,0,1,1.569-1.714,4.577,4.577,0,0,1,2.377-.606,4.33,4.33,0,0,1,3.142,1.178,4.727,4.727,0,0,1,1.358,3.2l.018.65a4.97,4.97,0,0,1-1.222,3.511A4.247,4.247,0,0,1,114.557.176a4.268,4.268,0,0,1-3.283-1.318,5.058,5.058,0,0,1-1.226-3.586Zm2.54.18a3.555,3.555,0,0,0,.51,2.073,1.682,1.682,0,0,0,1.459.717A1.686,1.686,0,0,0,116-2.581a3.89,3.89,0,0,0,.519-2.267A3.519,3.519,0,0,0,116-6.907a1.686,1.686,0,0,0-1.459-.731,1.658,1.658,0,0,0-1.441.726A3.955,3.955,0,0,0,112.588-4.662ZM115.04-13.5h2.769l-2.435,2.725h-2.065Zm7.919,3.99.079,1.1a3.32,3.32,0,0,1,2.733-1.274,2.759,2.759,0,0,1,2.25.888,4.142,4.142,0,0,1,.756,2.654V0h-2.54V-6.082a1.648,1.648,0,0,0-.352-1.173,1.574,1.574,0,0,0-1.169-.365,1.747,1.747,0,0,0-1.608.914V0h-2.54V-9.51Z" transform="translate(-8505.5 -9953.848)" fill="#12263f"/>
    <g id="Grupo_1074879" data-name="Grupo 1074879" transform="translate(-8618.945 -10681)">
      <g id="Grupo_1073343" data-name="Grupo 1073343" transform="translate(0 4.603)" style="mix-blend-mode: multiply;isolation: isolate">
        <g id="Grupo_1073314" data-name="Grupo 1073314">
          <g id="Grupo_1073313" data-name="Grupo 1073313" clip-path="url(#clip-path)">
            <path id="Trazado_610652" data-name="Trazado 610652" d="M2278.511,211.026h-34.576a12.043,12.043,0,0,0-12.008,12.078v8.162a12.044,12.044,0,0,0,12.008,12.079h13.9l12.366,10.931,1.552-10.931h6.758a12.044,12.044,0,0,0,12.008-12.079V223.1a12.044,12.044,0,0,0-12.008-12.078" transform="translate(-2231.927 -211.027)" fill="#dedede"/>
          </g>
        </g>
      </g>
      <path id="Trazado_610700" data-name="Trazado 610700" d="M2298.963,207.6h-34.575a12.043,12.043,0,0,0-12.008,12.078v8.162a12.043,12.043,0,0,0,12.008,12.078h13.9l12.366,10.931,1.553-10.931h6.757a12.044,12.044,0,0,0,12.008-12.078v-8.162a12.043,12.043,0,0,0-12.008-12.078" transform="translate(-2246.526 -207.597)" fill="#42328e"/>
      <path id="Trazado_610701" data-name="Trazado 610701" d="M2449.132,260.545a4.725,4.725,0,1,1-4.725-4.753,4.739,4.739,0,0,1,4.725,4.753" transform="translate(-2425.323 -245.336)" fill="#fff"/>
      <g id="Grupo_1073344" data-name="Grupo 1073344" transform="translate(12.469 16.635)" style="mix-blend-mode: multiply;isolation: isolate">
        <g id="Grupo_1073317" data-name="Grupo 1073317" transform="translate(0 0)">
          <g id="Grupo_1073316" data-name="Grupo 1073316" clip-path="url(#clip-path-2)">
            <path id="Trazado_610655" data-name="Trazado 610655" d="M2472.956,289.5a4.975,4.975,0,0,1-4.961-4.99.236.236,0,1,1,.472,0,4.5,4.5,0,0,0,4.489,4.515.238.238,0,0,1,0,.475" transform="translate(-2467.996 -284.271)" fill="#dedede"/>
          </g>
        </g>
      </g>
      <path id="Trazado_610702" data-name="Trazado 610702" d="M2375.083,260.545a4.725,4.725,0,1,1-4.725-4.753,4.739,4.739,0,0,1,4.725,4.753" transform="translate(-2335.208 -245.336)" fill="#fff"/>
      <g id="Grupo_1073345" data-name="Grupo 1073345" transform="translate(28.534 16.635)" style="mix-blend-mode: multiply;isolation: isolate">
        <g id="Grupo_1073320" data-name="Grupo 1073320" transform="translate(0 0)">
          <g id="Grupo_1073319" data-name="Grupo 1073319" clip-path="url(#clip-path-3)">
            <path id="Trazado_610657" data-name="Trazado 610657" d="M2398.908,289.5a4.976,4.976,0,0,1-4.962-4.99.236.236,0,1,1,.472,0,4.5,4.5,0,0,0,4.489,4.515.238.238,0,0,1,0,.475" transform="translate(-2393.947 -284.271)" fill="#dedede"/>
          </g>
        </g>
      </g>
      <path id="Trazado_610703" data-name="Trazado 610703" d="M2296.678,260.545a4.725,4.725,0,1,1-4.725-4.753,4.739,4.739,0,0,1,4.725,4.753" transform="translate(-2239.793 -245.336)" fill="#fff"/>
      <g id="Grupo_1073346" data-name="Grupo 1073346" transform="translate(45.543 16.635)" style="mix-blend-mode: multiply;isolation: isolate">
        <g id="Grupo_1073323" data-name="Grupo 1073323" transform="translate(0 0)">
          <g id="Grupo_1073322" data-name="Grupo 1073322" clip-path="url(#clip-path-2)">
            <path id="Trazado_610659" data-name="Trazado 610659" d="M2320.5,289.5a4.974,4.974,0,0,1-4.961-4.99.236.236,0,1,1,.472,0,4.5,4.5,0,0,0,4.489,4.515.238.238,0,0,1,0,.475" transform="translate(-2315.539 -284.271)" fill="#dedede"/>
          </g>
        </g>
      </g>
    </g>
  </g>
</svg>
