<svg xmlns="http://www.w3.org/2000/svg" xmlns:xlink="http://www.w3.org/1999/xlink" width="1240" height="472.26" viewBox="0 0 1240 472.26">
  <defs>
    <clipPath id="clip-path">
      <rect id="Rectángulo_378962" data-name="Rectángulo 378962" width="1238.3" height="361.771" fill="none"/>
    </clipPath>
    <clipPath id="clip-path-2">
      <rect id="Rectángulo_378961" data-name="Rectángulo 378961" width="1238.299" height="361.773" fill="none"/>
    </clipPath>
    <clipPath id="clip-path-3">
      <rect id="Rectángulo_378955" data-name="Rectángulo 378955" width="290.7" height="167.834" fill="none"/>
    </clipPath>
    <clipPath id="clip-path-4">
      <rect id="Rectángulo_378956" data-name="Rectángulo 378956" width="231.514" height="133.662" fill="none"/>
    </clipPath>
  </defs>
  <g id="Grupo_1075367" data-name="Grupo 1075367" transform="translate(-180 -1137.816)">
    <path id="Trazado_611544" data-name="Trazado 611544" d="M0,0H1240V458.076H0Z" transform="translate(180 1152)" fill="#dbf8fd"/>
    <g id="Grupo_1074931" data-name="Grupo 1074931" transform="translate(180 1235.001)">
      <g id="Grupo_1074951" data-name="Grupo 1074951" clip-path="url(#clip-path)">
        <rect id="Rectángulo_378954" data-name="Rectángulo 378954" width="1238.299" height="50.368" transform="translate(0 173.025)" fill="#f8e5b1"/>
        <path id="Trazado_611544-2" data-name="Trazado 611544" d="M1530.989,709.708l145.353,83.914,145.347-83.914-145.347-83.921Z" transform="translate(-1056.523 -431.851)" fill="#55b9c4"/>
        <path id="Trazado_611545" data-name="Trazado 611545" d="M1676.343,0l-145.353,83.92V251.752l145.353,83.921,145.347-83.921V83.917Z" transform="translate(-1056.523 0.002)" fill="#7de6f6"/>
        <g id="Grupo_1074950" data-name="Grupo 1074950" transform="translate(0 -0.001)">
          <g id="Grupo_1074949" data-name="Grupo 1074949" clip-path="url(#clip-path-2)">
            <g id="Grupo_1074933" data-name="Grupo 1074933" transform="translate(474.466 0.001)" opacity="0.1">
              <g id="Grupo_1074932" data-name="Grupo 1074932">
                <g id="Grupo_1074931-2" data-name="Grupo 1074931" clip-path="url(#clip-path-3)">
                  <path id="Trazado_611546" data-name="Trazado 611546" d="M1821.69,83.917l-145.347,83.914L1530.989,83.917,1676.343,0Z" transform="translate(-1530.99 0.003)"/>
                </g>
              </g>
            </g>
            <g id="Grupo_1074936" data-name="Grupo 1074936" transform="translate(504.059 17.086)" opacity="0.4">
              <g id="Grupo_1074935" data-name="Grupo 1074935">
                <g id="Grupo_1074934" data-name="Grupo 1074934" clip-path="url(#clip-path-4)">
                  <path id="Trazado_611547" data-name="Trazado 611547" d="M1742.239,188.791,1626.48,121.962l115.759-66.834,115.754,66.834Zm-106.72-66.829,106.72,61.611,106.715-61.611L1742.239,60.347Z" transform="translate(-1626.48 -55.129)" fill="#fff"/>
                </g>
              </g>
            </g>
            <path id="Trazado_611548" data-name="Trazado 611548" d="M1951.945,348.866a3.309,3.309,0,0,0,.164,1.441,4.049,4.049,0,0,0,2.552,2.477,2.735,2.735,0,0,0,2.471-.239l2.244-2.408a2.822,2.822,0,0,0,.432-2.881,4.829,4.829,0,0,0-3.809-2.74Z" transform="translate(-1347.009 -237.746)" fill="#fff"/>
            <path id="Trazado_611549" data-name="Trazado 611549" d="M1931.772,318.206l-3.923,4.207a3.441,3.441,0,0,0-.58,3.476,4.613,4.613,0,0,0,2.948,2.856,3.262,3.262,0,0,0,3.36-.768l3.632-3.9a3.413,3.413,0,0,0,.581-3.468,4.608,4.608,0,0,0-2.948-2.856A2.933,2.933,0,0,0,1931.772,318.206Z" transform="translate(-1329.838 -219.128)" fill="#fff"/>
            <path id="Trazado_611550" data-name="Trazado 611550" d="M1907.354,295.288l-3.622,3.888a3.448,3.448,0,0,0-.58,3.479,4.618,4.618,0,0,0,2.948,2.852,3.341,3.341,0,0,0,2.972-.342l4.021-4.315a3.426,3.426,0,0,0,.58-3.474,4.6,4.6,0,0,0-2.95-2.852,3.32,3.32,0,0,0-3.369.764" transform="translate(-1313.196 -203.132)" fill="#fff"/>
            <path id="Trazado_611551" data-name="Trazado 611551" d="M1883.613,271.3l-4.014,4.317a3.4,3.4,0,0,0-.58,3.461,4.593,4.593,0,0,0,2.95,2.863,3.328,3.328,0,0,0,2.966-.348l4.025-4.315v0a3.388,3.388,0,0,0,.58-3.457,4.568,4.568,0,0,0-2.948-2.859,2.83,2.83,0,0,0-2.979.341" transform="translate(-1296.54 -186.812)" fill="#fff"/>
            <path id="Trazado_611552" data-name="Trazado 611552" d="M1988.749,189.55c-2.6,1.452-6.205,1.712-9.72,1.965a28.841,28.841,0,0,0-7.373,1.1L1960.7,196.66a.989.989,0,0,1-.228.058c-.53.083-1.019.154-1.458.215-2.669.376-2.977.491-3.284,1.281a2.874,2.874,0,0,0,.786,2.677c.619.734,3.04,3.028,8.021,1.849l6.241-.824c3.495-.45,6.3,1.828,8.534,3.667l16.784,13.427.013-.007a23.761,23.761,0,0,0,9.713-6.734Z" transform="translate(-1349.561 -130.806)" fill="#fff"/>
            <path id="Trazado_611553" data-name="Trazado 611553" d="M1915.281,186.759c-.995.092-2.135.218-3.331.342-6.615.706-10.283.984-12.148.638l-17.173,22.353a9.711,9.711,0,0,1,1.577,1.891,5.624,5.624,0,0,1,5.716-1.356,7.044,7.044,0,0,1,4.527,4.39,6.318,6.318,0,0,1,.325,2.654,6.075,6.075,0,0,1,2.624.2,7.028,7.028,0,0,1,4.522,4.39,6.3,6.3,0,0,1,.336,2.648,6,6,0,0,1,2.624.205,7.06,7.06,0,0,1,4.516,4.379,6.272,6.272,0,0,1,.1,3.882,5.824,5.824,0,0,1,.643.16,6.526,6.526,0,0,1,4.1,3.97,5.353,5.353,0,0,1-.694,5.09l3.047,2.436a2.67,2.67,0,0,0,2.847.164,4.094,4.094,0,0,0,2.175-2.829,3.232,3.232,0,0,0-.047-1.452l-3.865-3.092a1.246,1.246,0,0,1-.205-1.718,1.188,1.188,0,0,1,1.685-.211l4.646,3.724a3.336,3.336,0,0,0,3-.1,4.642,4.642,0,0,0,2.5-3.264,3.411,3.411,0,0,0-1.066-3.342l-4.2-3.363a1.233,1.233,0,0,1-.205-1.714,1.171,1.171,0,0,1,1.68-.211l6.109,4.886a3.283,3.283,0,0,0,3.457.262,4.66,4.66,0,0,0,2.5-3.273,3.406,3.406,0,0,0-1.076-3.344l-6.111-4.879a1.248,1.248,0,0,1-.205-1.727,1.191,1.191,0,0,1,1.687-.2s9.279,7.42,9.285,7.42a3.32,3.32,0,0,0,2.984-.112,4.619,4.619,0,0,0,2.51-3.26,3.408,3.408,0,0,0-1.075-3.342l-18.161-14.534c-2.083-1.709-4.236-3.478-6.736-3.143l-6.115.8c-4.123.99-8.011.011-10.26-2.648a5.266,5.266,0,0,1-1.208-5.175c.854-2.209,2.489-2.438,5.188-2.818.4-.051.837-.115,1.315-.19l10.847-4a15.11,15.11,0,0,1,2.293-.6A15.723,15.723,0,0,0,1915.281,186.759Z" transform="translate(-1299.187 -128.83)" fill="#fff"/>
            <path id="Trazado_611554" data-name="Trazado 611554" d="M1875.98,173.227c-1.976-.15-3.78,1.339-6.375,4.721l-6.64,8.649c-2.4,3.12-3.3,5.06-3.1,6.7a5.617,5.617,0,0,0,2.032,3.425l3.15,2.515,17.1-22.261-2.214-1.772a7.677,7.677,0,0,0-3.953-1.982" transform="translate(-1283.457 -119.534)" fill="#fff"/>
            <path id="Trazado_611555" data-name="Trazado 611555" d="M2075.062,173.16a7.634,7.634,0,0,0-3.976,1.933l-2.238,1.736,16.866,22.442,2.18-1.7c1.885-1.463,2.847-2.771,3.023-4.121.218-1.64-.654-3.6-3.017-6.756l-6.532-8.732c-2.545-3.416-4.326-4.932-6.307-4.806" transform="translate(-1427.695 -119.49)" fill="#fff"/>
            <path id="Trazado_611556" data-name="Trazado 611556" d="M2892.28,709.708l-145.347,83.914L2601.58,709.708l145.354-83.921Z" transform="translate(-1795.329 -431.849)" fill="#433c74"/>
            <path id="Trazado_611557" data-name="Trazado 611557" d="M2892.28,83.917V251.751l-145.347,83.921L2601.58,251.751V83.917L2746.934,0Z" transform="translate(-1795.329 0.004)" fill="#b1ace0"/>
            <g id="Grupo_1074939" data-name="Grupo 1074939" transform="translate(806.251 0.001)" opacity="0.1">
              <g id="Grupo_1074938" data-name="Grupo 1074938">
                <g id="Grupo_1074937" data-name="Grupo 1074937" clip-path="url(#clip-path-3)">
                  <path id="Trazado_611558" data-name="Trazado 611558" d="M2892.28,83.917l-145.347,83.914L2601.58,83.917,2746.934,0Z" transform="translate(-2601.58 0.003)"/>
                </g>
              </g>
            </g>
            <g id="Grupo_1074942" data-name="Grupo 1074942" transform="translate(835.844 17.086)" opacity="0.4">
              <g id="Grupo_1074941" data-name="Grupo 1074941">
                <g id="Grupo_1074940" data-name="Grupo 1074940" clip-path="url(#clip-path-4)">
                  <path id="Trazado_611559" data-name="Trazado 611559" d="M2812.83,188.791l-115.759-66.829L2812.83,55.128l115.755,66.834Zm-106.72-66.829,106.72,61.611,106.716-61.611L2812.83,60.347Z" transform="translate(-2697.07 -55.129)" fill="#fff"/>
                </g>
              </g>
            </g>
            <path id="Trazado_611560" data-name="Trazado 611560" d="M3027.675,226.735a1.9,1.9,0,0,0-1.9,1.9v3.8a1.9,1.9,0,1,0,3.8,0v-3.8a1.9,1.9,0,0,0-1.9-1.9" transform="translate(-2088.062 -156.467)" fill="#fff"/>
            <path id="Trazado_611561" data-name="Trazado 611561" d="M3052.21,214.468a1.9,1.9,0,0,0-1.9,1.9v7.6a1.9,1.9,0,1,0,3.8,0v-7.6a1.9,1.9,0,0,0-1.9-1.9" transform="translate(-2104.994 -148.001)" fill="#fff"/>
            <path id="Trazado_611562" data-name="Trazado 611562" d="M3076.746,202.2a1.9,1.9,0,0,0-1.9,1.9v11.405a1.9,1.9,0,0,0,3.8,0V204.1a1.9,1.9,0,0,0-1.9-1.9" transform="translate(-2121.925 -139.535)" fill="#fff"/>
            <path id="Trazado_611563" data-name="Trazado 611563" d="M3101.281,214.468a1.9,1.9,0,0,0-1.9,1.9v7.6a1.9,1.9,0,0,0,3.8,0v-7.6a1.9,1.9,0,0,0-1.9-1.9" transform="translate(-2138.856 -148.001)" fill="#fff"/>
            <path id="Trazado_611564" data-name="Trazado 611564" d="M3125.816,206.289a1.9,1.9,0,0,0-1.9,1.9v10.138a1.9,1.9,0,1,0,3.8,0V208.19a1.9,1.9,0,0,0-1.9-1.9" transform="translate(-2155.788 -142.357)" fill="#fff"/>
            <path id="Trazado_611565" data-name="Trazado 611565" d="M3150.351,198.111a1.9,1.9,0,0,0-1.9,1.9v12.672a1.9,1.9,0,1,0,3.8,0V200.012a1.9,1.9,0,0,0-1.9-1.9" transform="translate(-2172.72 -136.713)" fill="#fff"/>
            <path id="Trazado_611566" data-name="Trazado 611566" d="M3057.27,150.391l-7.488-1.32a1.9,1.9,0,0,0-.66,3.744l2.934.517-11.368,7.87-5.214-5.215a1.9,1.9,0,0,0-2.267-.318l-22.811,12.673a1.9,1.9,0,0,0,1.847,3.323L3033.8,159.69l5.322,5.322a1.9,1.9,0,0,0,2.427.218l12.729-8.812-.53,3a1.9,1.9,0,0,0,3.745.66l1.32-7.488A1.9,1.9,0,0,0,3057.27,150.391Z" transform="translate(-2076.774 -102.851)" fill="#fff"/>
            <path id="Trazado_611567" data-name="Trazado 611567" d="M2978.126,266.48,2961.3,276.2a1.9,1.9,0,0,0-.95,1.646V291.6a1.9,1.9,0,0,0,1.9,1.9h10.138a1.9,1.9,0,0,0,1.3-.512l5.785-5.41,18.516.061a14.588,14.588,0,0,0,7.352-1.952l17.263-9.967a4.752,4.752,0,1,0-4.752-8.231l-6.819,3.937A8.552,8.552,0,0,1,3001,280.263l-12.785-2.254a1.9,1.9,0,1,1,.66-3.744l12.785,2.254a4.752,4.752,0,1,0,1.65-9.36L2988.8,264.6a15.867,15.867,0,0,0-10.671,1.882" transform="translate(-2042.912 -182.43)" fill="#fff"/>
            <path id="Trazado_611568" data-name="Trazado 611568" d="M751.1,709.708,605.752,793.622,460.4,709.708l145.353-83.921Z" transform="translate(-317.717 -431.849)" fill="#433c74"/>
            <path id="Trazado_611569" data-name="Trazado 611569" d="M751.1,83.917V251.751L605.752,335.672,460.4,251.751V83.917L605.752,0Z" transform="translate(-317.717 0.004)" fill="#b1ace0"/>
            <g id="Grupo_1074945" data-name="Grupo 1074945" transform="translate(142.681 0.001)" opacity="0.1">
              <g id="Grupo_1074944" data-name="Grupo 1074944">
                <g id="Grupo_1074943" data-name="Grupo 1074943" clip-path="url(#clip-path-3)">
                  <path id="Trazado_611570" data-name="Trazado 611570" d="M751.1,83.917,605.752,167.831,460.4,83.917,605.752,0Z" transform="translate(-460.399 0.003)"/>
                </g>
              </g>
            </g>
            <g id="Grupo_1074948" data-name="Grupo 1074948" transform="translate(172.275 17.086)" opacity="0.4">
              <g id="Grupo_1074947" data-name="Grupo 1074947">
                <g id="Grupo_1074946" data-name="Grupo 1074946" clip-path="url(#clip-path-4)">
                  <path id="Trazado_611571" data-name="Trazado 611571" d="M671.648,188.791,555.889,121.962,671.648,55.128,787.4,121.962Zm-106.72-66.829,106.72,61.611,106.715-61.611L671.648,60.347Z" transform="translate(-555.889 -55.129)" fill="#fff"/>
                </g>
              </g>
            </g>
            <path id="Trazado_611572" data-name="Trazado 611572" d="M917.355,138.8a8.419,8.419,0,0,0,0,16.838,8.42,8.42,0,0,0,0-16.838" transform="translate(-627.249 -95.784)" fill="#fff"/>
            <path id="Trazado_611573" data-name="Trazado 611573" d="M917.326,193.134a12.346,12.346,0,0,1-9.191,4.14,12.647,12.647,0,0,1-9.329-4.14,12.326,12.326,0,0,0-3.23,8.281v2.07a2.069,2.069,0,0,0,2.07,2.07h20.84a2.069,2.069,0,0,0,2.071-2.07v-2.07a12.326,12.326,0,0,0-3.231-8.281" transform="translate(-618.03 -133.279)" fill="#fff"/>
            <path id="Trazado_611574" data-name="Trazado 611574" d="M835.412,291.634l-10.55-21.152a4.141,4.141,0,0,0-5.543-1.862l-2.757,1.366a2.072,2.072,0,0,0-.932,2.782l12.421,24.843a2.072,2.072,0,0,0,2.772.93l2.722-1.348a4.141,4.141,0,0,0,1.868-5.558" transform="translate(-562.708 -185.074)" fill="#fff"/>
            <path id="Trazado_611575" data-name="Trazado 611575" d="M911.728,245.665a4.127,4.127,0,0,0-5.465.538l-11.318,13.912a5,5,0,0,1-3.064,1.325h-9.647a2.07,2.07,0,0,1,0-4.14h8.281a4.141,4.141,0,0,0,0-8.281H879.666c-1.032,0-1.546-.654-2.36-1.366a14.4,14.4,0,0,0-12.852-3.146,15.1,15.1,0,0,0-6.356,3.173l-.061-.05-2.995,2.635,11.768,23.6h23.7a12.472,12.472,0,0,0,9.937-4.968L912.6,251.5a4.173,4.173,0,0,0-.87-5.838" transform="translate(-590.057 -168.461)" fill="#fff"/>
          </g>
        </g>
      </g>
    </g>
    <path id="Trazado_612040" data-name="Trazado 612040" d="M64.2,11.771H59.141V17H56.5V4.2h8.332V6.339h-5.7v3.3H64.2ZM68.879,17H66.33V7.49h2.549Zm-2.7-11.971a1.251,1.251,0,0,1,.382-.94,1.648,1.648,0,0,1,2.079,0,1.244,1.244,0,0,1,.387.94,1.247,1.247,0,0,1-.391.949,1.629,1.629,0,0,1-2.065,0A1.247,1.247,0,0,1,66.181,5.029Zm4.395,7.146a5.731,5.731,0,0,1,1-3.542A3.237,3.237,0,0,1,74.3,7.314,2.913,2.913,0,0,1,76.6,8.352V3.5h2.549V17H76.851l-.123-1.011a2.989,2.989,0,0,1-2.443,1.187,3.228,3.228,0,0,1-2.694-1.323A5.916,5.916,0,0,1,70.575,12.175Zm2.54.189a3.754,3.754,0,0,0,.466,2.051,1.517,1.517,0,0,0,1.354.713,1.7,1.7,0,0,0,1.661-.995V10.375a1.675,1.675,0,0,0-1.644-.995Q73.115,9.38,73.115,12.364ZM85.49,17.176a4.668,4.668,0,0,1-3.406-1.283,4.561,4.561,0,0,1-1.314-3.419v-.246a5.745,5.745,0,0,1,.554-2.562,4.064,4.064,0,0,1,1.569-1.74,4.4,4.4,0,0,1,2.316-.611,3.947,3.947,0,0,1,3.072,1.23A5,5,0,0,1,89.4,12.034v1.037H83.346a2.36,2.36,0,0,0,.743,1.494,2.245,2.245,0,0,0,1.569.563,2.742,2.742,0,0,0,2.294-1.063l1.248,1.4a3.813,3.813,0,0,1-1.547,1.261A5.075,5.075,0,0,1,85.49,17.176ZM85.2,9.362a1.587,1.587,0,0,0-1.226.512,2.651,2.651,0,0,0-.6,1.466h3.533v-.2a1.891,1.891,0,0,0-.457-1.311A1.638,1.638,0,0,0,85.2,9.362ZM93.523,17H90.975V3.5h2.549ZM98.3,17H95.747V7.49H98.3ZM95.6,5.029a1.251,1.251,0,0,1,.382-.94,1.648,1.648,0,0,1,2.079,0,1.244,1.244,0,0,1,.387.94,1.247,1.247,0,0,1-.391.949,1.629,1.629,0,0,1-2.065,0A1.247,1.247,0,0,1,95.6,5.029Zm7.708,9.923h4.649V17h-7.893V15.453l4.474-5.915h-4.342V7.49h7.62v1.5ZM115.057,17a2.821,2.821,0,0,1-.255-.853,3.073,3.073,0,0,1-2.4,1.028,3.376,3.376,0,0,1-2.316-.809,2.6,2.6,0,0,1-.918-2.039,2.687,2.687,0,0,1,1.121-2.32,5.529,5.529,0,0,1,3.239-.817H114.7v-.545a1.567,1.567,0,0,0-.338-1.055,1.331,1.331,0,0,0-1.068-.4,1.513,1.513,0,0,0-1.006.308,1.045,1.045,0,0,0-.365.844h-2.54a2.551,2.551,0,0,1,.51-1.529,3.37,3.37,0,0,1,1.441-1.1,5.253,5.253,0,0,1,2.092-.4,4.15,4.15,0,0,1,2.791.883,3.09,3.09,0,0,1,1.033,2.483V14.8a4.546,4.546,0,0,0,.378,2.048V17Zm-2.1-1.767a2.188,2.188,0,0,0,1.037-.25,1.645,1.645,0,0,0,.7-.672V12.676h-.949q-1.907,0-2.03,1.318l-.009.149a1.017,1.017,0,0,0,.334.782A1.3,1.3,0,0,0,112.956,15.233Zm10.2-.105a1.666,1.666,0,0,0,1.143-.387,1.355,1.355,0,0,0,.457-1.028h2.382a3.258,3.258,0,0,1-.527,1.771,3.48,3.48,0,0,1-1.419,1.248,4.442,4.442,0,0,1-1.991.444,4.129,4.129,0,0,1-3.217-1.3A5.13,5.13,0,0,1,118.8,12.3v-.167a5.071,5.071,0,0,1,1.169-3.507,4.08,4.08,0,0,1,3.208-1.31,4,4,0,0,1,2.861,1.015,3.594,3.594,0,0,1,1.094,2.7h-2.382a1.745,1.745,0,0,0-.457-1.206,1.7,1.7,0,0,0-2.5.183,3.749,3.749,0,0,0-.453,2.1v.264a3.8,3.8,0,0,0,.448,2.113A1.549,1.549,0,0,0,123.151,15.128ZM131.264,17h-2.549V7.49h2.549Zm-2.7-11.971a1.251,1.251,0,0,1,.382-.94,1.648,1.648,0,0,1,2.079,0,1.244,1.244,0,0,1,.387.94,1.247,1.247,0,0,1-.391.949,1.629,1.629,0,0,1-2.065,0A1.247,1.247,0,0,1,128.565,5.029Zm4.395,7.128a5.64,5.64,0,0,1,.545-2.522,3.989,3.989,0,0,1,1.569-1.714,4.577,4.577,0,0,1,2.377-.606,4.33,4.33,0,0,1,3.142,1.178,4.727,4.727,0,0,1,1.358,3.2l.018.65a4.97,4.97,0,0,1-1.222,3.511,4.735,4.735,0,0,1-6.561,0,5.058,5.058,0,0,1-1.226-3.586Zm2.54.18a3.555,3.555,0,0,0,.51,2.073,1.831,1.831,0,0,0,2.9.009,3.89,3.89,0,0,0,.519-2.267,3.519,3.519,0,0,0-.519-2.06,1.686,1.686,0,0,0-1.459-.731,1.658,1.658,0,0,0-1.441.726A3.955,3.955,0,0,0,135.5,12.338ZM137.952,3.5h2.769l-2.435,2.725h-2.065Zm7.919,3.99.079,1.1a3.32,3.32,0,0,1,2.733-1.274,2.759,2.759,0,0,1,2.25.888,4.142,4.142,0,0,1,.756,2.654V17h-2.54V10.918a1.648,1.648,0,0,0-.352-1.173,1.574,1.574,0,0,0-1.169-.365,1.747,1.747,0,0,0-1.608.914V17h-2.54V7.49Z" transform="translate(372 1429)" fill="#433c74"/>
    <path id="Trazado_612041" data-name="Trazado 612041" d="M74.425,12.737A4.528,4.528,0,0,1,72.9,15.989a5.355,5.355,0,0,1-3.625,1.187A4.816,4.816,0,0,1,65.4,15.519a6.793,6.793,0,0,1-1.411-4.548v-.782a7.671,7.671,0,0,1,.65-3.252A4.874,4.874,0,0,1,66.5,4.779a5.809,5.809,0,0,1,6.376.435,4.866,4.866,0,0,1,1.564,3.331H71.806a2.673,2.673,0,0,0-.69-1.8,2.555,2.555,0,0,0-1.806-.558,2.24,2.24,0,0,0-1.973.945,5.3,5.3,0,0,0-.672,2.931v.967a5.667,5.667,0,0,0,.628,3.032,2.2,2.2,0,0,0,1.982.958,2.6,2.6,0,0,0,1.824-.558,2.521,2.521,0,0,0,.69-1.727Zm1.169-.58a5.64,5.64,0,0,1,.545-2.522,3.989,3.989,0,0,1,1.569-1.714,4.577,4.577,0,0,1,2.377-.606,4.33,4.33,0,0,1,3.142,1.178,4.727,4.727,0,0,1,1.358,3.2l.018.65a4.97,4.97,0,0,1-1.222,3.511,4.735,4.735,0,0,1-6.561,0,5.058,5.058,0,0,1-1.226-3.586Zm2.54.18a3.555,3.555,0,0,0,.51,2.073,1.831,1.831,0,0,0,2.9.009,3.89,3.89,0,0,0,.519-2.267,3.519,3.519,0,0,0-.519-2.06,1.686,1.686,0,0,0-1.459-.731,1.658,1.658,0,0,0-1.441.726A3.955,3.955,0,0,0,78.134,12.338ZM88.5,7.49l.079,1.1a3.32,3.32,0,0,1,2.733-1.274,2.759,2.759,0,0,1,2.25.888,4.142,4.142,0,0,1,.756,2.654V17h-2.54V10.918a1.648,1.648,0,0,0-.352-1.173,1.574,1.574,0,0,0-1.169-.365,1.747,1.747,0,0,0-1.608.914V17h-2.54V7.49ZM96.863,17V9.354H95.448V7.49h1.415V7.051a3.566,3.566,0,0,1,1.1-2.764,4.438,4.438,0,0,1,3.063-.971,10.16,10.16,0,0,1,2.883.519l-.369,2.1a11.248,11.248,0,0,0-1.336-.33,6.564,6.564,0,0,0-1.02-.075q-1.775,0-1.775,1.573V7.49h1.872V9.354H99.412V17Zm8.235,0H102.55V7.49H105.1Zm7.611,0a2.821,2.821,0,0,1-.255-.853,3.073,3.073,0,0,1-2.4,1.028,3.376,3.376,0,0,1-2.316-.809,2.6,2.6,0,0,1-.918-2.039,2.687,2.687,0,0,1,1.121-2.32,5.529,5.529,0,0,1,3.239-.817h1.169v-.545a1.567,1.567,0,0,0-.338-1.055,1.331,1.331,0,0,0-1.068-.4,1.513,1.513,0,0,0-1.006.308,1.045,1.045,0,0,0-.365.844h-2.54a2.551,2.551,0,0,1,.51-1.529,3.37,3.37,0,0,1,1.441-1.1,5.253,5.253,0,0,1,2.092-.4,4.15,4.15,0,0,1,2.791.883,3.09,3.09,0,0,1,1.033,2.483V14.8a4.546,4.546,0,0,0,.378,2.048V17Zm-2.1-1.767a2.188,2.188,0,0,0,1.037-.25,1.645,1.645,0,0,0,.7-.672V12.676H111.4q-1.907,0-2.03,1.318l-.009.149a1.017,1.017,0,0,0,.334.782A1.3,1.3,0,0,0,110.609,15.233Zm8.578-7.743.079,1.1A3.32,3.32,0,0,1,122,7.314a2.759,2.759,0,0,1,2.25.888,4.142,4.142,0,0,1,.756,2.654V17h-2.54V10.918a1.648,1.648,0,0,0-.352-1.173,1.574,1.574,0,0,0-1.169-.365,1.747,1.747,0,0,0-1.608.914V17H116.8V7.49Zm10.661,7.462H134.5V17h-7.893V15.453l4.474-5.915h-4.342V7.49h7.62v1.5ZM141.6,17a2.821,2.821,0,0,1-.255-.853,3.073,3.073,0,0,1-2.4,1.028,3.376,3.376,0,0,1-2.316-.809,2.6,2.6,0,0,1-.918-2.039,2.687,2.687,0,0,1,1.121-2.32,5.529,5.529,0,0,1,3.239-.817h1.169v-.545a1.567,1.567,0,0,0-.338-1.055,1.331,1.331,0,0,0-1.068-.4,1.513,1.513,0,0,0-1.006.308,1.045,1.045,0,0,0-.365.844h-2.54a2.551,2.551,0,0,1,.51-1.529,3.37,3.37,0,0,1,1.441-1.1,5.253,5.253,0,0,1,2.092-.4,4.15,4.15,0,0,1,2.791.883,3.09,3.09,0,0,1,1.033,2.483V14.8a4.546,4.546,0,0,0,.378,2.048V17Zm-2.1-1.767a2.188,2.188,0,0,0,1.037-.25,1.645,1.645,0,0,0,.7-.672V12.676h-.949q-1.907,0-2.03,1.318l-.009.149a1.017,1.017,0,0,0,.334.782A1.3,1.3,0,0,0,139.5,15.233Z" transform="translate(696 1429)" fill="#255f68"/>
    <path id="Trazado_612042" data-name="Trazado 612042" d="M54,13.643a1.353,1.353,0,0,0-.527-1.147,6.917,6.917,0,0,0-1.9-.844,13.458,13.458,0,0,1-2.171-.875A3.547,3.547,0,0,1,47.227,7.6a3.09,3.09,0,0,1,.584-1.85,3.812,3.812,0,0,1,1.679-1.27,6.318,6.318,0,0,1,2.457-.457,5.751,5.751,0,0,1,2.443.5,3.891,3.891,0,0,1,1.666,1.4,3.668,3.668,0,0,1,.593,2.057H54.012a1.726,1.726,0,0,0-.554-1.367A2.276,2.276,0,0,0,51.9,6.128a2.432,2.432,0,0,0-1.5.409,1.289,1.289,0,0,0-.536,1.077,1.235,1.235,0,0,0,.628,1.046,7.1,7.1,0,0,0,1.85.791,7.994,7.994,0,0,1,3.278,1.679,3.343,3.343,0,0,1,1.028,2.5,3.08,3.08,0,0,1-1.257,2.606,5.5,5.5,0,0,1-3.384.945,6.534,6.534,0,0,1-2.689-.541,4.256,4.256,0,0,1-1.85-1.481,3.793,3.793,0,0,1-.637-2.18h2.646q0,2.118,2.531,2.118a2.462,2.462,0,0,0,1.468-.382A1.244,1.244,0,0,0,54,13.643Zm3.867-1.485a5.64,5.64,0,0,1,.545-2.522,3.989,3.989,0,0,1,1.569-1.714,4.577,4.577,0,0,1,2.377-.606A4.33,4.33,0,0,1,65.5,8.492a4.727,4.727,0,0,1,1.358,3.2l.018.65a4.97,4.97,0,0,1-1.222,3.511,4.735,4.735,0,0,1-6.561,0,5.058,5.058,0,0,1-1.226-3.586Zm2.54.18a3.555,3.555,0,0,0,.51,2.073,1.831,1.831,0,0,0,2.9.009,3.89,3.89,0,0,0,.519-2.267,3.519,3.519,0,0,0-.519-2.06,1.686,1.686,0,0,0-1.459-.731,1.658,1.658,0,0,0-1.441.726A3.955,3.955,0,0,0,60.411,12.338Zm13.184,2.035a.818.818,0,0,0-.461-.734,5.241,5.241,0,0,0-1.481-.479q-3.393-.712-3.393-2.883a2.613,2.613,0,0,1,1.05-2.114,4.237,4.237,0,0,1,2.747-.848,4.56,4.56,0,0,1,2.9.853,2.687,2.687,0,0,1,1.085,2.215H73.5a1.229,1.229,0,0,0-.352-.9,1.488,1.488,0,0,0-1.1-.356,1.52,1.52,0,0,0-.993.29.916.916,0,0,0-.352.738.783.783,0,0,0,.4.681,4.114,4.114,0,0,0,1.349.448,11.019,11.019,0,0,1,1.6.426,2.628,2.628,0,0,1,2.013,2.558,2.481,2.481,0,0,1-1.116,2.1,4.815,4.815,0,0,1-2.883.8,5.029,5.029,0,0,1-2.123-.426,3.561,3.561,0,0,1-1.455-1.169,2.716,2.716,0,0,1-.527-1.6h2.408a1.326,1.326,0,0,0,.5,1.037,1.987,1.987,0,0,0,1.248.36,1.839,1.839,0,0,0,1.1-.277A.861.861,0,0,0,73.594,14.372Zm7.146-9.22V7.49h1.626V9.354H80.74V14.1a1.133,1.133,0,0,0,.2.756,1.015,1.015,0,0,0,.773.229,4.051,4.051,0,0,0,.747-.062v1.925a5.229,5.229,0,0,1-1.538.229,2.425,2.425,0,0,1-2.725-2.7V9.354H76.811V7.49H78.2V5.152Zm7.418,12.023a4.668,4.668,0,0,1-3.406-1.283,4.561,4.561,0,0,1-1.314-3.419v-.246a5.745,5.745,0,0,1,.554-2.562,4.064,4.064,0,0,1,1.569-1.74,4.4,4.4,0,0,1,2.316-.611,3.947,3.947,0,0,1,3.072,1.23,5,5,0,0,1,1.121,3.489v1.037H86.013a2.36,2.36,0,0,0,.743,1.494,2.245,2.245,0,0,0,1.569.563,2.742,2.742,0,0,0,2.294-1.063l1.248,1.4a3.813,3.813,0,0,1-1.547,1.261A5.075,5.075,0,0,1,88.158,17.176Zm-.29-7.813a1.587,1.587,0,0,0-1.226.512,2.651,2.651,0,0,0-.6,1.466h3.533v-.2a1.891,1.891,0,0,0-.457-1.311A1.638,1.638,0,0,0,87.868,9.362Zm7.98-1.872.079,1.1a3.32,3.32,0,0,1,2.733-1.274,2.759,2.759,0,0,1,2.25.888,4.142,4.142,0,0,1,.756,2.654V17h-2.54V10.918a1.648,1.648,0,0,0-.352-1.173,1.574,1.574,0,0,0-1.169-.365A1.747,1.747,0,0,0,96,10.294V17h-2.54V7.49ZM106.272,17h-2.549V7.49h2.549Zm-2.7-11.971a1.251,1.251,0,0,1,.382-.94,1.648,1.648,0,0,1,2.079,0,1.244,1.244,0,0,1,.387.94,1.247,1.247,0,0,1-.391.949,1.629,1.629,0,0,1-2.065,0A1.247,1.247,0,0,1,103.574,5.029Zm13.359,7.3a5.758,5.758,0,0,1-.976,3.564,3.231,3.231,0,0,1-2.725,1.279,2.969,2.969,0,0,1-2.47-1.187L110.649,17h-2.285V3.5h2.54V8.343a2.893,2.893,0,0,1,2.312-1.028,3.258,3.258,0,0,1,2.729,1.279,5.767,5.767,0,0,1,.989,3.6Zm-2.54-.185a3.783,3.783,0,0,0-.457-2.1,1.545,1.545,0,0,0-1.362-.664,1.676,1.676,0,0,0-1.67.993v3.753a1.7,1.7,0,0,0,1.688,1,1.568,1.568,0,0,0,1.617-1.213A6.257,6.257,0,0,0,114.393,12.148ZM121.178,17h-2.549V7.49h2.549Zm-2.7-11.971a1.251,1.251,0,0,1,.382-.94,1.648,1.648,0,0,1,2.079,0,1.244,1.244,0,0,1,.387.94,1.247,1.247,0,0,1-.391.949,1.629,1.629,0,0,1-2.065,0A1.247,1.247,0,0,1,118.48,5.029ZM125.951,17H123.4V3.5h2.549Zm4.772,0h-2.549V7.49h2.549Zm-2.7-11.971a1.251,1.251,0,0,1,.382-.94,1.648,1.648,0,0,1,2.079,0,1.244,1.244,0,0,1,.387.94,1.247,1.247,0,0,1-.391.949,1.629,1.629,0,0,1-2.065,0A1.247,1.247,0,0,1,128.025,5.029Zm4.395,7.146a5.731,5.731,0,0,1,1-3.542,3.237,3.237,0,0,1,2.729-1.318,2.913,2.913,0,0,1,2.294,1.037V3.5h2.549V17h-2.294l-.123-1.011a2.989,2.989,0,0,1-2.443,1.187,3.228,3.228,0,0,1-2.694-1.323A5.916,5.916,0,0,1,132.419,12.175Zm2.54.189a3.754,3.754,0,0,0,.466,2.051,1.517,1.517,0,0,0,1.354.713,1.7,1.7,0,0,0,1.661-.995V10.375A1.675,1.675,0,0,0,136.8,9.38Q134.959,9.38,134.959,12.364ZM148.468,17a2.821,2.821,0,0,1-.255-.853,3.073,3.073,0,0,1-2.4,1.028,3.376,3.376,0,0,1-2.316-.809,2.6,2.6,0,0,1-.918-2.039,2.687,2.687,0,0,1,1.121-2.32,5.529,5.529,0,0,1,3.239-.817h1.169v-.545a1.567,1.567,0,0,0-.338-1.055,1.331,1.331,0,0,0-1.068-.4A1.513,1.513,0,0,0,145.7,9.5a1.045,1.045,0,0,0-.365.844h-2.54a2.551,2.551,0,0,1,.51-1.529,3.37,3.37,0,0,1,1.441-1.1,5.253,5.253,0,0,1,2.092-.4,4.15,4.15,0,0,1,2.791.883,3.09,3.09,0,0,1,1.033,2.483V14.8a4.546,4.546,0,0,0,.378,2.048V17Zm-2.1-1.767a2.188,2.188,0,0,0,1.037-.25,1.645,1.645,0,0,0,.7-.672V12.676h-.949q-1.907,0-2.03,1.318l-.009.149a1.017,1.017,0,0,0,.334.782A1.3,1.3,0,0,0,146.368,15.233Zm5.845-3.059a5.731,5.731,0,0,1,1-3.542,3.237,3.237,0,0,1,2.729-1.318,2.913,2.913,0,0,1,2.294,1.037V3.5h2.549V17h-2.294l-.123-1.011a2.989,2.989,0,0,1-2.443,1.187,3.228,3.228,0,0,1-2.694-1.323A5.916,5.916,0,0,1,152.212,12.175Zm2.54.189a3.754,3.754,0,0,0,.466,2.051,1.517,1.517,0,0,0,1.354.713,1.7,1.7,0,0,0,1.661-.995V10.375a1.675,1.675,0,0,0-1.644-.995Q154.752,9.38,154.752,12.364Z" transform="translate(1034 1429)" fill="#433c74"/>
    <rect id="Rectángulo_379150" data-name="Rectángulo 379150" width="1238.299" height="88.368" transform="translate(180 1137.816)" fill="#f8e5b1"/>
    <path id="Trazado_612043" data-name="Trazado 612043" d="M27.346,6.2l1.573,9.255L33.692,6.2H37.12L34.9,19H32.312l.633-3.647,1.248-5.7L29.289,19H27.522L25.808,9.332l-.826,6.3L24.393,19H21.818L24.042,6.2ZM42.542,19a2.566,2.566,0,0,1-.1-.861,3.221,3.221,0,0,1-2.426,1.037,2.919,2.919,0,0,1-2.07-.813,2.46,2.46,0,0,1-.769-1.964,2.843,2.843,0,0,1,1.305-2.386,5.924,5.924,0,0,1,3.335-.831l1.16.018.123-.571a1.984,1.984,0,0,0,.026-.554.952.952,0,0,0-.312-.646,1.075,1.075,0,0,0-.708-.242,1.514,1.514,0,0,0-.984.286,1.384,1.384,0,0,0-.519.875l-2.487.009a2.764,2.764,0,0,1,1.252-2.21,4.851,4.851,0,0,1,2.94-.831,3.507,3.507,0,0,1,2.531.962,2.816,2.816,0,0,1,.765,2.386l-.729,4.553-.044.563a2.714,2.714,0,0,0,.149,1.055L44.977,19Zm-1.907-1.749a2.27,2.27,0,0,0,1.872-.932l.308-1.644-.861-.009a2.406,2.406,0,0,0-1.978.835,1.454,1.454,0,0,0-.272.712.844.844,0,0,0,.2.751A1,1,0,0,0,40.635,17.251ZM53,11.872a5.117,5.117,0,0,0-.835-.088,2.4,2.4,0,0,0-2.1.993L48.967,19H46.489l1.652-9.51,2.329-.009-.229,1.16A2.615,2.615,0,0,1,52.457,9.3a3.615,3.615,0,0,1,.861.123Zm4.061,3.34-1.151,1L55.427,19H52.949L55.287,5.5h2.487l-1.283,7.33.483-.519L59.8,9.49h3.182L58.82,13.577,61.465,19H58.75Zm9.817,3.964a4.137,4.137,0,0,1-2.21-.611,3.7,3.7,0,0,1-1.437-1.652,4.605,4.605,0,0,1-.369-2.316l.026-.352A6.148,6.148,0,0,1,63.7,11.7a4.884,4.884,0,0,1,1.74-1.789,4.306,4.306,0,0,1,2.355-.593,3.29,3.29,0,0,1,2.782,1.351A4.631,4.631,0,0,1,71.292,14l-.141,1.083H65.324a2.041,2.041,0,0,0,.448,1.477,1.711,1.711,0,0,0,1.318.571,3.041,3.041,0,0,0,2.373-1.055L70.6,17.479a3.527,3.527,0,0,1-1.547,1.261A5.059,5.059,0,0,1,66.879,19.176Zm.791-7.813a1.761,1.761,0,0,0-1.217.431,3.784,3.784,0,0,0-.954,1.556h3.41l.053-.229a2.33,2.33,0,0,0,.009-.668,1.276,1.276,0,0,0-.431-.8A1.35,1.35,0,0,0,67.67,11.362Zm9.246-4.21L76.5,9.49h1.582l-.325,1.863H76.178l-.809,4.764a1.211,1.211,0,0,0,.07.686q.123.237.6.255.141.009.756-.044l-.176,1.942a4.169,4.169,0,0,1-1.424.2,2.234,2.234,0,0,1-1.819-.765,2.763,2.763,0,0,1-.492-2.021l.817-5.019H72.355L72.68,9.49h1.345l.4-2.338ZM80.494,19H78L79.65,9.49h2.5ZM79.94,7.073a1.238,1.238,0,0,1,.387-.976,1.488,1.488,0,0,1,1.951-.044,1.233,1.233,0,0,1,.431.932,1.273,1.273,0,0,1-.365.949,1.367,1.367,0,0,1-1,.422,1.39,1.39,0,0,1-.971-.334A1.227,1.227,0,0,1,79.94,7.073Zm6.574,2.408L86.3,10.606a3.422,3.422,0,0,1,2.769-1.292,2.281,2.281,0,0,1,1.986.984,3.966,3.966,0,0,1,.466,2.654l-1,6.047H88.043l1.02-6.073a2.844,2.844,0,0,0,.018-.624,1.007,1.007,0,0,0-1.125-.923,2.133,2.133,0,0,0-1.749.905L85.02,19H82.542l1.652-9.51Zm6.425,4.755a6.58,6.58,0,0,1,1.437-3.582,3.647,3.647,0,0,1,2.958-1.349A2.667,2.667,0,0,1,99.6,10.4l.325-.923,2.276.009-1.556,9.185a4.481,4.481,0,0,1-1.617,3.006,5.03,5.03,0,0,1-3.375,1.072,4.689,4.689,0,0,1-1.881-.426A4.022,4.022,0,0,1,92.3,21.206l1.23-1.512A2.642,2.642,0,0,0,95.6,20.775a2.436,2.436,0,0,0,1.652-.505,2.7,2.7,0,0,0,.932-1.525l.141-.571a3.092,3.092,0,0,1-2.329,1,2.732,2.732,0,0,1-2.206-1.033,4.44,4.44,0,0,1-.9-2.641A8.876,8.876,0,0,1,92.939,14.236Zm2.435,1.043a2.273,2.273,0,0,0,.347,1.325,1.215,1.215,0,0,0,1.006.524,2.219,2.219,0,0,0,1.793-.863l.738-4.031a1.458,1.458,0,0,0-1.4-.863,1.944,1.944,0,0,0-1.608.766,4.006,4.006,0,0,0-.826,2.1A9.241,9.241,0,0,0,95.374,15.279Zm17.921-3.407a6.9,6.9,0,0,0-.914-.07,1.86,1.86,0,0,0-1.89.976V19h-2.54V9.49h2.4l.07,1.134a2.354,2.354,0,0,1,2.118-1.31,2.662,2.662,0,0,1,.791.114Zm5.432,7.3a4.668,4.668,0,0,1-3.406-1.283,4.561,4.561,0,0,1-1.314-3.419v-.246a5.745,5.745,0,0,1,.554-2.562,4.064,4.064,0,0,1,1.569-1.74,4.4,4.4,0,0,1,2.316-.611,3.947,3.947,0,0,1,3.072,1.23,5,5,0,0,1,1.121,3.489v1.037h-6.056a2.36,2.36,0,0,0,.743,1.494,2.245,2.245,0,0,0,1.569.563,2.742,2.742,0,0,0,2.294-1.063l1.248,1.4a3.813,3.813,0,0,1-1.547,1.261A5.075,5.075,0,0,1,118.726,19.176Zm-.29-7.813a1.587,1.587,0,0,0-1.226.512,2.651,2.651,0,0,0-.6,1.466h3.533v-.2a1.891,1.891,0,0,0-.457-1.311A1.638,1.638,0,0,0,118.436,11.362ZM126.759,19H124.21V5.5h2.549Zm7.6,0a2.821,2.821,0,0,1-.255-.853,3.073,3.073,0,0,1-2.4,1.028,3.376,3.376,0,0,1-2.316-.809,2.6,2.6,0,0,1-.918-2.039,2.687,2.687,0,0,1,1.121-2.32,5.529,5.529,0,0,1,3.239-.817H134v-.545a1.567,1.567,0,0,0-.338-1.055,1.331,1.331,0,0,0-1.068-.4,1.513,1.513,0,0,0-1.006.308,1.045,1.045,0,0,0-.365.844h-2.54a2.551,2.551,0,0,1,.51-1.529,3.37,3.37,0,0,1,1.441-1.1,5.253,5.253,0,0,1,2.092-.4,4.15,4.15,0,0,1,2.791.883,3.09,3.09,0,0,1,1.033,2.483V16.8a4.546,4.546,0,0,0,.378,2.048V19Zm-2.1-1.767a2.188,2.188,0,0,0,1.037-.25,1.645,1.645,0,0,0,.7-.672V14.676h-.949q-1.907,0-2.03,1.318l-.009.149a1.017,1.017,0,0,0,.334.782A1.3,1.3,0,0,0,132.261,17.233Zm10.2-.105a1.666,1.666,0,0,0,1.143-.387,1.355,1.355,0,0,0,.457-1.028h2.382a3.258,3.258,0,0,1-.527,1.771,3.48,3.48,0,0,1-1.419,1.248,4.442,4.442,0,0,1-1.991.444,4.129,4.129,0,0,1-3.217-1.3,5.13,5.13,0,0,1-1.178-3.582v-.167a5.071,5.071,0,0,1,1.169-3.507,4.08,4.08,0,0,1,3.208-1.31,4,4,0,0,1,2.861,1.015,3.594,3.594,0,0,1,1.094,2.7h-2.382a1.745,1.745,0,0,0-.457-1.206,1.7,1.7,0,0,0-2.5.183,3.749,3.749,0,0,0-.453,2.1v.264a3.8,3.8,0,0,0,.448,2.113A1.549,1.549,0,0,0,142.457,17.128ZM150.569,19H148.02V9.49h2.549Zm-2.7-11.971a1.251,1.251,0,0,1,.382-.94,1.648,1.648,0,0,1,2.079,0,1.244,1.244,0,0,1,.387.94,1.247,1.247,0,0,1-.391.949,1.629,1.629,0,0,1-2.065,0A1.247,1.247,0,0,1,147.871,7.029Zm4.395,7.128a5.64,5.64,0,0,1,.545-2.522,3.989,3.989,0,0,1,1.569-1.714,4.577,4.577,0,0,1,2.377-.606,4.33,4.33,0,0,1,3.142,1.178,4.727,4.727,0,0,1,1.358,3.2l.018.65a4.97,4.97,0,0,1-1.222,3.511,4.735,4.735,0,0,1-6.561,0,5.058,5.058,0,0,1-1.226-3.586Zm2.54.18a3.555,3.555,0,0,0,.51,2.073,1.831,1.831,0,0,0,2.9.009,3.89,3.89,0,0,0,.519-2.267,3.519,3.519,0,0,0-.519-2.06,1.686,1.686,0,0,0-1.459-.731,1.658,1.658,0,0,0-1.441.726A3.955,3.955,0,0,0,154.805,14.338ZM165.176,9.49l.079,1.1a3.32,3.32,0,0,1,2.733-1.274,2.759,2.759,0,0,1,2.25.888,4.142,4.142,0,0,1,.756,2.654V19h-2.54V12.918a1.648,1.648,0,0,0-.352-1.173,1.574,1.574,0,0,0-1.169-.365,1.747,1.747,0,0,0-1.608.914V19h-2.54V9.49ZM178.43,19a2.821,2.821,0,0,1-.255-.853,3.073,3.073,0,0,1-2.4,1.028,3.376,3.376,0,0,1-2.316-.809,2.6,2.6,0,0,1-.918-2.039,2.687,2.687,0,0,1,1.121-2.32,5.529,5.529,0,0,1,3.239-.817h1.169v-.545a1.567,1.567,0,0,0-.338-1.055,1.331,1.331,0,0,0-1.068-.4,1.513,1.513,0,0,0-1.006.308,1.045,1.045,0,0,0-.365.844h-2.54a2.551,2.551,0,0,1,.51-1.529,3.37,3.37,0,0,1,1.441-1.1,5.253,5.253,0,0,1,2.092-.4,4.15,4.15,0,0,1,2.791.883,3.09,3.09,0,0,1,1.033,2.483V16.8A4.546,4.546,0,0,0,181,18.851V19Zm-2.1-1.767a2.188,2.188,0,0,0,1.037-.25,1.645,1.645,0,0,0,.7-.672V14.676h-.949q-1.907,0-2.03,1.318l-.009.149a1.017,1.017,0,0,0,.334.782A1.3,1.3,0,0,0,176.33,17.233ZM185.25,19H182.7V5.5h2.549Z" transform="translate(725.5 1181.648)" fill="#255f68"/>
    <g id="_x31_5" transform="translate(664.5 1150.353)">
      <path id="Trazado_612002" data-name="Trazado 612002" d="M24.942,2A16.782,16.782,0,0,0,14.265,5.8a2.086,2.086,0,0,0-2.029-1.679,2.116,2.116,0,0,0-2.118,2.118v4.235a2.116,2.116,0,0,0,2.118,2.118h4.235a2.116,2.116,0,0,0,2.118-2.118A2.089,2.089,0,0,0,17.5,8.656a12.584,12.584,0,0,1,7.443-2.421A12.706,12.706,0,1,1,12.235,18.942a2.118,2.118,0,1,0-4.235,0A16.942,16.942,0,1,0,24.942,2Z" transform="translate(6.706)" fill="#255f68"/>
      <path id="Trazado_612003" data-name="Trazado 612003" d="M6.235,17H2V42.412H6.235a2.118,2.118,0,0,0,2.118-2.118V19.118A2.118,2.118,0,0,0,6.235,17Z" transform="translate(0 16.766)" fill="#255f68"/>
      <path id="Trazado_612004" data-name="Trazado 612004" d="M54.4,18.715a4.969,4.969,0,0,0-4.948-.108L35.582,26.062a5.283,5.283,0,0,1-5.229,4.646H21.84a1.059,1.059,0,1,1,0-2.117h8.513a3.172,3.172,0,0,0,.1-6.342c-.634-.007-10.868-.01-10.868-.01l-3.615-3.614a2.118,2.118,0,0,0-1.5-.62H6V39.182H9.739L16.589,41.3c2.846.915,5.889,2.117,9.262,2.117a14.153,14.153,0,0,0,8.648-3L54.666,27.067a4.954,4.954,0,0,0-.268-8.352Z" transform="translate(4.471 17.883)" fill="#255f68"/>
      <circle id="Elipse_6025" data-name="Elipse 6025" cx="6.379" cy="6.379" r="6.379" transform="translate(25.123 8.671)" fill="#255f68"/>
      <path id="Trazado_612005" data-name="Trazado 612005" d="M11.565,13.669a10.5,10.5,0,0,0,18.782,0A6.337,6.337,0,0,0,25.192,11H16.721A6.337,6.337,0,0,0,11.565,13.669Z" transform="translate(10.691 10.059)" fill="#255f68"/>
    </g>
  </g>
</svg>
