<svg xmlns="http://www.w3.org/2000/svg" width="49.924" height="49.921" viewBox="0 0 49.924 49.921">
  <g id="Grupo_1073349" data-name="Grupo 1073349" transform="translate(-918.41 -396.19)">
    <path id="Trazado_610513" data-name="Trazado 610513" d="M1553.015,532.419a24.96,24.96,0,1,0,24.96,24.961,24.961,24.961,0,0,0-24.96-24.961m0,41.889a16.929,16.929,0,1,1,16.929-16.929,16.947,16.947,0,0,1-16.929,16.929" transform="translate(-609.645 -136.229)" fill="#8c81c6"/>
    <path id="Trazado_610514" data-name="Trazado 610514" d="M1633.743,585.506a24.841,24.841,0,0,0-3.3-12.406l-7.105,3.767a16.918,16.918,0,0,1-14.551,25.568h-.068v8.032l.068,0a24.961,24.961,0,0,0,24.96-24.961" transform="translate(-665.409 -164.355)" fill="#81b9f9"/>
    <path id="Trazado_610515" data-name="Trazado 610515" d="M1604.6,532.419c-.652,0-1.3.033-1.934.082l.644,8c.426-.032.855-.054,1.29-.054a16.942,16.942,0,0,1,14.991,9.077l7-3.962a24.955,24.955,0,0,0-21.991-13.147" transform="translate(-661.232 -136.229)" fill="#fff"/>
  </g>
</svg>
