<svg xmlns="http://www.w3.org/2000/svg" width="107" height="107" viewBox="0 0 107 107">
  <g id="Grupo_156312" data-name="Grupo 156312" transform="translate(-288.668 -4448)">
    <path id="Elipse_5845" data-name="Elipse 5845" d="M53.5,0A53.5,53.5,0,1,1,0,53.5,53.5,53.5,0,0,1,53.5,0Z" transform="translate(288.668 4448)" fill="#433c74"/>
    <g id="Grupo_1074886" data-name="Grupo 1074886" transform="translate(306.9 4412.083)">
      <g id="Grupo_1074881" data-name="Grupo 1074881" transform="translate(0 59.201)">
        <g id="Grupo_1074880" data-name="Grupo 1074880" transform="translate(0 0)">
          <path id="Trazado_611445" data-name="Trazado 611445" d="M70.532,108.364c0-.01,0-.021,0-.031a1.012,1.012,0,0,0-.018-.12l0-.012a1,1,0,0,0-.03-.106l-.01-.027q-.017-.047-.039-.091l-.007-.016L64.9,97.061V61.2a2,2,0,0,0-2-2H7.638a2,2,0,0,0-2,2v35.86l-5.526,10.9-.007.016c-.014.03-.027.06-.039.091l-.01.027a1.051,1.051,0,0,0-.03.106l0,.011a1.019,1.019,0,0,0-.018.12c0,.01,0,.021,0,.031s0,.043,0,.064v2.621a2.378,2.378,0,0,0,2.376,2.376H68.16a2.378,2.378,0,0,0,2.376-2.376v-2.621C70.535,108.406,70.533,108.385,70.532,108.364ZM7.7,61.268H62.831V96.275H7.7Zm-.4,37.073H63.23l4.59,9.053h-22.7l-1.139-4.131a1.951,1.951,0,0,0-1.876-1.428H28.431a1.951,1.951,0,0,0-1.876,1.428l-1.139,4.132H2.715Zm35.67,9.054H27.56l.963-3.493H42.012Zm25.493,3.654a.31.31,0,0,1-.309.309H2.376a.31.31,0,0,1-.309-.309v-1.588h66.4Z" transform="translate(0 -59.201)" fill="#fff"/>
        </g>
      </g>
      <g id="Grupo_1074883" data-name="Grupo 1074883" transform="translate(9.908 80.493)">
        <g id="Grupo_1074882" data-name="Grupo 1074882">
          <path id="Trazado_611446" data-name="Trazado 611446" d="M121.608,213.756a1.033,1.033,0,0,0-1.033,1.033v10.478H73.989V214.789a1.033,1.033,0,1,0-2.066,0v10.924a1.622,1.622,0,0,0,1.62,1.62h47.478a1.622,1.622,0,0,0,1.62-1.62V214.789A1.033,1.033,0,0,0,121.608,213.756Z" transform="translate(-71.923 -213.756)" fill="#fff"/>
        </g>
      </g>
      <g id="Grupo_1074885" data-name="Grupo 1074885" transform="translate(9.908 63.472)">
        <g id="Grupo_1074884" data-name="Grupo 1074884" transform="translate(0 0)">
          <path id="Trazado_611447" data-name="Trazado 611447" d="M121.021,90.2H73.543a1.622,1.622,0,0,0-1.62,1.62v10.924a1.033,1.033,0,1,0,2.066,0V92.269h46.585v10.478a1.033,1.033,0,1,0,2.066,0V91.823A1.622,1.622,0,0,0,121.021,90.2Z" transform="translate(-71.923 -90.203)" fill="#fff"/>
        </g>
      </g>
    </g>
  </g>
</svg>
