<svg xmlns="http://www.w3.org/2000/svg" width="107" height="107" viewBox="0 0 107 107">
  <g id="Grupo_156312" data-name="Grupo 156312" transform="translate(-288.668 -4448)">
    <circle id="Elipse_5845" data-name="Elipse 5845" cx="53.5" cy="53.5" r="53.5" transform="translate(288.668 4448)" fill="#433c74"/>
    <g id="Layer_x0020_1" transform="translate(312.042 4472)">
      <path id="Trazado_611448" data-name="Trazado 611448" d="M14.892,40.428l.954-3.568a7.586,7.586,0,0,1-2.94-6.012V26.262a7.027,7.027,0,0,1,3.058-7.318,8.709,8.709,0,0,1,9.135,0,7.027,7.027,0,0,1,3.058,7.318v4.587a7.586,7.586,0,0,1-2.94,6.012l.967,3.568h2.2a8.623,8.623,0,0,1,8.6,8.6v7.1H56.123V11.337H2.5V56.123H4.084v-7.1a8.623,8.623,0,0,1,8.6-8.6Zm21.328,17.2H1.745A.756.756,0,0,1,1,56.868V1.745A.753.753,0,0,1,1.745,1H56.868a.756.756,0,0,1,.758.745V56.868a.759.759,0,0,1-.758.758Zm19.9-47.792V2.5H2.5V9.834Zm-3.894,8H40.3a.751.751,0,0,1,0-1.5H52.229A.751.751,0,0,1,52.229,17.832Zm0,4.757H33.11a.751.751,0,0,1,0-1.5H52.229A.751.751,0,0,1,52.229,22.589Zm0,4.757H33.11a.751.751,0,0,1,0-1.5H52.229A.751.751,0,0,1,52.229,27.346Zm0,4.757H33.11a.751.751,0,0,1,0-1.5H52.229A.751.751,0,0,1,52.229,32.1Zm0,4.757H33.11a.751.751,0,0,1,0-1.5H52.229A.751.751,0,0,1,52.229,36.86Zm0,4.757H40.3a.751.751,0,0,1,0-1.5H52.229A.751.751,0,0,1,52.229,41.617Zm0,4.757H40.3a.751.751,0,0,1,0-1.5H52.229A.751.751,0,0,1,52.229,46.374Zm0,4.757H40.3a.751.751,0,0,1,0-1.5H52.229A.751.751,0,0,1,52.229,51.131ZM24.759,40.964l-.876-3.254a7.643,7.643,0,0,1-6.7,0L16.3,40.964l4.234,4.221ZM5.6,56.123h4.652V48.034a.751.751,0,0,1,1.5,0v8.089H29.307V48.034a.751.751,0,0,1,1.5,0v8.089h4.652v-7.1a7.089,7.089,0,0,0-7.083-7.083h-2.47L21.06,46.792a.757.757,0,0,1-1.059,0l-4.848-4.848h-2.47A7.089,7.089,0,0,0,5.6,49.027Zm11.461-20.23a.793.793,0,0,1,.131.091,6.12,6.12,0,0,0,9.462-5.136V28.1c-.131-1.882-1.529-2.967-4.09-3.123a4.542,4.542,0,0,1-4.469,1.686c-.026,0-.052-.013-.078-.013-.274-.091-2.731-.719-3.607,1.581v2.614A6.114,6.114,0,0,0,17.061,35.893ZM14.369,25.8a4.82,4.82,0,0,1,4.051-.614A3.127,3.127,0,0,0,21.557,23.8a.755.755,0,0,1,.666-.353,6.679,6.679,0,0,1,4.522,1.5C26.758,16.957,13.415,17.218,14.369,25.8ZM10.161,6.92h-3.8a.751.751,0,0,1,0-1.5h3.8A.751.751,0,0,1,10.161,6.92ZM17,6.92H13.18a.751.751,0,0,1,0-1.5H17A.752.752,0,0,1,17,6.92Zm6.822,0h-3.8a.751.751,0,0,1,0-1.5h3.8A.751.751,0,0,1,23.818,6.92Zm28.45,0H31.685a.751.751,0,0,1,0-1.5H52.268A.751.751,0,0,1,52.268,6.92Z" fill="#fff" fill-rule="evenodd"/>
    </g>
  </g>
</svg>
