<svg xmlns="http://www.w3.org/2000/svg" width="72" height="85.306" viewBox="0 0 72 85.306">
  <g id="Grupo_1073350" data-name="Grupo 1073350" transform="translate(-1174 -157.148)">
    <g id="Grupo_1073332" data-name="Grupo 1073332" transform="translate(-118.67 -9.248)">
      <path id="Uni贸n_74" data-name="Uni贸n 74" d="M12754.333,11749v-33a16,16,0,0,1,16-16h34a16,16,0,0,1,16,16v33a16,16,0,0,1-16,16h-34q-.344,0-.684-.015l-15.317,15.32Z" transform="translate(-11455.663 -11528.604)" fill="#858585" opacity="0.4"/>
      <path id="Uni贸n_73" data-name="Uni贸n 73" d="M12754.333,11749v-33a16,16,0,0,1,16-16h34a16,16,0,0,1,16,16v33a16,16,0,0,1-16,16h-34q-.344,0-.684-.015l-15.317,15.32Z" transform="translate(-11461.663 -11533.604)" fill="#fff"/>
    </g>
    <g id="trato" transform="translate(1174 128.385)">
      <g id="Grupo_1073339" data-name="Grupo 1073339" transform="translate(0 40.344)">
        <path id="Trazado_610674" data-name="Trazado 610674" d="M163.981,185.915c-.574.794-1.95,1.459-2.981,2.338l-15.434,11.233-1.08.775-2.326,2.023c-.028.02-.058.04-.089.06a2.139,2.139,0,0,1-.6.268,2.539,2.539,0,0,1-2.268-.51.289.289,0,0,1-.031-.04,2.146,2.146,0,0,1,.446-2.967l-1.2.566a2.649,2.649,0,0,1-3.123-.114,1.645,1.645,0,0,1-.161-.2,2.41,2.41,0,0,1,.549-3.365l-.6.167a2.61,2.61,0,0,1-3.121-.151,1.637,1.637,0,0,1-.159-.2,2.41,2.41,0,0,1,.549-3.365l.509-.367a2.867,2.867,0,0,1-3.2-.352,1.639,1.639,0,0,1-.159-.2,2.412,2.412,0,0,1,.55-3.365l.173-.146,15.734-13.346c.09-.1.182-.2.275-.282,2.131-1.954,5.161.02,5.161.02l3.614-2.215,8.022,12.28Z" transform="translate(-112.411 -155.184)" fill="#f8d9b0"/>
        <g id="Grupo_1073335" data-name="Grupo 1073335" transform="translate(17.255 23.872)">
          <path id="Trazado_610675" data-name="Trazado 610675" d="M147.229,225.466l-10.4,9.084.217.146a2.1,2.1,0,0,0,2.423-.079l2.892-2.039a.989.989,0,0,1,.434-.167c3.361-.464,5.871-3,6.98-4.337C148.848,227.285,149.776,225.258,147.229,225.466Z" transform="translate(-136.438 -225.451)" fill="#edc8a9"/>
          <path id="Trazado_610676" data-name="Trazado 610676" d="M260.605,270.288a18.43,18.43,0,0,0-1.562,1.133l-15.434,11.233-1.08.775-.563.489a4.394,4.394,0,0,1,.6-4.456l.012-.015a4.437,4.437,0,0,1,1.2-1.042,4.379,4.379,0,0,1,.911-3.4c.506-.632,1.678-.326,2.414-.6a4.386,4.386,0,0,1,4.38-4.129,3.95,3.95,0,0,1,.4.02,4.41,4.41,0,0,1,.585-.967l.011-.015a4.389,4.389,0,0,1,6.155-.695l1.348,1.071c.486.387.353.082.626.6Z" transform="translate(-227.709 -262.224)" fill="#edc8a9"/>
          <path id="Trazado_610677" data-name="Trazado 610677" d="M231.606,267.407c-.375.383-1.028.853-1.524,1.255a.463.463,0,0,1-.58,0l-.344-.273a4.389,4.389,0,0,0-6.155.695l-.011.015a4.385,4.385,0,0,0-.478.742.38.38,0,0,1-.352.208q-.076,0-.153,0a4.365,4.365,0,0,0-3.438,1.661,4.784,4.784,0,0,0-1.217,1.908.385.385,0,0,1-.308.3c-2.089.406-2.922,2.032-2.764,4.036a.378.378,0,0,1-.167.344,4.435,4.435,0,0,0-1.012.923l-.012.015a4.364,4.364,0,0,0-.934,2.369.756.756,0,0,1-.314.559l-4.065,2.88a2.145,2.145,0,0,0,2.275.78h.008a2.681,2.681,0,0,0,.6-.268c.031-.02.061-.04.089-.06l2.476-1.783,1.079-.775,15.329-11.176a21.555,21.555,0,0,0,2.923-2.9Z" transform="translate(-198.237 -261.996)" fill="#edc8a9"/>
          <path id="Trazado_610678" data-name="Trazado 610678" d="M139.158,300.962a1.079,1.079,0,0,1-.238,1.516L137,303.856a2.412,2.412,0,0,1-3.2-.352l3.86-2.777A1.079,1.079,0,0,1,139.158,300.962Z" transform="translate(-133.8 -290.842)" fill="#edc8a9"/>
          <path id="Trazado_610679" data-name="Trazado 610679" d="M157.464,331.895a1.079,1.079,0,0,1-.25,1.5l-1.814,1.3-.525.377a2.41,2.41,0,0,1-3.191-.361l4.27-3.072A1.078,1.078,0,0,1,157.464,331.895Z" transform="translate(-149.378 -317.771)" fill="#edc8a9"/>
          <path id="Trazado_610680" data-name="Trazado 610680" d="M182.406,364.308a1.079,1.079,0,0,1-.263,1.481l-.317.228-.015.011-1.117.8a2.407,2.407,0,0,1-3.2-.351l3.394-2.442A1.079,1.079,0,0,1,182.406,364.308Z" transform="translate(-171.856 -345.989)" fill="#edc8a9"/>
        </g>
        <g id="Grupo_1073336" data-name="Grupo 1073336" transform="translate(32.396 31.344)">
          <path id="Trazado_610681" data-name="Trazado 610681" d="M256.6,356.943l-1.269-1.6a2.54,2.54,0,0,0-2.542-1.084,2.387,2.387,0,0,0-.771.456h0a2.4,2.4,0,0,0-.215,3.381l1.512,1.718c.079.09.171.166.254.247.56.542,2.034.431,2.936-.363A1.712,1.712,0,0,0,256.6,356.943Z" transform="translate(-251.201 -345.05)" fill="#d0a060"/>
          <path id="Trazado_610682" data-name="Trazado 610682" d="M267.617,356.287l-.145-1.5-1.367-.217a2.394,2.394,0,0,0-2.609-.67,2.417,2.417,0,0,1,.255.246l1.512,1.718a2.4,2.4,0,0,1-.215,3.381h0a2.391,2.391,0,0,1-.772.455,2.4,2.4,0,0,0,3.126-.032h0A2.4,2.4,0,0,0,267.617,356.287Z" transform="translate(-261.909 -344.683)" fill="#c59156"/>
          <path id="Trazado_610683" data-name="Trazado 610683" d="M279.672,326.925l-2.347-2.369a2.458,2.458,0,0,0-2.47-.8,1.7,1.7,0,0,0-.626.4h0a2.4,2.4,0,0,0-.215,3.381l2.245,2.551a.97.97,0,0,0,.138.144,2.833,2.833,0,0,0,3.036-.149h.075A2.124,2.124,0,0,0,279.672,326.925Z" transform="translate(-270.55 -318.478)" fill="#d0a060"/>
          <path id="Trazado_610684" data-name="Trazado 610684" d="M289.582,326.106l-.671-1.907-1.574-.644a2.4,2.4,0,0,0-2.755-.613c.048.046.095.092.139.143l2.245,2.551a2.4,2.4,0,0,1-.215,3.381h0a2.4,2.4,0,0,1-.627.4,2.4,2.4,0,0,0,3.242.072h0a2.4,2.4,0,0,0,.216-3.381Z" transform="translate(-280.277 -317.668)" fill="#c59156"/>
          <path id="Trazado_610685" data-name="Trazado 610685" d="M342.774,285.945l-.934-1.069a2.32,2.32,0,0,0-2.609-.907,2.4,2.4,0,0,0-.626.4h0a2.4,2.4,0,0,0-.216,3.381l-.143,1.061,1.281.232a1.42,1.42,0,0,0,.138.144,2.639,2.639,0,0,0,2.994-.2A2,2,0,0,0,342.774,285.945Z" transform="translate(-326.625 -283.771)" fill="#d0a060"/>
          <path id="Trazado_610686" data-name="Trazado 610686" d="M352.852,285.5l-1.138-1.293a2.4,2.4,0,0,0-2.755-.613c.048.046.095.092.139.143l1.138,1.293a2.4,2.4,0,0,1-.215,3.381h0a2.4,2.4,0,0,1-.627.4,2.4,2.4,0,0,0,3.243.071h0A2.4,2.4,0,0,0,352.852,285.5Z" transform="translate(-336.352 -283.393)" fill="#c59156"/>
          <path id="Trazado_610687" data-name="Trazado 610687" d="M306.741,301.31l-2.133-2.434a2.5,2.5,0,0,0-2.7-.988,2.4,2.4,0,0,0-.626.4h0a2.4,2.4,0,0,0-.216,3.381l2.354,2.674c.044.05.1.094.139.144a3.1,3.1,0,0,0,3.016-.1A2.041,2.041,0,0,0,306.741,301.31Z" transform="translate(-294.115 -295.904)" fill="#d0a060"/>
          <path id="Trazado_610688" data-name="Trazado 610688" d="M316.745,300.721l-2.354-2.674a2.4,2.4,0,0,0-2.755-.613c.048.046.095.092.139.143l2.354,2.674a2.4,2.4,0,0,1-.215,3.381h0a2.4,2.4,0,0,1-.627.4,2.4,2.4,0,0,0,3.242.072h0a2.4,2.4,0,0,0,.216-3.381Z" transform="translate(-303.843 -295.45)" fill="#c59156"/>
        </g>
        <path id="Trazado_610689" data-name="Trazado 610689" d="M111.852,174.412l5.535.1a4.215,4.215,0,0,1,2.7,1.015l2.7,2.264a3.655,3.655,0,0,1,1.325,2.387l.58,5.377a3.463,3.463,0,0,1-.41,2.043l-2.477,4.495a.938.938,0,0,1-1.274.369,2.771,2.771,0,0,1-1.215-3.5l1.087-2.571a.4.4,0,0,0-.121-.469,7.6,7.6,0,0,1-2.473-3.276.4.4,0,0,0-.685-.122c-1.032,1.28-3.611,4.018-7.114,4.5a.987.987,0,0,0-.434.167l-4.117,2.9-4.643-3.214Z" transform="translate(-87.817 -157.122)" fill="#d78878"/>
        <path id="Trazado_610690" data-name="Trazado 610690" d="M111.852,174.412l5.535.1a4.215,4.215,0,0,1,2.7,1.015l2.7,2.264a3.655,3.655,0,0,1,1.325,2.387l.58,5.377a3.463,3.463,0,0,1-.41,2.043l-2.477,4.495a.938.938,0,0,1-1.274.369,2.771,2.771,0,0,1-1.215-3.5l1.087-2.571a.4.4,0,0,0-.121-.469,7.6,7.6,0,0,1-2.473-3.276.4.4,0,0,0-.685-.122c-1.032,1.28-3.611,4.018-7.114,4.5a.987.987,0,0,0-.434.167l-4.117,2.9-4.643-3.214Z" transform="translate(-87.817 -157.122)" fill="#d0a060"/>
        <g id="Grupo_1073337" data-name="Grupo 1073337" transform="translate(40.943 0)">
          <path id="Trazado_610691" data-name="Trazado 610691" d="M377.028,40.42,359.783,52.808l-2.013,3.552,7.968,10.463,4.088-.076,7.53-4.76a.664.664,0,0,0,.3-.558V40.744A.4.4,0,0,0,377.028,40.42Z" transform="translate(-352.573 -40.344)" fill="#6f5ac2"/>
          <path id="Trazado_610692" data-name="Trazado 610692" d="M360.414,150.924l-3.385,2.14-10.064-13.632,3.406-2.447c.06.072.118.145.173.222Z" transform="translate(-343.162 -124.522)" fill="#614eaf"/>
          <path id="Trazado_610693" data-name="Trazado 610693" d="M332.831,161.078,322.7,147a1.329,1.329,0,0,0-1.854-.3l-2.817,2.027a1.329,1.329,0,0,0-.3,1.854l10.128,14.077a1.329,1.329,0,0,0,1.854.3l2.817-2.027A1.329,1.329,0,0,0,332.831,161.078Z" transform="translate(-317.479 -132.764)" fill="#927de8"/>
        </g>
        <g id="Grupo_1073338" data-name="Grupo 1073338" transform="translate(0 0)">
          <path id="Trazado_610694" data-name="Trazado 610694" d="M.631,40.42,17.491,52.528l1.671,3.051L11.094,66.823l-3.684-.249L.3,61.988A.664.664,0,0,1,0,61.43V40.744a.4.4,0,0,1,.631-.324Z" transform="translate(0 -40.344)" fill="#70abf2"/>
          <path id="Trazado_610695" data-name="Trazado 610695" d="M70.09,136.651,60.1,150.571l-2.64-1.7a3.839,3.839,0,0,1,.21-.326l9.87-13.72Z" transform="translate(-50.052 -122.638)" fill="#619be0"/>
          <path id="Trazado_610696" data-name="Trazado 610696" d="M74.123,154.428,84.25,140.351a1.329,1.329,0,0,1,1.854-.3l2.817,2.027a1.329,1.329,0,0,1,.3,1.854L79.1,158.006a1.329,1.329,0,0,1-1.854.3l-2.817-2.027A1.329,1.329,0,0,1,74.123,154.428Z" transform="translate(-64.346 -126.972)" fill="#8db9ff"/>
        </g>
      </g>
    </g>
  </g>
</svg>
