<svg xmlns="http://www.w3.org/2000/svg" xmlns:xlink="http://www.w3.org/1999/xlink" width="250" height="506.236" viewBox="0 0 250 506.236">
  <defs>
    <clipPath id="clip-path">
      <path id="Trazado_194907" data-name="Trazado 194907" d="M0,139.241c0,47.447,39.179,85.908,87.511,85.908s87.511-38.461,87.511-85.908S135.841,53.333,87.511,53.333,0,91.8,0,139.241" transform="translate(0 -53.333)" fill="#bcf6ff"/>
    </clipPath>
    <clipPath id="clip-path-2">
      <path id="Trazado_194907-2" data-name="Trazado 194907" d="M0,95.647A42.315,42.315,0,1,0,42.315,53.333,42.315,42.315,0,0,0,0,95.647" transform="translate(0 -53.333)" fill="#7f4fc7"/>
    </clipPath>
    <clipPath id="clip-path-3">
      <rect id="Rectángulo_46351" data-name="Rectángulo 46351" width="115.414" height="119.42" fill="none"/>
    </clipPath>
    <clipPath id="clip-path-4">
      <rect id="Rectángulo_378948" data-name="Rectángulo 378948" width="134.386" height="506.236" fill="none"/>
    </clipPath>
    <clipPath id="clip-path-5">
      <rect id="Rectángulo_378947" data-name="Rectángulo 378947" width="134.386" height="506.235" fill="none"/>
    </clipPath>
    <clipPath id="clip-path-6">
      <rect id="Rectángulo_378945" data-name="Rectángulo 378945" width="122.065" height="189.58" fill="none"/>
    </clipPath>
    <clipPath id="clip-path-7">
      <rect id="Rectángulo_378946" data-name="Rectángulo 378946" width="51.652" height="17.909" fill="none"/>
    </clipPath>
  </defs>
  <g id="conectada_01.375dd2a5" transform="translate(-2.443 -22.364)">
    <g id="Grupo_155444" data-name="Grupo 155444" transform="translate(2.443 22.364)">
      <g id="Grupo_155253" data-name="Grupo 155253" transform="translate(4.281 181.396)">
        <path id="Trazado_196478" data-name="Trazado 196478" d="M319.689,149.033q-.327.339-.648.683a52.147,52.147,0,0,0-14.068,37.632l21.849-.761a30.63,30.63,0,1,1,61.222-2.141l21.849-.761a52.492,52.492,0,0,0-90.2-34.646" transform="translate(-304.936 -133.025)" fill="#b1ace0"/>
        <path id="Trazado_196479" data-name="Trazado 196479" d="M304.88,231.066A52.492,52.492,0,1,0,409.8,227.4l-21.85.761a30.629,30.629,0,0,1-61.221,2.141Z" transform="translate(-304.844 -176.744)" fill="#255f68"/>
      </g>
      <g id="Grupo_154313" data-name="Grupo 154313" transform="translate(74.978 321.892)">
        <g id="Grupo_152768" data-name="Grupo 152768" clip-path="url(#clip-path)">
          <path id="Trazado_194826" data-name="Trazado 194826" d="M4.605,55.593a2.284,2.284,0,0,0-2.3-2.26,2.262,2.262,0,1,0,0,4.522,2.284,2.284,0,0,0,2.3-2.263" transform="translate(0.001 -53.333)" fill="#bcf6ff"/>
          <path id="Trazado_194827" data-name="Trazado 194827" d="M12.879,55.589a2.3,2.3,0,1,0-2.3,2.263,2.3,2.3,0,0,0,2.3-2.263" transform="translate(13.028 -53.329)" fill="#bcf6ff"/>
          <path id="Trazado_194828" data-name="Trazado 194828" d="M21.152,55.589a2.3,2.3,0,1,0-2.3,2.263,2.3,2.3,0,0,0,2.3-2.263" transform="translate(26.059 -53.329)" fill="#bcf6ff"/>
          <path id="Trazado_194829" data-name="Trazado 194829" d="M29.425,55.589a2.3,2.3,0,1,0-2.3,2.263,2.3,2.3,0,0,0,2.3-2.263" transform="translate(39.088 -53.329)" fill="#bcf6ff"/>
          <path id="Trazado_194830" data-name="Trazado 194830" d="M37.7,55.589a2.3,2.3,0,1,0-2.3,2.263,2.3,2.3,0,0,0,2.3-2.263" transform="translate(52.116 -53.329)" fill="#bcf6ff"/>
          <path id="Trazado_194831" data-name="Trazado 194831" d="M45.966,55.589a2.3,2.3,0,1,0-2.3,2.263,2.3,2.3,0,0,0,2.3-2.263" transform="translate(65.146 -53.329)" fill="#bcf6ff"/>
          <path id="Trazado_194832" data-name="Trazado 194832" d="M54.242,55.589a2.3,2.3,0,1,0-2.3,2.263,2.3,2.3,0,0,0,2.3-2.263" transform="translate(78.175 -53.329)" fill="#bcf6ff"/>
          <path id="Trazado_194833" data-name="Trazado 194833" d="M62.515,55.589a2.3,2.3,0,1,0-2.3,2.263,2.3,2.3,0,0,0,2.3-2.263" transform="translate(91.204 -53.329)" fill="#bcf6ff"/>
          <path id="Trazado_194834" data-name="Trazado 194834" d="M70.788,55.589a2.3,2.3,0,1,0-2.3,2.262,2.3,2.3,0,0,0,2.3-2.262" transform="translate(104.234 -53.329)" fill="#bcf6ff"/>
          <path id="Trazado_194835" data-name="Trazado 194835" d="M4.609,63.866a2.284,2.284,0,0,0-2.3-2.26,2.26,2.26,0,0,0,0,4.52,2.284,2.284,0,0,0,2.3-2.26" transform="translate(-0.002 -40.693)" fill="#bcf6ff"/>
          <path id="Trazado_194836" data-name="Trazado 194836" d="M12.879,63.862a2.3,2.3,0,1,0-2.3,2.26,2.3,2.3,0,0,0,2.3-2.26" transform="translate(13.028 -40.689)" fill="#bcf6ff"/>
          <path id="Trazado_194837" data-name="Trazado 194837" d="M21.152,63.862a2.3,2.3,0,1,0-2.3,2.26,2.3,2.3,0,0,0,2.3-2.26" transform="translate(26.059 -40.689)" fill="#bcf6ff"/>
          <path id="Trazado_194838" data-name="Trazado 194838" d="M29.425,63.862a2.3,2.3,0,1,0-2.3,2.26,2.3,2.3,0,0,0,2.3-2.26" transform="translate(39.088 -40.689)" fill="#bcf6ff"/>
          <path id="Trazado_194839" data-name="Trazado 194839" d="M37.7,63.862a2.3,2.3,0,1,0-2.3,2.26,2.3,2.3,0,0,0,2.3-2.26" transform="translate(52.116 -40.689)" fill="#bcf6ff"/>
          <path id="Trazado_194840" data-name="Trazado 194840" d="M45.966,63.862a2.3,2.3,0,1,0-2.3,2.26,2.3,2.3,0,0,0,2.3-2.26" transform="translate(65.146 -40.689)" fill="#bcf6ff"/>
          <path id="Trazado_194841" data-name="Trazado 194841" d="M54.242,63.862a2.3,2.3,0,1,0-2.3,2.26,2.3,2.3,0,0,0,2.3-2.26" transform="translate(78.175 -40.689)" fill="#bcf6ff"/>
          <path id="Trazado_194842" data-name="Trazado 194842" d="M62.515,63.862a2.3,2.3,0,1,0-2.3,2.26,2.3,2.3,0,0,0,2.3-2.26" transform="translate(91.204 -40.689)" fill="#bcf6ff"/>
          <path id="Trazado_194843" data-name="Trazado 194843" d="M70.788,63.862a2.3,2.3,0,1,0-2.3,2.26,2.3,2.3,0,0,0,2.3-2.26" transform="translate(104.234 -40.689)" fill="#bcf6ff"/>
          <path id="Trazado_194844" data-name="Trazado 194844" d="M4.609,72.139a2.284,2.284,0,0,0-2.3-2.26,2.26,2.26,0,0,0,0,4.52,2.284,2.284,0,0,0,2.3-2.26" transform="translate(-0.002 -28.054)" fill="#bcf6ff"/>
          <path id="Trazado_194845" data-name="Trazado 194845" d="M12.879,72.135a2.3,2.3,0,1,0-2.3,2.26,2.3,2.3,0,0,0,2.3-2.26" transform="translate(13.028 -28.049)" fill="#bcf6ff"/>
          <path id="Trazado_194846" data-name="Trazado 194846" d="M21.152,72.135a2.3,2.3,0,1,0-2.3,2.26,2.3,2.3,0,0,0,2.3-2.26" transform="translate(26.059 -28.049)" fill="#bcf6ff"/>
          <path id="Trazado_194847" data-name="Trazado 194847" d="M29.425,72.135a2.3,2.3,0,1,0-2.3,2.26,2.3,2.3,0,0,0,2.3-2.26" transform="translate(39.088 -28.049)" fill="#bcf6ff"/>
          <path id="Trazado_194848" data-name="Trazado 194848" d="M37.7,72.135a2.3,2.3,0,1,0-2.3,2.26,2.3,2.3,0,0,0,2.3-2.26" transform="translate(52.116 -28.049)" fill="#bcf6ff"/>
          <path id="Trazado_194849" data-name="Trazado 194849" d="M45.966,72.135a2.3,2.3,0,1,0-2.3,2.26,2.3,2.3,0,0,0,2.3-2.26" transform="translate(65.146 -28.049)" fill="#bcf6ff"/>
          <path id="Trazado_194850" data-name="Trazado 194850" d="M54.242,72.135a2.3,2.3,0,1,0-2.3,2.26,2.3,2.3,0,0,0,2.3-2.26" transform="translate(78.175 -28.049)" fill="#bcf6ff"/>
          <path id="Trazado_194851" data-name="Trazado 194851" d="M62.515,72.135a2.3,2.3,0,1,0-2.3,2.26,2.3,2.3,0,0,0,2.3-2.26" transform="translate(91.204 -28.049)" fill="#bcf6ff"/>
          <path id="Trazado_194852" data-name="Trazado 194852" d="M70.788,72.135a2.3,2.3,0,1,0-2.3,2.26,2.3,2.3,0,0,0,2.3-2.26" transform="translate(104.234 -28.049)" fill="#bcf6ff"/>
          <path id="Trazado_194853" data-name="Trazado 194853" d="M4.609,80.411a2.284,2.284,0,0,0-2.3-2.26,2.26,2.26,0,0,0,0,4.52,2.284,2.284,0,0,0,2.3-2.26" transform="translate(-0.002 -15.416)" fill="#bcf6ff"/>
          <path id="Trazado_194854" data-name="Trazado 194854" d="M12.879,80.407a2.3,2.3,0,1,0-2.3,2.259,2.3,2.3,0,0,0,2.3-2.259" transform="translate(13.028 -15.411)" fill="#bcf6ff"/>
          <path id="Trazado_194855" data-name="Trazado 194855" d="M21.152,80.407a2.3,2.3,0,1,0-2.3,2.259,2.3,2.3,0,0,0,2.3-2.259" transform="translate(26.059 -15.411)" fill="#bcf6ff"/>
          <path id="Trazado_194856" data-name="Trazado 194856" d="M29.425,80.407a2.3,2.3,0,1,0-2.3,2.259,2.3,2.3,0,0,0,2.3-2.259" transform="translate(39.088 -15.411)" fill="#bcf6ff"/>
          <path id="Trazado_194857" data-name="Trazado 194857" d="M37.7,80.407a2.3,2.3,0,1,0-2.3,2.259,2.3,2.3,0,0,0,2.3-2.259" transform="translate(52.116 -15.411)" fill="#bcf6ff"/>
          <path id="Trazado_194858" data-name="Trazado 194858" d="M45.966,80.407a2.3,2.3,0,1,0-2.3,2.259,2.3,2.3,0,0,0,2.3-2.259" transform="translate(65.146 -15.411)" fill="#bcf6ff"/>
          <path id="Trazado_194859" data-name="Trazado 194859" d="M54.242,80.407a2.3,2.3,0,1,0-2.3,2.259,2.3,2.3,0,0,0,2.3-2.259" transform="translate(78.175 -15.411)" fill="#bcf6ff"/>
          <path id="Trazado_194860" data-name="Trazado 194860" d="M62.515,80.407a2.3,2.3,0,1,0-2.3,2.259,2.3,2.3,0,0,0,2.3-2.259" transform="translate(91.204 -15.411)" fill="#bcf6ff"/>
          <path id="Trazado_194861" data-name="Trazado 194861" d="M70.788,80.407a2.3,2.3,0,1,0-2.3,2.259,2.3,2.3,0,0,0,2.3-2.259" transform="translate(104.234 -15.411)" fill="#bcf6ff"/>
          <path id="Trazado_194862" data-name="Trazado 194862" d="M4.605,88.685a2.284,2.284,0,0,0-2.3-2.26,2.262,2.262,0,1,0,0,4.522,2.284,2.284,0,0,0,2.3-2.262" transform="translate(0.001 -2.776)" fill="#bcf6ff"/>
          <path id="Trazado_194863" data-name="Trazado 194863" d="M12.879,88.681a2.3,2.3,0,1,0-2.3,2.262,2.3,2.3,0,0,0,2.3-2.262" transform="translate(13.028 -2.771)" fill="#bcf6ff"/>
          <path id="Trazado_194864" data-name="Trazado 194864" d="M21.152,88.681a2.3,2.3,0,1,0-2.3,2.262,2.3,2.3,0,0,0,2.3-2.262" transform="translate(26.059 -2.771)" fill="#bcf6ff"/>
          <path id="Trazado_194865" data-name="Trazado 194865" d="M29.425,88.681a2.3,2.3,0,1,0-2.3,2.262,2.3,2.3,0,0,0,2.3-2.262" transform="translate(39.088 -2.771)" fill="#bcf6ff"/>
          <path id="Trazado_194866" data-name="Trazado 194866" d="M37.7,88.681a2.3,2.3,0,1,0-2.3,2.262,2.3,2.3,0,0,0,2.3-2.262" transform="translate(52.116 -2.771)" fill="#bcf6ff"/>
          <path id="Trazado_194867" data-name="Trazado 194867" d="M45.966,88.681a2.3,2.3,0,1,0-2.3,2.262,2.3,2.3,0,0,0,2.3-2.262" transform="translate(65.146 -2.771)" fill="#bcf6ff"/>
          <path id="Trazado_194868" data-name="Trazado 194868" d="M54.242,88.681a2.3,2.3,0,1,0-2.3,2.262,2.3,2.3,0,0,0,2.3-2.262" transform="translate(78.175 -2.771)" fill="#bcf6ff"/>
          <path id="Trazado_194869" data-name="Trazado 194869" d="M62.515,88.681a2.3,2.3,0,1,0-2.3,2.262,2.3,2.3,0,0,0,2.3-2.262" transform="translate(91.204 -2.771)" fill="#bcf6ff"/>
          <path id="Trazado_194870" data-name="Trazado 194870" d="M70.788,88.681a2.3,2.3,0,1,0-2.3,2.261,2.3,2.3,0,0,0,2.3-2.261" transform="translate(104.234 -2.771)" fill="#bcf6ff"/>
          <path id="Trazado_194871" data-name="Trazado 194871" d="M4.609,96.957a2.284,2.284,0,0,0-2.3-2.257,2.26,2.26,0,0,0,0,4.52,2.284,2.284,0,0,0,2.3-2.26" transform="translate(-0.002 9.864)" fill="#bcf6ff"/>
          <path id="Trazado_194872" data-name="Trazado 194872" d="M12.879,96.953a2.3,2.3,0,1,0-2.3,2.26,2.3,2.3,0,0,0,2.3-2.26" transform="translate(13.028 9.869)" fill="#bcf6ff"/>
          <path id="Trazado_194873" data-name="Trazado 194873" d="M21.152,96.953a2.3,2.3,0,1,0-2.3,2.26,2.3,2.3,0,0,0,2.3-2.26" transform="translate(26.059 9.869)" fill="#bcf6ff"/>
          <path id="Trazado_194874" data-name="Trazado 194874" d="M29.425,96.953a2.3,2.3,0,1,0-2.3,2.26,2.3,2.3,0,0,0,2.3-2.26" transform="translate(39.088 9.869)" fill="#bcf6ff"/>
          <path id="Trazado_194875" data-name="Trazado 194875" d="M37.7,96.953a2.3,2.3,0,1,0-2.3,2.26,2.3,2.3,0,0,0,2.3-2.26" transform="translate(52.116 9.869)" fill="#bcf6ff"/>
          <path id="Trazado_194876" data-name="Trazado 194876" d="M45.966,96.953a2.3,2.3,0,1,0-2.3,2.26,2.3,2.3,0,0,0,2.3-2.26" transform="translate(65.146 9.869)" fill="#bcf6ff"/>
          <path id="Trazado_194877" data-name="Trazado 194877" d="M54.242,96.953a2.3,2.3,0,1,0-2.3,2.26,2.3,2.3,0,0,0,2.3-2.26" transform="translate(78.175 9.869)" fill="#bcf6ff"/>
          <path id="Trazado_194878" data-name="Trazado 194878" d="M62.515,96.953a2.3,2.3,0,1,0-2.3,2.26,2.3,2.3,0,0,0,2.3-2.26" transform="translate(91.204 9.869)" fill="#bcf6ff"/>
          <path id="Trazado_194879" data-name="Trazado 194879" d="M70.788,96.953a2.3,2.3,0,1,0-2.3,2.26,2.3,2.3,0,0,0,2.3-2.26" transform="translate(104.234 9.869)" fill="#bcf6ff"/>
          <path id="Trazado_194880" data-name="Trazado 194880" d="M4.609,105.229a2.284,2.284,0,0,0-2.3-2.26,2.26,2.26,0,1,0,0,4.52,2.284,2.284,0,0,0,2.3-2.26" transform="translate(-0.002 22.503)" fill="#bcf6ff"/>
          <path id="Trazado_194881" data-name="Trazado 194881" d="M12.879,105.225a2.3,2.3,0,1,0-2.3,2.26,2.3,2.3,0,0,0,2.3-2.26" transform="translate(13.028 22.507)" fill="#bcf6ff"/>
          <path id="Trazado_194882" data-name="Trazado 194882" d="M21.152,105.225a2.3,2.3,0,1,0-2.3,2.26,2.3,2.3,0,0,0,2.3-2.26" transform="translate(26.059 22.507)" fill="#bcf6ff"/>
          <path id="Trazado_194883" data-name="Trazado 194883" d="M29.425,105.225a2.3,2.3,0,1,0-2.3,2.26,2.3,2.3,0,0,0,2.3-2.26" transform="translate(39.088 22.507)" fill="#bcf6ff"/>
          <path id="Trazado_194884" data-name="Trazado 194884" d="M37.7,105.225a2.3,2.3,0,1,0-2.3,2.26,2.3,2.3,0,0,0,2.3-2.26" transform="translate(52.116 22.507)" fill="#bcf6ff"/>
          <path id="Trazado_194885" data-name="Trazado 194885" d="M45.966,105.225a2.3,2.3,0,1,0-2.3,2.26,2.3,2.3,0,0,0,2.3-2.26" transform="translate(65.146 22.507)" fill="#bcf6ff"/>
          <path id="Trazado_194886" data-name="Trazado 194886" d="M54.242,105.225a2.3,2.3,0,1,0-2.3,2.26,2.3,2.3,0,0,0,2.3-2.26" transform="translate(78.175 22.507)" fill="#bcf6ff"/>
          <path id="Trazado_194887" data-name="Trazado 194887" d="M62.515,105.225a2.3,2.3,0,1,0-2.3,2.26,2.3,2.3,0,0,0,2.3-2.26" transform="translate(91.204 22.507)" fill="#bcf6ff"/>
          <path id="Trazado_194888" data-name="Trazado 194888" d="M70.788,105.225a2.3,2.3,0,1,0-2.3,2.26,2.3,2.3,0,0,0,2.3-2.26" transform="translate(104.234 22.507)" fill="#bcf6ff"/>
          <path id="Trazado_194889" data-name="Trazado 194889" d="M4.609,113.5a2.284,2.284,0,0,0-2.3-2.26,2.26,2.26,0,0,0,0,4.52,2.284,2.284,0,0,0,2.3-2.26" transform="translate(-0.002 35.142)" fill="#bcf6ff"/>
          <path id="Trazado_194890" data-name="Trazado 194890" d="M12.879,113.5a2.3,2.3,0,1,0-2.3,2.26,2.3,2.3,0,0,0,2.3-2.26" transform="translate(13.028 35.146)" fill="#bcf6ff"/>
          <path id="Trazado_194891" data-name="Trazado 194891" d="M21.152,113.5a2.3,2.3,0,1,0-2.3,2.26,2.3,2.3,0,0,0,2.3-2.26" transform="translate(26.059 35.146)" fill="#bcf6ff"/>
          <path id="Trazado_194892" data-name="Trazado 194892" d="M29.425,113.5a2.3,2.3,0,1,0-2.3,2.26,2.3,2.3,0,0,0,2.3-2.26" transform="translate(39.088 35.146)" fill="#bcf6ff"/>
          <path id="Trazado_194893" data-name="Trazado 194893" d="M37.7,113.5a2.3,2.3,0,1,0-2.3,2.26,2.3,2.3,0,0,0,2.3-2.26" transform="translate(52.116 35.146)" fill="#bcf6ff"/>
          <path id="Trazado_194894" data-name="Trazado 194894" d="M45.966,113.5a2.3,2.3,0,1,0-2.3,2.26,2.3,2.3,0,0,0,2.3-2.26" transform="translate(65.146 35.146)" fill="#bcf6ff"/>
          <path id="Trazado_194895" data-name="Trazado 194895" d="M54.242,113.5a2.3,2.3,0,1,0-2.3,2.26,2.3,2.3,0,0,0,2.3-2.26" transform="translate(78.175 35.146)" fill="#bcf6ff"/>
          <path id="Trazado_194896" data-name="Trazado 194896" d="M62.515,113.5a2.3,2.3,0,1,0-2.3,2.26,2.3,2.3,0,0,0,2.3-2.26" transform="translate(91.204 35.146)" fill="#bcf6ff"/>
          <path id="Trazado_194897" data-name="Trazado 194897" d="M70.788,113.5a2.3,2.3,0,1,0-2.3,2.26,2.3,2.3,0,0,0,2.3-2.26" transform="translate(104.234 35.146)" fill="#bcf6ff"/>
          <path id="Trazado_194898" data-name="Trazado 194898" d="M4.609,121.774a2.284,2.284,0,0,0-2.3-2.26,2.26,2.26,0,0,0,0,4.52,2.284,2.284,0,0,0,2.3-2.26" transform="translate(-0.002 47.78)" fill="#bcf6ff"/>
          <path id="Trazado_194899" data-name="Trazado 194899" d="M12.879,121.77a2.3,2.3,0,1,0-2.3,2.26,2.3,2.3,0,0,0,2.3-2.26" transform="translate(13.028 47.784)" fill="#bcf6ff"/>
          <path id="Trazado_194900" data-name="Trazado 194900" d="M21.152,121.77a2.3,2.3,0,1,0-2.3,2.26,2.3,2.3,0,0,0,2.3-2.26" transform="translate(26.059 47.784)" fill="#bcf6ff"/>
          <path id="Trazado_194901" data-name="Trazado 194901" d="M29.425,121.77a2.3,2.3,0,1,0-2.3,2.26,2.3,2.3,0,0,0,2.3-2.26" transform="translate(39.088 47.784)" fill="#bcf6ff"/>
          <path id="Trazado_194902" data-name="Trazado 194902" d="M37.7,121.77a2.3,2.3,0,1,0-2.3,2.26,2.3,2.3,0,0,0,2.3-2.26" transform="translate(52.116 47.784)" fill="#bcf6ff"/>
          <path id="Trazado_194903" data-name="Trazado 194903" d="M45.966,121.77a2.3,2.3,0,1,0-2.3,2.26,2.3,2.3,0,0,0,2.3-2.26" transform="translate(65.146 47.784)" fill="#bcf6ff"/>
          <path id="Trazado_194904" data-name="Trazado 194904" d="M54.242,121.77a2.3,2.3,0,1,0-2.3,2.26,2.3,2.3,0,0,0,2.3-2.26" transform="translate(78.175 47.784)" fill="#bcf6ff"/>
          <path id="Trazado_194905" data-name="Trazado 194905" d="M62.515,121.77a2.3,2.3,0,1,0-2.3,2.26,2.3,2.3,0,0,0,2.3-2.26" transform="translate(91.204 47.784)" fill="#bcf6ff"/>
          <path id="Trazado_194906" data-name="Trazado 194906" d="M70.788,121.77a2.3,2.3,0,1,0-2.3,2.26,2.3,2.3,0,0,0,2.3-2.26" transform="translate(104.234 47.784)" fill="#bcf6ff"/>
        </g>
      </g>
      <g id="Grupo_154805" data-name="Grupo 154805" transform="translate(150.083 0)">
        <g id="Grupo_152768-2" data-name="Grupo 152768" transform="translate(0)" clip-path="url(#clip-path-2)">
          <path id="Trazado_194826-2" data-name="Trazado 194826" d="M2.228,54.443a1.113,1.113,0,1,0-1.113,1.114,1.113,1.113,0,0,0,1.113-1.114" transform="translate(0 -53.333)" fill="#7f4fc7"/>
          <path id="Trazado_194827-2" data-name="Trazado 194827" d="M10.5,54.443a1.113,1.113,0,1,0-1.113,1.114A1.113,1.113,0,0,0,10.5,54.443" transform="translate(2.028 -53.333)" fill="#7f4fc7"/>
          <path id="Trazado_194828-2" data-name="Trazado 194828" d="M18.773,54.443a1.113,1.113,0,1,0-1.113,1.114,1.113,1.113,0,0,0,1.113-1.114" transform="translate(4.056 -53.333)" fill="#7f4fc7"/>
          <path id="Trazado_194829-2" data-name="Trazado 194829" d="M27.046,54.443a1.113,1.113,0,1,0-1.113,1.114,1.113,1.113,0,0,0,1.113-1.114" transform="translate(6.083 -53.333)" fill="#7f4fc7"/>
          <path id="Trazado_194830-2" data-name="Trazado 194830" d="M35.318,54.443A1.113,1.113,0,1,0,34.2,55.558a1.113,1.113,0,0,0,1.113-1.114" transform="translate(8.111 -53.333)" fill="#7f4fc7"/>
          <path id="Trazado_194831-2" data-name="Trazado 194831" d="M43.587,54.443a1.113,1.113,0,1,0-1.113,1.114,1.113,1.113,0,0,0,1.113-1.114" transform="translate(10.139 -53.333)" fill="#7f4fc7"/>
          <path id="Trazado_194832-2" data-name="Trazado 194832" d="M51.863,54.443a1.113,1.113,0,1,0-1.113,1.114,1.113,1.113,0,0,0,1.113-1.114" transform="translate(12.167 -53.333)" fill="#7f4fc7"/>
          <path id="Trazado_194833-2" data-name="Trazado 194833" d="M60.136,54.443a1.113,1.113,0,1,0-1.113,1.114,1.113,1.113,0,0,0,1.113-1.114" transform="translate(14.194 -53.333)" fill="#7f4fc7"/>
          <path id="Trazado_194834-2" data-name="Trazado 194834" d="M68.409,54.443A1.113,1.113,0,1,0,67.3,55.558a1.113,1.113,0,0,0,1.113-1.114" transform="translate(16.222 -53.333)" fill="#7f4fc7"/>
          <path id="Trazado_194835-2" data-name="Trazado 194835" d="M2.228,62.719a1.112,1.112,0,1,0-.326.788,1.113,1.113,0,0,0,.326-.788" transform="translate(0 -51.305)" fill="#7f4fc7"/>
          <path id="Trazado_194836-2" data-name="Trazado 194836" d="M10.5,62.719a1.112,1.112,0,1,0-.326.788,1.113,1.113,0,0,0,.326-.788" transform="translate(2.028 -51.305)" fill="#7f4fc7"/>
          <path id="Trazado_194837-2" data-name="Trazado 194837" d="M18.773,62.719a1.112,1.112,0,1,0-.326.788,1.113,1.113,0,0,0,.326-.788" transform="translate(4.056 -51.305)" fill="#7f4fc7"/>
          <path id="Trazado_194838-2" data-name="Trazado 194838" d="M27.046,62.719a1.112,1.112,0,1,0-.326.788,1.113,1.113,0,0,0,.326-.788" transform="translate(6.083 -51.305)" fill="#7f4fc7"/>
          <path id="Trazado_194839-2" data-name="Trazado 194839" d="M35.318,62.719a1.112,1.112,0,1,0-.326.788,1.113,1.113,0,0,0,.326-.788" transform="translate(8.111 -51.305)" fill="#7f4fc7"/>
          <path id="Trazado_194840-2" data-name="Trazado 194840" d="M43.587,62.719a1.112,1.112,0,1,0-.326.788,1.113,1.113,0,0,0,.326-.788" transform="translate(10.139 -51.305)" fill="#7f4fc7"/>
          <path id="Trazado_194841-2" data-name="Trazado 194841" d="M51.863,62.719a1.112,1.112,0,1,0-.326.788,1.113,1.113,0,0,0,.326-.788" transform="translate(12.167 -51.305)" fill="#7f4fc7"/>
          <path id="Trazado_194842-2" data-name="Trazado 194842" d="M60.136,62.719a1.113,1.113,0,1,0-1.113,1.113,1.113,1.113,0,0,0,1.113-1.113" transform="translate(14.194 -51.305)" fill="#7f4fc7"/>
          <path id="Trazado_194843-2" data-name="Trazado 194843" d="M68.409,62.719a1.112,1.112,0,1,0-.326.788,1.113,1.113,0,0,0,.326-.788" transform="translate(16.222 -51.305)" fill="#7f4fc7"/>
          <path id="Trazado_194844-2" data-name="Trazado 194844" d="M2.228,70.992a1.112,1.112,0,1,0-.326.788,1.113,1.113,0,0,0,.326-.788" transform="translate(0 -49.277)" fill="#7f4fc7"/>
          <path id="Trazado_194845-2" data-name="Trazado 194845" d="M10.5,70.992a1.112,1.112,0,1,0-.326.788,1.113,1.113,0,0,0,.326-.788" transform="translate(2.028 -49.277)" fill="#7f4fc7"/>
          <path id="Trazado_194846-2" data-name="Trazado 194846" d="M18.773,70.992a1.112,1.112,0,1,0-.326.788,1.113,1.113,0,0,0,.326-.788" transform="translate(4.056 -49.277)" fill="#7f4fc7"/>
          <path id="Trazado_194847-2" data-name="Trazado 194847" d="M27.046,70.992a1.112,1.112,0,1,0-.326.788,1.113,1.113,0,0,0,.326-.788" transform="translate(6.083 -49.277)" fill="#7f4fc7"/>
          <path id="Trazado_194848-2" data-name="Trazado 194848" d="M35.318,70.992a1.112,1.112,0,1,0-.326.788,1.113,1.113,0,0,0,.326-.788" transform="translate(8.111 -49.277)" fill="#7f4fc7"/>
          <path id="Trazado_194849-2" data-name="Trazado 194849" d="M43.587,70.992a1.112,1.112,0,1,0-.326.788,1.113,1.113,0,0,0,.326-.788" transform="translate(10.139 -49.277)" fill="#7f4fc7"/>
          <path id="Trazado_194850-2" data-name="Trazado 194850" d="M51.863,70.992a1.112,1.112,0,1,0-.326.788,1.113,1.113,0,0,0,.326-.788" transform="translate(12.167 -49.277)" fill="#7f4fc7"/>
          <path id="Trazado_194851-2" data-name="Trazado 194851" d="M60.136,70.992a1.113,1.113,0,1,0-1.113,1.113,1.113,1.113,0,0,0,1.113-1.113" transform="translate(14.194 -49.277)" fill="#7f4fc7"/>
          <path id="Trazado_194852-2" data-name="Trazado 194852" d="M68.409,70.992a1.112,1.112,0,1,0-.326.788,1.113,1.113,0,0,0,.326-.788" transform="translate(16.222 -49.277)" fill="#7f4fc7"/>
          <path id="Trazado_194853-2" data-name="Trazado 194853" d="M2.228,79.264a1.112,1.112,0,1,0-.326.788,1.113,1.113,0,0,0,.326-.788" transform="translate(0 -47.25)" fill="#7f4fc7"/>
          <path id="Trazado_194854-2" data-name="Trazado 194854" d="M10.5,79.264a1.112,1.112,0,1,0-.326.788,1.113,1.113,0,0,0,.326-.788" transform="translate(2.028 -47.25)" fill="#7f4fc7"/>
          <path id="Trazado_194855-2" data-name="Trazado 194855" d="M18.773,79.264a1.112,1.112,0,1,0-.326.788,1.113,1.113,0,0,0,.326-.788" transform="translate(4.056 -47.25)" fill="#7f4fc7"/>
          <path id="Trazado_194856-2" data-name="Trazado 194856" d="M27.046,79.264a1.112,1.112,0,1,0-.326.788,1.113,1.113,0,0,0,.326-.788" transform="translate(6.083 -47.25)" fill="#7f4fc7"/>
          <path id="Trazado_194857-2" data-name="Trazado 194857" d="M35.318,79.264a1.112,1.112,0,1,0-.326.788,1.113,1.113,0,0,0,.326-.788" transform="translate(8.111 -47.25)" fill="#7f4fc7"/>
          <path id="Trazado_194858-2" data-name="Trazado 194858" d="M43.587,79.264a1.112,1.112,0,1,0-.326.788,1.113,1.113,0,0,0,.326-.788" transform="translate(10.139 -47.25)" fill="#7f4fc7"/>
          <path id="Trazado_194859-2" data-name="Trazado 194859" d="M51.863,79.264a1.112,1.112,0,1,0-.326.788,1.113,1.113,0,0,0,.326-.788" transform="translate(12.167 -47.25)" fill="#7f4fc7"/>
          <path id="Trazado_194860-2" data-name="Trazado 194860" d="M60.136,79.264a1.113,1.113,0,1,0-1.113,1.113,1.113,1.113,0,0,0,1.113-1.113" transform="translate(14.194 -47.25)" fill="#7f4fc7"/>
          <path id="Trazado_194861-2" data-name="Trazado 194861" d="M68.409,79.264a1.112,1.112,0,1,0-.326.788,1.113,1.113,0,0,0,.326-.788" transform="translate(16.222 -47.25)" fill="#7f4fc7"/>
          <path id="Trazado_194862-2" data-name="Trazado 194862" d="M2.228,87.537a1.112,1.112,0,1,0-.325.788,1.113,1.113,0,0,0,.325-.788" transform="translate(0 -45.222)" fill="#7f4fc7"/>
          <path id="Trazado_194863-2" data-name="Trazado 194863" d="M10.5,87.537a1.112,1.112,0,1,0-.325.788,1.113,1.113,0,0,0,.325-.788" transform="translate(2.028 -45.222)" fill="#7f4fc7"/>
          <path id="Trazado_194864-2" data-name="Trazado 194864" d="M18.773,87.537a1.112,1.112,0,1,0-.325.788,1.113,1.113,0,0,0,.325-.788" transform="translate(4.056 -45.222)" fill="#7f4fc7"/>
          <path id="Trazado_194865-2" data-name="Trazado 194865" d="M27.046,87.537a1.112,1.112,0,1,0-.325.788,1.113,1.113,0,0,0,.325-.788" transform="translate(6.083 -45.222)" fill="#7f4fc7"/>
          <path id="Trazado_194866-2" data-name="Trazado 194866" d="M35.318,87.537a1.112,1.112,0,1,0-.325.788,1.113,1.113,0,0,0,.325-.788" transform="translate(8.111 -45.222)" fill="#7f4fc7"/>
          <path id="Trazado_194867-2" data-name="Trazado 194867" d="M43.587,87.537a1.112,1.112,0,1,0-.325.788,1.113,1.113,0,0,0,.325-.788" transform="translate(10.139 -45.222)" fill="#7f4fc7"/>
          <path id="Trazado_194868-2" data-name="Trazado 194868" d="M51.863,87.537a1.112,1.112,0,1,0-.325.788,1.113,1.113,0,0,0,.325-.788" transform="translate(12.167 -45.222)" fill="#7f4fc7"/>
          <path id="Trazado_194869-2" data-name="Trazado 194869" d="M60.136,87.537a1.113,1.113,0,1,0-1.113,1.114,1.113,1.113,0,0,0,1.113-1.114" transform="translate(14.194 -45.222)" fill="#7f4fc7"/>
          <path id="Trazado_194870-2" data-name="Trazado 194870" d="M68.409,87.537a1.112,1.112,0,1,0-.325.788,1.113,1.113,0,0,0,.325-.788" transform="translate(16.222 -45.222)" fill="#7f4fc7"/>
          <path id="Trazado_194871-2" data-name="Trazado 194871" d="M2.228,95.81A1.112,1.112,0,1,0,1.9,96.6a1.113,1.113,0,0,0,.326-.788" transform="translate(0 -43.194)" fill="#7f4fc7"/>
          <path id="Trazado_194872-2" data-name="Trazado 194872" d="M10.5,95.81a1.112,1.112,0,1,0-.326.788,1.113,1.113,0,0,0,.326-.788" transform="translate(2.028 -43.194)" fill="#7f4fc7"/>
          <path id="Trazado_194873-2" data-name="Trazado 194873" d="M18.773,95.81a1.112,1.112,0,1,0-.326.788,1.113,1.113,0,0,0,.326-.788" transform="translate(4.056 -43.194)" fill="#7f4fc7"/>
          <path id="Trazado_194874-2" data-name="Trazado 194874" d="M27.046,95.81a1.112,1.112,0,1,0-.326.788,1.113,1.113,0,0,0,.326-.788" transform="translate(6.083 -43.194)" fill="#7f4fc7"/>
          <path id="Trazado_194875-2" data-name="Trazado 194875" d="M35.318,95.81a1.112,1.112,0,1,0-.326.788,1.113,1.113,0,0,0,.326-.788" transform="translate(8.111 -43.194)" fill="#7f4fc7"/>
          <path id="Trazado_194876-2" data-name="Trazado 194876" d="M43.587,95.81a1.112,1.112,0,1,0-.326.788,1.113,1.113,0,0,0,.326-.788" transform="translate(10.139 -43.194)" fill="#7f4fc7"/>
          <path id="Trazado_194877-2" data-name="Trazado 194877" d="M51.863,95.81a1.112,1.112,0,1,0-.326.788,1.113,1.113,0,0,0,.326-.788" transform="translate(12.167 -43.194)" fill="#7f4fc7"/>
          <path id="Trazado_194878-2" data-name="Trazado 194878" d="M60.136,95.81a1.113,1.113,0,1,0-1.113,1.113,1.113,1.113,0,0,0,1.113-1.113" transform="translate(14.194 -43.194)" fill="#7f4fc7"/>
          <path id="Trazado_194879-2" data-name="Trazado 194879" d="M68.409,95.81a1.112,1.112,0,1,0-.326.788,1.113,1.113,0,0,0,.326-.788" transform="translate(16.222 -43.194)" fill="#7f4fc7"/>
          <path id="Trazado_194880-2" data-name="Trazado 194880" d="M2.228,104.082a1.112,1.112,0,1,0-.326.788,1.113,1.113,0,0,0,.326-.788" transform="translate(0 -41.166)" fill="#7f4fc7"/>
          <path id="Trazado_194881-2" data-name="Trazado 194881" d="M10.5,104.082a1.112,1.112,0,1,0-.326.788,1.113,1.113,0,0,0,.326-.788" transform="translate(2.028 -41.166)" fill="#7f4fc7"/>
          <path id="Trazado_194882-2" data-name="Trazado 194882" d="M18.773,104.082a1.112,1.112,0,1,0-.326.788,1.113,1.113,0,0,0,.326-.788" transform="translate(4.056 -41.166)" fill="#7f4fc7"/>
          <path id="Trazado_194883-2" data-name="Trazado 194883" d="M27.046,104.082a1.112,1.112,0,1,0-.326.788,1.113,1.113,0,0,0,.326-.788" transform="translate(6.083 -41.166)" fill="#7f4fc7"/>
          <path id="Trazado_194884-2" data-name="Trazado 194884" d="M35.318,104.082a1.112,1.112,0,1,0-.326.788,1.113,1.113,0,0,0,.326-.788" transform="translate(8.111 -41.166)" fill="#7f4fc7"/>
          <path id="Trazado_194885-2" data-name="Trazado 194885" d="M43.587,104.082a1.112,1.112,0,1,0-.326.788,1.113,1.113,0,0,0,.326-.788" transform="translate(10.139 -41.166)" fill="#7f4fc7"/>
          <path id="Trazado_194886-2" data-name="Trazado 194886" d="M51.863,104.082a1.112,1.112,0,1,0-.326.788,1.113,1.113,0,0,0,.326-.788" transform="translate(12.167 -41.166)" fill="#7f4fc7"/>
          <path id="Trazado_194887-2" data-name="Trazado 194887" d="M60.136,104.082a1.113,1.113,0,1,0-1.113,1.113,1.113,1.113,0,0,0,1.113-1.113" transform="translate(14.194 -41.166)" fill="#7f4fc7"/>
          <path id="Trazado_194888-2" data-name="Trazado 194888" d="M68.409,104.082a1.112,1.112,0,1,0-.326.788,1.113,1.113,0,0,0,.326-.788" transform="translate(16.222 -41.166)" fill="#7f4fc7"/>
          <path id="Trazado_194889-2" data-name="Trazado 194889" d="M2.228,112.355a1.112,1.112,0,1,0-.326.788,1.113,1.113,0,0,0,.326-.788" transform="translate(0 -39.138)" fill="#7f4fc7"/>
          <path id="Trazado_194890-2" data-name="Trazado 194890" d="M10.5,112.355a1.112,1.112,0,1,0-.326.788,1.113,1.113,0,0,0,.326-.788" transform="translate(2.028 -39.138)" fill="#7f4fc7"/>
          <path id="Trazado_194891-2" data-name="Trazado 194891" d="M18.773,112.355a1.112,1.112,0,1,0-.326.788,1.113,1.113,0,0,0,.326-.788" transform="translate(4.056 -39.138)" fill="#7f4fc7"/>
          <path id="Trazado_194892-2" data-name="Trazado 194892" d="M27.046,112.355a1.112,1.112,0,1,0-.326.788,1.113,1.113,0,0,0,.326-.788" transform="translate(6.083 -39.138)" fill="#7f4fc7"/>
          <path id="Trazado_194893-2" data-name="Trazado 194893" d="M35.318,112.355a1.112,1.112,0,1,0-.326.788,1.113,1.113,0,0,0,.326-.788" transform="translate(8.111 -39.138)" fill="#7f4fc7"/>
          <path id="Trazado_194894-2" data-name="Trazado 194894" d="M43.587,112.355a1.112,1.112,0,1,0-.326.788,1.113,1.113,0,0,0,.326-.788" transform="translate(10.139 -39.138)" fill="#7f4fc7"/>
          <path id="Trazado_194895-2" data-name="Trazado 194895" d="M51.863,112.355a1.112,1.112,0,1,0-.326.788,1.113,1.113,0,0,0,.326-.788" transform="translate(12.167 -39.138)" fill="#7f4fc7"/>
          <path id="Trazado_194896-2" data-name="Trazado 194896" d="M60.136,112.355a1.113,1.113,0,1,0-1.113,1.113,1.113,1.113,0,0,0,1.113-1.113" transform="translate(14.194 -39.138)" fill="#7f4fc7"/>
          <path id="Trazado_194897-2" data-name="Trazado 194897" d="M68.409,112.355a1.112,1.112,0,1,0-.326.788,1.113,1.113,0,0,0,.326-.788" transform="translate(16.222 -39.138)" fill="#7f4fc7"/>
          <path id="Trazado_194898-2" data-name="Trazado 194898" d="M2.228,120.627a1.112,1.112,0,1,0-.326.788,1.113,1.113,0,0,0,.326-.788" transform="translate(0 -37.111)" fill="#7f4fc7"/>
          <path id="Trazado_194899-2" data-name="Trazado 194899" d="M10.5,120.627a1.112,1.112,0,1,0-.326.788,1.113,1.113,0,0,0,.326-.788" transform="translate(2.028 -37.111)" fill="#7f4fc7"/>
          <path id="Trazado_194900-2" data-name="Trazado 194900" d="M18.773,120.627a1.112,1.112,0,1,0-.326.788,1.113,1.113,0,0,0,.326-.788" transform="translate(4.056 -37.111)" fill="#7f4fc7"/>
          <path id="Trazado_194901-2" data-name="Trazado 194901" d="M27.046,120.627a1.112,1.112,0,1,0-.326.788,1.113,1.113,0,0,0,.326-.788" transform="translate(6.083 -37.111)" fill="#7f4fc7"/>
          <path id="Trazado_194902-2" data-name="Trazado 194902" d="M35.318,120.627a1.112,1.112,0,1,0-.326.788,1.113,1.113,0,0,0,.326-.788" transform="translate(8.111 -37.111)" fill="#7f4fc7"/>
          <path id="Trazado_194903-2" data-name="Trazado 194903" d="M43.587,120.627a1.112,1.112,0,1,0-.326.788,1.113,1.113,0,0,0,.326-.788" transform="translate(10.139 -37.111)" fill="#7f4fc7"/>
          <path id="Trazado_194904-2" data-name="Trazado 194904" d="M51.863,120.627a1.112,1.112,0,1,0-.326.788,1.113,1.113,0,0,0,.326-.788" transform="translate(12.167 -37.111)" fill="#7f4fc7"/>
          <path id="Trazado_194905-2" data-name="Trazado 194905" d="M60.136,120.627a1.113,1.113,0,1,0-1.113,1.113,1.113,1.113,0,0,0,1.113-1.113" transform="translate(14.194 -37.111)" fill="#7f4fc7"/>
          <path id="Trazado_194906-2" data-name="Trazado 194906" d="M68.409,120.627a1.112,1.112,0,1,0-.326.788,1.113,1.113,0,0,0,.326-.788" transform="translate(16.222 -37.111)" fill="#7f4fc7"/>
        </g>
      </g>
      <g id="Grupo_155254" data-name="Grupo 155254" transform="translate(28.76 403.11)">
        <g id="Grupo_154318" data-name="Grupo 154318">
          <g id="Grupo_154315" data-name="Grupo 154315" transform="translate(32.747 9.551)">
            <path id="Trazado_195058" data-name="Trazado 195058" d="M14.017,225.789H54.543a1.523,1.523,0,0,0,0-3.038H14.017a1.523,1.523,0,1,0,0,3.038" transform="translate(-12.394 -222.747)" fill="#12263f"/>
            <path id="Trazado_195059" data-name="Trazado 195059" d="M83.974,225.789H94.206a1.523,1.523,0,0,0,0-3.038H83.974a1.523,1.523,0,1,0,0,3.038" transform="translate(-35.06 -222.747)" fill="#12263f"/>
            <path id="Trazado_195064" data-name="Trazado 195064" d="M112.811,232.612H84.346a1.067,1.067,0,1,0,0,2.134h28.469a1.067,1.067,0,1,0,0-2.134" transform="translate(-35.33 -225.943)" fill="#12263f"/>
            <path id="Trazado_195065" data-name="Trazado 195065" d="M73.867,232.612H66.681a1.067,1.067,0,1,0,0,2.134h7.186a1.067,1.067,0,1,0,0-2.134" transform="translate(-29.607 -225.943)" fill="#12263f"/>
          </g>
          <g id="Grupo_154316" data-name="Grupo 154316">
            <path id="Trazado_195062" data-name="Trazado 195062" d="M161.607,1.333H113.762c-.991,0-1.793.476-1.793,1.067s.8,1.068,1.793,1.068h47.845c.991,0,1.794-.476,1.794-1.068s-.8-1.067-1.794-1.067" transform="translate(-80.777 -1.333)" fill="#12263f"/>
            <path id="Trazado_195063" data-name="Trazado 195063" d="M115.873,1.333H97.1c-1.541,0-2.787.476-2.787,1.067S95.556,3.467,97.1,3.467h18.777c1.541,0,2.787-.476,2.787-1.068s-1.247-1.067-2.787-1.067" transform="translate(-94.309 -1.333)" fill="#12263f"/>
          </g>
        </g>
      </g>
      <g id="Grupo_154801" data-name="Grupo 154801" transform="translate(0 386.815)">
        <g id="Grupo_154721" data-name="Grupo 154721" clip-path="url(#clip-path-3)">
          <line id="Línea_1878" data-name="Línea 1878" x1="21.605" y2="101.839" transform="translate(61.14 29.463)" fill="none" stroke="#1e0b4a" stroke-linecap="round" stroke-linejoin="round" stroke-width="1.052"/>
          <path id="Trazado_196481" data-name="Trazado 196481" d="M238.009,274.732a8.116,8.116,0,1,1-8.116-8.116,8.116,8.116,0,0,1,8.116,8.116" transform="translate(-147.148 -245.268)" fill="#7de6f6"/>
          <path id="Trazado_196482" data-name="Trazado 196482" d="M250.969,334.8c-8.993,25.883-37.317,39.553-37.317,39.553s-13.743-28.29-4.749-54.171,37.317-39.552,37.317-39.552,13.743,28.289,4.749,54.17" transform="translate(-144.709 -243.048)" fill="#12263f"/>
          <path id="Trazado_196483" data-name="Trazado 196483" d="M294.477,324.773c4.17,39.347-24.428,74.631-24.428,74.631s-35.357-28.508-39.526-67.855,24.429-74.631,24.429-74.631,35.356,28.508,39.525,67.855" transform="translate(-213.683 -246.805)" fill="#7de6f6"/>
          <path id="Trazado_196484" data-name="Trazado 196484" d="M301.225,323.107A14.827,14.827,0,1,1,286.4,308.28a14.827,14.827,0,0,1,14.827,14.827" transform="translate(-268.053 -238.666)" fill="#12263f"/>
          <line id="Línea_1879" data-name="Línea 1879" x2="14.585" y2="137.648" transform="translate(41.781 14.95)" fill="none" stroke="#1e0b4a" stroke-linecap="round" stroke-linejoin="round" stroke-width="1.052"/>
          <line id="Línea_1880" data-name="Línea 1880" y1="17.929" x2="27.876" transform="translate(50.522 79.509)" fill="none" stroke="#1e0b4a" stroke-linecap="round" stroke-linejoin="round" stroke-width="1.052"/>
          <line id="Línea_1881" data-name="Línea 1881" x1="23.957" y1="12.551" transform="translate(22.858 49.911)" fill="none" stroke="#1e0b4a" stroke-linecap="round" stroke-linejoin="round" stroke-width="1.052"/>
          <line id="Línea_1882" data-name="Línea 1882" x2="26.068" y2="53.467" transform="translate(18.345 84.441)" fill="none" stroke="#1e0b4a" stroke-linecap="round" stroke-linejoin="round" stroke-width="1.052"/>
        </g>
      </g>
      <g id="Grupo_155255" data-name="Grupo 155255" transform="translate(0.001 23.371)">
        <g id="Grupo_154317" data-name="Grupo 154317">
          <g id="Grupo_154315-2" data-name="Grupo 154315" transform="translate(47.652 8.224)">
            <path id="Trazado_195058-2" data-name="Trazado 195058" d="M14.7,227.158H73.5a2.2,2.2,0,1,0,0-4.407H14.7a2.2,2.2,0,1,0,0,4.407" transform="translate(-12.5 -222.751)" fill="#255f68"/>
            <path id="Trazado_195059-2" data-name="Trazado 195059" d="M84.665,227.158H99.51a2.2,2.2,0,1,0,0-4.407H84.665a2.2,2.2,0,1,0,0,4.407" transform="translate(-13.851 -222.751)" fill="#255f68"/>
            <path id="Trazado_195064-2" data-name="Trazado 195064" d="M126.12,232.612h-41.3a1.548,1.548,0,1,0,0,3.1h41.3a1.548,1.548,0,0,0,0-3.1" transform="translate(-13.866 -222.941)" fill="#255f68"/>
            <path id="Trazado_195065-2" data-name="Trazado 195065" d="M77.591,232.612H67.161a1.548,1.548,0,1,0,0,3.1H77.591a1.548,1.548,0,0,0,0-3.1" transform="translate(-13.525 -222.941)" fill="#255f68"/>
          </g>
          <g id="Grupo_154316-2" data-name="Grupo 154316">
            <path id="Trazado_195062-2" data-name="Trazado 195062" d="M183.977,1.333h-69.41c-1.437,0-2.6.694-2.6,1.547s1.164,1.548,2.6,1.548h69.408c1.437,0,2.6-.694,2.6-1.548s-1.166-1.547-2.6-1.547" transform="translate(-66.719 -1.333)" fill="#255f68"/>
            <path id="Trazado_195063-2" data-name="Trazado 195063" d="M125.591,1.333H98.352c-2.234,0-4.043.694-4.043,1.547s1.808,1.548,4.043,1.548h27.239c2.234,0,4.043-.694,4.043-1.548s-1.808-1.547-4.043-1.547" transform="translate(-94.309 -1.333)" fill="#255f68"/>
          </g>
        </g>
      </g>
      <g id="Grupo_155256" data-name="Grupo 155256" transform="translate(201.709 155.617)">
        <rect id="Rectángulo_45220" data-name="Rectángulo 45220" width="106.857" height="25.376" transform="translate(48.291) rotate(90)" fill="#433c74"/>
        <rect id="Rectángulo_45221" data-name="Rectángulo 45221" width="3.287" height="3.287" transform="translate(0 23.055) rotate(-90)" fill="#b1ace0"/>
        <rect id="Rectángulo_45222" data-name="Rectángulo 45222" width="3.287" height="3.287" transform="translate(0 30.038) rotate(-90)" fill="#b1ace0"/>
        <rect id="Rectángulo_45223" data-name="Rectángulo 45223" width="3.287" height="3.287" transform="translate(0 37.022) rotate(-90)" fill="#b1ace0"/>
        <rect id="Rectángulo_45224" data-name="Rectángulo 45224" width="3.286" height="3.287" transform="translate(0 44.005) rotate(-90)" fill="#b1ace0"/>
        <rect id="Rectángulo_45225" data-name="Rectángulo 45225" width="3.287" height="3.287" transform="translate(0 50.989) rotate(-90)" fill="#b1ace0"/>
        <rect id="Rectángulo_45226" data-name="Rectángulo 45226" width="3.286" height="3.287" transform="translate(0 57.972) rotate(-90)" fill="#b1ace0"/>
        <rect id="Rectángulo_45227" data-name="Rectángulo 45227" width="3.287" height="3.287" transform="translate(0 64.955) rotate(-90)" fill="#b1ace0"/>
        <rect id="Rectángulo_45228" data-name="Rectángulo 45228" width="3.286" height="3.287" transform="translate(0 71.939) rotate(-90)" fill="#b1ace0"/>
        <rect id="Rectángulo_45229" data-name="Rectángulo 45229" width="3.287" height="3.287" transform="translate(0 78.923) rotate(-90)" fill="#b1ace0"/>
        <rect id="Rectángulo_46135" data-name="Rectángulo 46135" width="3.287" height="3.287" transform="translate(0 99.873) rotate(-90)" fill="#b1ace0"/>
        <rect id="Rectángulo_46159" data-name="Rectángulo 46159" width="3.287" height="3.287" transform="translate(0 120.824) rotate(-90)" fill="#b1ace0"/>
        <rect id="Rectángulo_45230" data-name="Rectángulo 45230" width="3.287" height="3.287" transform="translate(0 85.906) rotate(-90)" fill="#b1ace0"/>
        <rect id="Rectángulo_46125" data-name="Rectángulo 46125" width="3.287" height="3.287" transform="translate(0 106.857) rotate(-90)" fill="#b1ace0"/>
        <rect id="Rectángulo_46160" data-name="Rectángulo 46160" width="3.287" height="3.287" transform="translate(0 127.807) rotate(-90)" fill="#b1ace0"/>
        <rect id="Rectángulo_46168" data-name="Rectángulo 46168" width="3.287" height="3.287" transform="translate(0 141.773) rotate(-90)" fill="#b1ace0"/>
        <rect id="Rectángulo_45231" data-name="Rectángulo 45231" width="3.287" height="3.287" transform="translate(0 92.889) rotate(-90)" fill="#b1ace0"/>
        <rect id="Rectángulo_46123" data-name="Rectángulo 46123" width="3.287" height="3.287" transform="translate(0 113.84) rotate(-90)" fill="#b1ace0"/>
        <rect id="Rectángulo_46161" data-name="Rectángulo 46161" width="3.287" height="3.287" transform="translate(0 134.79) rotate(-90)" fill="#b1ace0"/>
        <rect id="Rectángulo_46162" data-name="Rectángulo 46162" width="3.287" height="3.287" transform="translate(0 148.757) rotate(-90)" fill="#b1ace0"/>
        <rect id="Rectángulo_45232" data-name="Rectángulo 45232" width="3.287" height="3.287" transform="translate(6.984 23.055) rotate(-90)" fill="#b1ace0"/>
        <rect id="Rectángulo_45233" data-name="Rectángulo 45233" width="3.287" height="3.287" transform="translate(6.984 30.038) rotate(-90)" fill="#b1ace0"/>
        <rect id="Rectángulo_45234" data-name="Rectángulo 45234" width="3.287" height="3.287" transform="translate(6.984 37.022) rotate(-90)" fill="#b1ace0"/>
        <rect id="Rectángulo_45235" data-name="Rectángulo 45235" width="3.286" height="3.287" transform="translate(6.984 44.005) rotate(-90)" fill="#b1ace0"/>
        <rect id="Rectángulo_45236" data-name="Rectángulo 45236" width="3.287" height="3.287" transform="translate(6.984 50.989) rotate(-90)" fill="#b1ace0"/>
        <rect id="Rectángulo_45237" data-name="Rectángulo 45237" width="3.286" height="3.287" transform="translate(6.984 57.972) rotate(-90)" fill="#b1ace0"/>
        <rect id="Rectángulo_45238" data-name="Rectángulo 45238" width="3.287" height="3.287" transform="translate(6.984 64.955) rotate(-90)" fill="#b1ace0"/>
        <rect id="Rectángulo_45239" data-name="Rectángulo 45239" width="3.286" height="3.287" transform="translate(6.984 71.939) rotate(-90)" fill="#b1ace0"/>
        <rect id="Rectángulo_45240" data-name="Rectángulo 45240" width="3.287" height="3.287" transform="translate(6.984 78.923) rotate(-90)" fill="#b1ace0"/>
        <rect id="Rectángulo_46136" data-name="Rectángulo 46136" width="3.287" height="3.287" transform="translate(6.984 99.873) rotate(-90)" fill="#b1ace0"/>
        <rect id="Rectángulo_46156" data-name="Rectángulo 46156" width="3.287" height="3.287" transform="translate(6.984 120.824) rotate(-90)" fill="#b1ace0"/>
        <rect id="Rectángulo_45241" data-name="Rectángulo 45241" width="3.287" height="3.287" transform="translate(6.984 85.906) rotate(-90)" fill="#b1ace0"/>
        <rect id="Rectángulo_46126" data-name="Rectángulo 46126" width="3.287" height="3.287" transform="translate(6.984 106.857) rotate(-90)" fill="#b1ace0"/>
        <rect id="Rectángulo_46157" data-name="Rectángulo 46157" width="3.287" height="3.287" transform="translate(6.984 127.807) rotate(-90)" fill="#b1ace0"/>
        <rect id="Rectángulo_46169" data-name="Rectángulo 46169" width="3.287" height="3.287" transform="translate(6.984 141.773) rotate(-90)" fill="#b1ace0"/>
        <rect id="Rectángulo_45242" data-name="Rectángulo 45242" width="3.287" height="3.287" transform="translate(6.984 92.889) rotate(-90)" fill="#b1ace0"/>
        <rect id="Rectángulo_46124" data-name="Rectángulo 46124" width="3.287" height="3.287" transform="translate(6.984 113.84) rotate(-90)" fill="#b1ace0"/>
        <rect id="Rectángulo_46158" data-name="Rectángulo 46158" width="3.287" height="3.287" transform="translate(6.984 134.79) rotate(-90)" fill="#b1ace0"/>
        <rect id="Rectángulo_46163" data-name="Rectángulo 46163" width="3.287" height="3.287" transform="translate(6.984 148.757) rotate(-90)" fill="#b1ace0"/>
        <rect id="Rectángulo_45243" data-name="Rectángulo 45243" width="3.287" height="3.287" transform="translate(12.856 23.055) rotate(-90)" fill="#b1ace0"/>
        <rect id="Rectángulo_45244" data-name="Rectángulo 45244" width="3.287" height="3.287" transform="translate(12.856 30.038) rotate(-90)" fill="#b1ace0"/>
        <rect id="Rectángulo_45245" data-name="Rectángulo 45245" width="3.287" height="3.287" transform="translate(12.856 37.022) rotate(-90)" fill="#b1ace0"/>
        <rect id="Rectángulo_45246" data-name="Rectángulo 45246" width="3.286" height="3.287" transform="translate(12.856 44.005) rotate(-90)" fill="#b1ace0"/>
        <rect id="Rectángulo_45247" data-name="Rectángulo 45247" width="3.287" height="3.287" transform="translate(12.856 50.989) rotate(-90)" fill="#b1ace0"/>
        <rect id="Rectángulo_45248" data-name="Rectángulo 45248" width="3.286" height="3.287" transform="translate(12.856 57.972) rotate(-90)" fill="#b1ace0"/>
        <rect id="Rectángulo_45249" data-name="Rectángulo 45249" width="3.287" height="3.287" transform="translate(12.856 64.955) rotate(-90)" fill="#b1ace0"/>
        <rect id="Rectángulo_45250" data-name="Rectángulo 45250" width="3.286" height="3.287" transform="translate(12.856 71.939) rotate(-90)" fill="#b1ace0"/>
        <rect id="Rectángulo_45251" data-name="Rectángulo 45251" width="3.287" height="3.287" transform="translate(12.856 78.923) rotate(-90)" fill="#b1ace0"/>
        <rect id="Rectángulo_46137" data-name="Rectángulo 46137" width="3.287" height="3.287" transform="translate(12.856 99.873) rotate(-90)" fill="#b1ace0"/>
        <rect id="Rectángulo_46146" data-name="Rectángulo 46146" width="3.287" height="3.287" transform="translate(12.856 120.824) rotate(-90)" fill="#b1ace0"/>
        <rect id="Rectángulo_45252" data-name="Rectángulo 45252" width="3.287" height="3.287" transform="translate(12.856 85.906) rotate(-90)" fill="#b1ace0"/>
        <rect id="Rectángulo_46127" data-name="Rectángulo 46127" width="3.287" height="3.287" transform="translate(12.856 106.857) rotate(-90)" fill="#b1ace0"/>
        <rect id="Rectángulo_46147" data-name="Rectángulo 46147" width="3.287" height="3.287" transform="translate(12.856 127.807) rotate(-90)" fill="#b1ace0"/>
        <rect id="Rectángulo_46170" data-name="Rectángulo 46170" width="3.287" height="3.287" transform="translate(12.856 141.773) rotate(-90)" fill="#b1ace0"/>
        <rect id="Rectángulo_45253" data-name="Rectángulo 45253" width="3.287" height="3.287" transform="translate(12.856 92.889) rotate(-90)" fill="#b1ace0"/>
        <rect id="Rectángulo_46128" data-name="Rectángulo 46128" width="3.287" height="3.287" transform="translate(12.856 113.84) rotate(-90)" fill="#b1ace0"/>
        <rect id="Rectángulo_46148" data-name="Rectángulo 46148" width="3.287" height="3.287" transform="translate(12.856 134.79) rotate(-90)" fill="#b1ace0"/>
        <rect id="Rectángulo_46164" data-name="Rectángulo 46164" width="3.287" height="3.287" transform="translate(12.856 148.757) rotate(-90)" fill="#b1ace0"/>
        <rect id="Rectángulo_45221-2" data-name="Rectángulo 45221" width="3.287" height="3.287" transform="translate(18.747 23.055) rotate(-90)" fill="#b1ace0"/>
        <rect id="Rectángulo_45222-2" data-name="Rectángulo 45222" width="3.287" height="3.287" transform="translate(18.747 30.038) rotate(-90)" fill="#b1ace0"/>
        <rect id="Rectángulo_45223-2" data-name="Rectángulo 45223" width="3.287" height="3.287" transform="translate(18.747 37.022) rotate(-90)" fill="#b1ace0"/>
        <rect id="Rectángulo_45224-2" data-name="Rectángulo 45224" width="3.286" height="3.287" transform="translate(18.747 44.005) rotate(-90)" fill="#b1ace0"/>
        <rect id="Rectángulo_45225-2" data-name="Rectángulo 45225" width="3.287" height="3.287" transform="translate(18.747 50.989) rotate(-90)" fill="#b1ace0"/>
        <rect id="Rectángulo_45226-2" data-name="Rectángulo 45226" width="3.286" height="3.287" transform="translate(18.747 57.972) rotate(-90)" fill="#b1ace0"/>
        <rect id="Rectángulo_45227-2" data-name="Rectángulo 45227" width="3.287" height="3.287" transform="translate(18.747 64.955) rotate(-90)" fill="#b1ace0"/>
        <rect id="Rectángulo_45228-2" data-name="Rectángulo 45228" width="3.286" height="3.287" transform="translate(18.747 71.939) rotate(-90)" fill="#b1ace0"/>
        <rect id="Rectángulo_45229-2" data-name="Rectángulo 45229" width="3.287" height="3.287" transform="translate(18.747 78.923) rotate(-90)" fill="#b1ace0"/>
        <rect id="Rectángulo_46138" data-name="Rectángulo 46138" width="3.287" height="3.287" transform="translate(18.747 99.873) rotate(-90)" fill="#b1ace0"/>
        <rect id="Rectángulo_46149" data-name="Rectángulo 46149" width="3.287" height="3.287" transform="translate(18.747 120.824) rotate(-90)" fill="#b1ace0"/>
        <rect id="Rectángulo_45230-2" data-name="Rectángulo 45230" width="3.287" height="3.287" transform="translate(18.747 85.906) rotate(-90)" fill="#b1ace0"/>
        <rect id="Rectángulo_46129" data-name="Rectángulo 46129" width="3.287" height="3.287" transform="translate(18.747 106.857) rotate(-90)" fill="#b1ace0"/>
        <rect id="Rectángulo_46150" data-name="Rectángulo 46150" width="3.287" height="3.287" transform="translate(18.747 127.807) rotate(-90)" fill="#b1ace0"/>
        <rect id="Rectángulo_46171" data-name="Rectángulo 46171" width="3.287" height="3.287" transform="translate(18.747 141.773) rotate(-90)" fill="#b1ace0"/>
        <rect id="Rectángulo_45231-2" data-name="Rectángulo 45231" width="3.287" height="3.287" transform="translate(18.747 92.889) rotate(-90)" fill="#b1ace0"/>
        <rect id="Rectángulo_46130" data-name="Rectángulo 46130" width="3.287" height="3.287" transform="translate(18.747 113.84) rotate(-90)" fill="#b1ace0"/>
        <rect id="Rectángulo_46151" data-name="Rectángulo 46151" width="3.287" height="3.287" transform="translate(18.747 134.79) rotate(-90)" fill="#b1ace0"/>
        <rect id="Rectángulo_46165" data-name="Rectángulo 46165" width="3.287" height="3.287" transform="translate(18.747 148.757) rotate(-90)" fill="#b1ace0"/>
        <rect id="Rectángulo_45232-2" data-name="Rectángulo 45232" width="3.287" height="3.287" transform="translate(25.175 23.055) rotate(-90)" fill="#b1ace0"/>
        <rect id="Rectángulo_45233-2" data-name="Rectángulo 45233" width="3.287" height="3.287" transform="translate(25.175 30.038) rotate(-90)" fill="#b1ace0"/>
        <rect id="Rectángulo_45234-2" data-name="Rectángulo 45234" width="3.287" height="3.287" transform="translate(25.175 37.022) rotate(-90)" fill="#b1ace0"/>
        <rect id="Rectángulo_45235-2" data-name="Rectángulo 45235" width="3.286" height="3.287" transform="translate(25.175 44.005) rotate(-90)" fill="#b1ace0"/>
        <rect id="Rectángulo_45236-2" data-name="Rectángulo 45236" width="3.287" height="3.287" transform="translate(25.175 50.989) rotate(-90)" fill="#b1ace0"/>
        <rect id="Rectángulo_45237-2" data-name="Rectángulo 45237" width="3.286" height="3.287" transform="translate(25.175 57.972) rotate(-90)" fill="#b1ace0"/>
        <rect id="Rectángulo_45238-2" data-name="Rectángulo 45238" width="3.287" height="3.287" transform="translate(25.175 64.955) rotate(-90)" fill="#b1ace0"/>
        <rect id="Rectángulo_45239-2" data-name="Rectángulo 45239" width="3.286" height="3.287" transform="translate(25.175 71.939) rotate(-90)" fill="#b1ace0"/>
        <rect id="Rectángulo_45240-2" data-name="Rectángulo 45240" width="3.287" height="3.287" transform="translate(25.175 78.923) rotate(-90)" fill="#b1ace0"/>
        <rect id="Rectángulo_46139" data-name="Rectángulo 46139" width="3.287" height="3.287" transform="translate(25.175 99.873) rotate(-90)" fill="#b1ace0"/>
        <rect id="Rectángulo_46152" data-name="Rectángulo 46152" width="3.287" height="3.287" transform="translate(25.175 120.824) rotate(-90)" fill="#b1ace0"/>
        <rect id="Rectángulo_45241-2" data-name="Rectángulo 45241" width="3.287" height="3.287" transform="translate(25.175 85.906) rotate(-90)" fill="#b1ace0"/>
        <rect id="Rectángulo_46131" data-name="Rectángulo 46131" width="3.287" height="3.287" transform="translate(25.175 106.857) rotate(-90)" fill="#b1ace0"/>
        <rect id="Rectángulo_46153" data-name="Rectángulo 46153" width="3.287" height="3.287" transform="translate(25.175 127.807) rotate(-90)" fill="#b1ace0"/>
        <rect id="Rectángulo_46172" data-name="Rectángulo 46172" width="3.287" height="3.287" transform="translate(25.175 141.773) rotate(-90)" fill="#b1ace0"/>
        <rect id="Rectángulo_45242-2" data-name="Rectángulo 45242" width="3.287" height="3.287" transform="translate(25.175 92.889) rotate(-90)" fill="#b1ace0"/>
        <rect id="Rectángulo_46132" data-name="Rectángulo 46132" width="3.287" height="3.287" transform="translate(25.175 113.84) rotate(-90)" fill="#b1ace0"/>
        <rect id="Rectángulo_46154" data-name="Rectángulo 46154" width="3.287" height="3.287" transform="translate(25.175 134.79) rotate(-90)" fill="#b1ace0"/>
        <rect id="Rectángulo_46166" data-name="Rectángulo 46166" width="3.287" height="3.287" transform="translate(25.175 148.757) rotate(-90)" fill="#b1ace0"/>
        <rect id="Rectángulo_45243-2" data-name="Rectángulo 45243" width="3.287" height="3.287" transform="translate(31.603 23.055) rotate(-90)" fill="#b1ace0"/>
        <rect id="Rectángulo_45244-2" data-name="Rectángulo 45244" width="3.287" height="3.287" transform="translate(31.603 30.038) rotate(-90)" fill="#b1ace0"/>
        <rect id="Rectángulo_45245-2" data-name="Rectángulo 45245" width="3.287" height="3.287" transform="translate(31.603 37.022) rotate(-90)" fill="#b1ace0"/>
        <rect id="Rectángulo_45246-2" data-name="Rectángulo 45246" width="3.286" height="3.287" transform="translate(31.603 44.005) rotate(-90)" fill="#b1ace0"/>
        <rect id="Rectángulo_45247-2" data-name="Rectángulo 45247" width="3.287" height="3.287" transform="translate(31.603 50.989) rotate(-90)" fill="#b1ace0"/>
        <rect id="Rectángulo_45248-2" data-name="Rectángulo 45248" width="3.286" height="3.287" transform="translate(31.603 57.972) rotate(-90)" fill="#b1ace0"/>
        <rect id="Rectángulo_45249-2" data-name="Rectángulo 45249" width="3.287" height="3.287" transform="translate(31.603 64.955) rotate(-90)" fill="#b1ace0"/>
        <rect id="Rectángulo_45250-2" data-name="Rectángulo 45250" width="3.286" height="3.287" transform="translate(31.603 71.939) rotate(-90)" fill="#b1ace0"/>
        <rect id="Rectángulo_45251-2" data-name="Rectángulo 45251" width="3.287" height="3.287" transform="translate(31.603 78.923) rotate(-90)" fill="#b1ace0"/>
        <rect id="Rectángulo_46140" data-name="Rectángulo 46140" width="3.287" height="3.287" transform="translate(31.603 99.873) rotate(-90)" fill="#b1ace0"/>
        <rect id="Rectángulo_46144" data-name="Rectángulo 46144" width="3.287" height="3.287" transform="translate(31.603 120.824) rotate(-90)" fill="#b1ace0"/>
        <rect id="Rectángulo_45252-2" data-name="Rectángulo 45252" width="3.287" height="3.287" transform="translate(31.603 85.906) rotate(-90)" fill="#b1ace0"/>
        <rect id="Rectángulo_46133" data-name="Rectángulo 46133" width="3.287" height="3.287" transform="translate(31.603 106.857) rotate(-90)" fill="#b1ace0"/>
        <rect id="Rectángulo_46145" data-name="Rectángulo 46145" width="3.287" height="3.287" transform="translate(31.603 127.807) rotate(-90)" fill="#b1ace0"/>
        <rect id="Rectángulo_46173" data-name="Rectángulo 46173" width="3.287" height="3.287" transform="translate(31.603 141.773) rotate(-90)" fill="#b1ace0"/>
        <rect id="Rectángulo_45253-2" data-name="Rectángulo 45253" width="3.287" height="3.287" transform="translate(31.603 92.889) rotate(-90)" fill="#b1ace0"/>
        <rect id="Rectángulo_46134" data-name="Rectángulo 46134" width="3.287" height="3.287" transform="translate(31.603 113.84) rotate(-90)" fill="#b1ace0"/>
        <rect id="Rectángulo_46155" data-name="Rectángulo 46155" width="3.287" height="3.287" transform="translate(31.603 134.79) rotate(-90)" fill="#b1ace0"/>
        <rect id="Rectángulo_46167" data-name="Rectángulo 46167" width="3.287" height="3.287" transform="translate(31.603 148.757) rotate(-90)" fill="#b1ace0"/>
      </g>
    </g>
    <g id="Grupo_1074897" data-name="Grupo 1074897" transform="translate(93.829 22.364)">
      <g id="Grupo_1074896" data-name="Grupo 1074896" clip-path="url(#clip-path-4)">
        <g id="Grupo_1074895" data-name="Grupo 1074895" transform="translate(0 0.002)">
          <g id="Grupo_1074894" data-name="Grupo 1074894" clip-path="url(#clip-path-5)">
            <path id="Trazado_611456" data-name="Trazado 611456" d="M44.579,908.433c-1.093,33.384,53.4,128.167,50.672,146.544-1.084,7.306,17.335-6.318,15.9-10.653-5.733-17.311-13.7-77.707-25.84-90.866s-4.437-41.08-4.469-42.6-36.261-2.428-36.261-2.428" transform="translate(-29.323 -596.462)" fill="#ec8b6c"/>
            <path id="Trazado_611457" data-name="Trazado 611457" d="M80.8,424.005l14.919-4.416s2.827-26.286,2.72-26.682-13.534-2.663-13.716-1.7c-1.4,7.382-3.923,32.8-3.923,32.8" transform="translate(-53.166 -256.707)" fill="#f99976"/>
            <path id="Trazado_611458" data-name="Trazado 611458" d="M135.775,1225.53s10.776,29.237,9.66,34.2c-.618,2.747-8.422,18.272-8.422,18.272s-16.022,5.932-16.185,8.9c-.159,2.893,22.147,5.486,29.666,1.915s19.754-23.341,18.523-30.134c-.5-2.741-3.739-1.629-7.229-8.594-5.157-10.289-7.019-29.611-7.132-29.792-.189-.3-18.882,5.231-18.882,5.231" transform="translate(-79.507 -801.22)" fill="#ec8b6c"/>
            <path id="Trazado_611459" data-name="Trazado 611459" d="M130.831,1358.422s-.194,4.464.916,4.635,13.736-1.311,16.495-2.318,11.208-18.313,12.467-17.972,6.434,10.571,6.31,11.509-7.211,8.013-8.163,8.44-5.2-1.535-5.2-1.535-13.462,9.137-17.13,9.641-22.357,1.814-24.461-.6c-4.745-5.433,18.766-11.8,18.766-11.8" transform="translate(-73.325 -881.635)" fill="#f0ac64"/>
            <path id="Trazado_611460" data-name="Trazado 611460" d="M198.025,1041.751c.16,21.711-2.4,85.971-5.159,96.31-1.16,4.344-3.6,9.573-4.59,10.717-4.459,5.167-23.562,23.448-17.367,26.857s39.868-10.683,42.523-16.142c3.261-6.7-2.621-11.472-2.545-13.29s22.193-88.736,15.647-102.308c-2.076-4.3-28.538-6.125-28.509-2.143" transform="translate(-111.656 -682.546)" fill="#f99976"/>
            <path id="Trazado_611461" data-name="Trazado 611461" d="M213,170.147c-.748-1.827-.011-27.979-.011-27.979L188.1,158.759s3.3,18.614-9.362,19.619c-3.644.29.012,32.842,12.544,31.856,11.3-.889,29.716-34.368,29.716-34.368s-7.255-3.893-8-5.72" transform="translate(-116.731 -93.347)" fill="#f99976"/>
            <path id="Trazado_611462" data-name="Trazado 611462" d="M174.2,240.294s-18.385,27.6-28.473,27.66c-13.539.084-13.512-25.193-13.512-25.193s-19.884,3.142-23.836,14.113c-3.078,8.543,3.061,28.743,4.014,49.647.431,9.443-6.078,24.212-6.117,36.665,0,1.229,5.1,8.258,5.066,9.433-.231,8.742-5.067,15.653-4.211,17.909.3.79,78.626-15.056,78.834-14.43,0,0-2.984.169-2.188-4.859.187-1.18,4.677-4.319,4.893-5.706,1.243-7.979,2.269-29.621,2.269-29.621s12.264-59.145,8.983-63.539c-6.08-8.141-25.723-12.08-25.723-12.08" transform="translate(-69.93 -157.774)" fill="#5e553f"/>
            <path id="Trazado_611463" data-name="Trazado 611463" d="M85.669,282.565c-2.047,6-4.872,29.894-4.872,29.894.566.142,8.82,1.3,16.416,2.044.846.083,1.223-47.067,1.223-47.067s-8.547,2.759-12.767,15.129" transform="translate(-53.166 -175.595)" fill="#5e553f"/>
            <path id="Trazado_611464" data-name="Trazado 611464" d="M119.411,384.261c3.257,6.781,63.678-1.282,63.678-1.282l2.134-21.069L120.675,360.2s-8.593,8.8-1.264,24.061" transform="translate(-76.628 -236.502)" fill="#5e553f"/>
            <path id="Trazado_611465" data-name="Trazado 611465" d="M123.463,424.9a2.858,2.858,0,0,1-.78-.236c.032.555.419,1.145.444,1.7,2.345.106,10.414.421,19.7.7,16.836.5,38.467.786,40.9-.94l-.83-1.193c-2.593,1.837-36.87.992-59.443-.03" transform="translate(-80.728 -278.832)" fill="#dfce9f"/>
            <path id="Trazado_611466" data-name="Trazado 611466" d="M99.58,329.015c-.042.158-.358.895-.693,1.675-1.517,3.536-4.856,11.327-6.014,18.079a42.634,42.634,0,0,1-10.214-1.928c-.066.5-.129.988-.187,1.445a43.47,43.47,0,0,0,10.188,1.909,20.134,20.134,0,0,0-.137,4.114l1.446.166c-.761-6.913,4.278-18.669,6.229-23.219.705-1.645.8-1.864.8-2.114h-.943Z" transform="translate(-54.268 -216.027)" fill="#dfce9f"/>
            <path id="Trazado_611467" data-name="Trazado 611467" d="M205.369,173.806c4.355.218,12.713-.7,17.324-3.35,3.626-2.087,6.745-14.43,8.495-17.679,0,0,.387-6.374.4-8.574-.355.59-1.885-.542-2.369.554-2.149,4.872-4.374,15.561-8.136,17.156-4.553,1.931-10.589,1.734-14.259,1.346a24.95,24.95,0,0,1-1.456,10.548" transform="translate(-135.137 -94.682)" fill="#e16142"/>
            <path id="Trazado_611468" data-name="Trazado 611468" d="M150.85,1375.41s-3.1,4.306-2.722,6.131,6.866,4.22,11.8,3.08,25.457-10.976,27.849-14.4,1.007-8.043,1.007-8.043,4.785,6.613,2.193,18.835c-.369,1.739-.648,2.826-6.253,5.633-.479.24-4.417-1.025-4.87-.7-18.044,12.911-48.636,19.9-46.933,9.984,1.363-7.934,17.931-20.519,17.931-20.519" transform="translate(-87.418 -894.382)" fill="#ffba6c"/>
            <path id="Trazado_611469" data-name="Trazado 611469" d="M273.2,1364.806a.774.774,0,0,0-1.076,0c-.067.061-.134.121-.2.179l-.105.086-.013.01c-.154.109-.309.213-.472.307s-.317.173-.48.247l-.061.027-.065.026q-.142.054-.286.1-.256.082-.518.138c-.087.019-.175.034-.263.049l-.028,0-.1.011a5.124,5.124,0,0,1-1.124-.016.8.8,0,0,0-.793.764.746.746,0,0,0,.729.763,6.167,6.167,0,0,0,4.812-1.616.774.774,0,0,0,.045-1.08" transform="translate(-176.096 -895.966)" fill="#e16142"/>
            <path id="Trazado_611470" data-name="Trazado 611470" d="M320.479,272.1c-4.249-4.8-14.362,1.733-14.98,1.695s-16.011,34.827-16.011,34.827l25.569,8.756,2.639-.47s13.842-32.314,2.783-44.808" transform="translate(-190.489 -177.501)" fill="#5e553f"/>
            <path id="Trazado_611471" data-name="Trazado 611471" d="M291.272,327.653c13.189,1.359,23.722,7.778,26.8,9.758l.574-1.643c-3.552-2.174-14.231-8.086-26.879-9.448,1.976-5.324,4.589-12.207,6.639-17.548l-1.28-.5c-2.9,7.555-9.642,25.236-9.642,26.243,0,.526.487.808,1.076,1.1a153.274,153.274,0,0,0,14.758,5.17c5.579,1.725,8.432,2.534,10.18,2.882l.241-1.382c-5.673-1.249-22.331-6.558-24.811-8.014.262-.9,1.151-3.383,2.346-6.621" transform="translate(-189.17 -202.411)" fill="#dfce9f"/>
            <path id="Trazado_611472" data-name="Trazado 611472" d="M160.079,381.021s-12.068,32.781-16.307,35.625-50.958-6.217-52.167-5.339-4.812,8.837-5.156,13.047c-.341,4.185,1.716,7.538,3.575,8.284a8.534,8.534,0,0,0,3.254.681l.591-4.99s51.8,10.026,58.932,6.531,27.087-44.694,25.7-46.758-18.416-7.082-18.416-7.082" transform="translate(-56.861 -250.173)" fill="#f99976"/>
            <path id="Trazado_611473" data-name="Trazado 611473" d="M102.534,516.607l-.387,1.321,1.934.63.143-1.2s.643.125,1.791.34Z" transform="translate(-67.215 -339.196)" fill="#e16142"/>
            <path id="Trazado_611474" data-name="Trazado 611474" d="M252.371,484.222a2.709,2.709,0,0,1-.92.334l2.358,3.021,1.08-.85-2.176-2.787a2.789,2.789,0,0,1-.342.281" transform="translate(-165.46 -317.749)" fill="#e16142"/>
            <path id="Trazado_611475" data-name="Trazado 611475" d="M152.4,15.528c-6.9,11.292-.166,55.928,8.591,60.971s21.176.9,21.947.385c7.664-5.146,9.794-16.461,9.794-16.461s6.327-42.041,2.289-48.2-37.387-5.256-42.621,3.3" transform="translate(-98.407 -5.415)" fill="#f99976"/>
            <rect id="Rectángulo_378943" data-name="Rectángulo 378943" width="10.585" height="1.37" transform="translate(82.015 37.889) rotate(-4.704)" fill="#faf0ee"/>
            <path id="Trazado_611476" data-name="Trazado 611476" d="M165.068,113.7c.152,1.4-.2,2.555-.793,2.586s-1.192-1.078-1.344-2.475.2-2.555.793-2.586,1.192,1.078,1.344,2.475" transform="translate(-107.189 -73.028)" fill="#563c39"/>
            <path id="Trazado_611477" data-name="Trazado 611477" d="M227.416,110.18c.163,1.49-.183,2.722-.773,2.749s-1.2-1.158-1.365-2.649.183-2.721.773-2.749,1.2,1.158,1.365,2.648" transform="translate(-148.21 -70.604)" fill="#563c39"/>
            <path id="Trazado_611478" data-name="Trazado 611478" d="M132.852,6.622c-13.811,15.742-13.805,50.872-8.789,54.656A19.24,19.24,0,0,0,127.8,63.41c.294.131-.311-7.446-.072-7.227.441.406.955,7.563,2.664,8.267a28.173,28.173,0,0,0,8.064,1.983s-8.955-21.119-6.138-36.6c1.713-9.408,19.1-17.477,19.1-17.477s2.75,14.227,7.771,20.48,14.753,3.78,14.753,3.78h2.593L175.279,67.21s10.414-1.016,13.082-5.355S191.529,6.682,176.79,1.961s-39.851,0-43.938,4.661" transform="translate(-79.619 -0.005)" fill="#89463f"/>
            <path id="Trazado_611479" data-name="Trazado 611479" d="M142.449,37.8c-5.379,6.6-1.923,33.036-.134,40.157a18.945,18.945,0,0,0,1.755,4.571c.682.208,1.345.394,1.973.556a16.063,16.063,0,0,1-2.4-5.463c-1.931-7.685-4.976-33.013-.134-38.951,5-6.136,19.177-10.457,19.319-10.5l-.393-1.316c-.6.18-14.716,4.485-19.985,10.946" transform="translate(-91.835 -17.637)" fill="#773835"/>
            <path id="Trazado_611480" data-name="Trazado 611480" d="M139.109,119.545l-.2-1.359,4.794-.391.146,1.371Z" transform="translate(-91.406 -77.344)" fill="#faf0ee"/>
            <path id="Trazado_611481" data-name="Trazado 611481" d="M162.66,91.826l-3.568.1c-1.757.05-1.764,2.8,0,2.747l3.568-.1c1.757-.05,1.764-2.8,0-2.747" transform="translate(-103.816 -60.292)" fill="#89463f"/>
            <path id="Trazado_611482" data-name="Trazado 611482" d="M217.444,89.551l-3.568.1c-1.757.051-1.764,2.8,0,2.747l3.568-.1c1.757-.05,1.764-2.8,0-2.747" transform="translate(-139.865 -58.799)" fill="#89463f"/>
            <path id="Trazado_611483" data-name="Trazado 611483" d="M149.374,116.627c-3.729,0-7.029-4.079-7.372-9.13A10.187,10.187,0,0,1,144.271,100a5.434,5.434,0,0,1,3.983-1.875h.06c3.729,0,7.029,4.079,7.373,9.13a10.187,10.187,0,0,1-2.269,7.493,5.436,5.436,0,0,1-3.983,1.875h-.06M148.315,99.5h-.045a4.1,4.1,0,0,0-2.994,1.433,8.8,8.8,0,0,0-1.91,6.468c.3,4.364,3.018,7.9,6.052,7.85a4.1,4.1,0,0,0,2.994-1.433,8.8,8.8,0,0,0,1.909-6.468c-.3-4.342-2.984-7.85-6.006-7.85" transform="translate(-93.421 -64.431)" fill="#faf0ee"/>
            <path id="Trazado_611484" data-name="Trazado 611484" d="M211.282,113.562c-3.729,0-7.029-4.079-7.372-9.13a10.187,10.187,0,0,1,2.269-7.493,5.435,5.435,0,0,1,3.983-1.875c3.766-.047,7.088,4.052,7.433,9.13a10.187,10.187,0,0,1-2.269,7.493,5.436,5.436,0,0,1-3.984,1.875h-.06m-1.058-17.125h-.046a4.1,4.1,0,0,0-2.994,1.433,8.8,8.8,0,0,0-1.91,6.468c.3,4.342,2.984,7.85,6.006,7.85h.046a4.1,4.1,0,0,0,2.994-1.433,8.8,8.8,0,0,0,1.909-6.468c-.3-4.342-2.984-7.85-6.006-7.85" transform="translate(-134.158 -62.419)" fill="#faf0ee"/>
            <path id="Trazado_611485" data-name="Trazado 611485" d="M183.061,125.306c-2.153,0-4.27-.48-5.172-2.137-1.91-3.509,3.5-11.746,4.609-13.362l1.41.972c-2.328,3.405-5.612,9.557-4.518,11.566,1.165,2.14,7.131.99,9.129.418l.469,1.651a23.928,23.928,0,0,1-5.926.891" transform="translate(-116.789 -72.1)" fill="#e16142"/>
            <path id="Trazado_611486" data-name="Trazado 611486" d="M179.095,114.416l-1.2-.653a7.037,7.037,0,0,1,4.738-3.371c3.257-.538,5.31,2.249,5.4,2.368l-1.107.806a4.527,4.527,0,0,0-4.066-1.819,5.682,5.682,0,0,0-3.756,2.668" transform="translate(-117.056 -72.438)" fill="#faf0ee"/>
            <path id="Trazado_611487" data-name="Trazado 611487" d="M185.227,164.216s16.245-3.144,16.717-2.492a1.969,1.969,0,0,1,.039,1.676s-2.5,6.432-9,6.676a7.518,7.518,0,0,1-7.757-5.861" transform="translate(-121.883 -106.129)" fill="#563c39"/>
            <path id="Trazado_611488" data-name="Trazado 611488" d="M202.66,161.9c-3.41.359-10.535,1.672-13.5,2.232.109.774.305,1.773.574,1.9a121.9,121.9,0,0,0,12.875-1.4,11.808,11.808,0,0,0,.055-2.727" transform="translate(-124.469 -106.306)" fill="#faf0ee"/>
            <path id="Trazado_611489" data-name="Trazado 611489" d="M214.519.055c-.554.254-1.168.545-1.814.867-3.906,1.944-6.241,3.609-6.942,4.948-1.058,2.023-.768,5.192-.433,7.176.65-.335,1.1-.552,1.285-.639-.275-1.8-.452-4.347.359-5.9,1.1-2.1,8.643-5.544,11.123-6.5-1.189-.014-2.384,0-3.578.043" transform="translate(-134.909 -0.006)" fill="#773835"/>
            <path id="Trazado_611490" data-name="Trazado 611490" d="M228.8,26.06a45.649,45.649,0,0,1-2.223-8.1c-.754-3.588-1.406-6.687-2.858-7.957-1.785-1.561-6.063-2.651-8.3-3.135-.532.331-1.075.643-1.624.944l-.022.126c1.917.338,7.278,1.553,9.047,3.1,1.106.968,1.743,4,2.418,7.2a46.63,46.63,0,0,0,2.3,8.355c1.949,4.586,7.305,9.946,9.451,11.979l-.81.239c-1.156-.285-7.848-2-12.264-4.652-1.953-1.171-3.406-6.142-4.811-10.951-1.987-6.8-4.04-13.829-8.284-13.829h-.043l.015,1.374h.026c3.222,0,5.215,6.822,6.974,12.842,1.547,5.3,3.009,10.3,5.422,11.744,5.009,3,12.512,4.778,12.829,4.852l.175.041,3.5-1.034-.92-.823c-.077-.069-7.711-6.936-10-12.322" transform="translate(-138.696 -4.511)" fill="#773835"/>
            <path id="Trazado_611491" data-name="Trazado 611491" d="M232.295,1.418c-.217,0-.441,0-.5,0a.587.587,0,0,1,.21.066l-1.908.987a9.776,9.776,0,0,0,2.212.321c11.653-.133,16.427,4.028,18.377,7.541,5,9.007,7.82,42.282,6.741,47.534-.609,2.97-2.78,6.521-4.659,9.174.706-.2,1.428-.422,2.136-.684a25.841,25.841,0,0,0,3.863-8.213c1.125-5.479-1.623-39-6.886-48.48-2.131-3.839-7.26-8.391-19.588-8.246" transform="translate(-151.409 -0.93)" fill="#773835"/>
            <path id="Trazado_611492" data-name="Trazado 611492" d="M285.521,154.621c1.675-2.991,3.316-6.892,2.855-10.129-.719-5.031-1.977-10.553-1.99-10.609l-1.333.308c.013.054,1.259,5.521,1.969,10.5.365,2.556-.789,6.15-3.261,10.244.492-.075,1.093-.177,1.76-.309" transform="translate(-186.72 -87.907)" fill="#773835"/>
            <path id="Trazado_611493" data-name="Trazado 611493" d="M133,23.557a12.688,12.688,0,0,0-.895,1.511q-.475,1.041-.91,2.115c-4.315,11.893-2.125,36.409-1.315,43.942.467.3.962.591,1.475.862-.719-6.493-3.83-38.216,2.764-47.64,7.229-10.334,22.088-8.729,22.238-8.711l.159-1.364C155.871,14.2,140.7,12.546,133,23.557" transform="translate(-84.621 -9.287)" fill="#773835"/>
            <path id="Trazado_611494" data-name="Trazado 611494" d="M0,195.661s11.545,40.6,12.687,41.143,19.9-.884,20.418-1.219a8.824,8.824,0,0,0,1.1-1.777s-10.547-40.337-11.219-40.674-21.179.287-21.582.422-1.4,2.1-1.4,2.1" transform="translate(0 -126.745)" fill="#293549"/>
            <path id="Trazado_611495" data-name="Trazado 611495" d="M33.166,239.448c-1.659-6.083-11.678-40.214-11.942-40.4s-16.755.2-21.107.307c-.072.135-.117.223-.117.223s.168.59.463,1.622c4.148-.1,19.079-.651,19.436-.364.374.3,9.454,32.662,11.216,38.951A12.324,12.324,0,0,0,33.1,239.5a.4.4,0,0,0,.061-.051" transform="translate(0 -130.66)" fill="#3b4b63"/>
            <path id="Trazado_611496" data-name="Trazado 611496" d="M7.256,248.849c-.158-.314-.38,3.866.744,5.874,2.833,5.059,8.88,12.684,9.309,13.436.087.152,6.07,54.584,7,55.522.483.485,6.235,5.516,10.152,4.754,3.659-.711,7.184-9.568,7.282-10.048.2-1-14.427-50.676-14.427-50.676s1.242-3.428.834-5.362-6.033-3.463-5.1-5.066c1.1-1.889,2.892-2.381,9.49-1.856,1.138.091,3.1-2.542.392-3.39,0,0,3.621-3.686-.491-5.611,1.126-.53,3.006-3.482-1.1-5.009-4.527-1.683-13.9-1.829-17.7.856a38.135,38.135,0,0,1,8.636-7.98c2.477-1.719,2.631-3.189,2.118-4.039-.578-.958-2.3-1.01-5.4.724C12.308,234.71,4.281,240.937,4.484,246.3c.064,1.694,2.772,2.546,2.772,2.546" transform="translate(-2.948 -150.746)" fill="#ff9a78"/>
            <path id="Trazado_611497" data-name="Trazado 611497" d="M26.477,257.234a8.8,8.8,0,0,0-2.272,1.1,31.377,31.377,0,0,1,4-4.284,22.788,22.788,0,0,0-7.669,6.866l1.438.929a20.732,20.732,0,0,1,4.506-4.607" transform="translate(-13.511 -166.804)" fill="#e16142"/>
            <path id="Trazado_611498" data-name="Trazado 611498" d="M47.41,273.12a2.994,2.994,0,0,0,1.117-1.516,42.312,42.312,0,0,0-9.632-1.186c-5.251.137-11.679,6.34-11.95,6.6l1.19,1.233c.062-.06,6.213-6,10.8-6.12a39.144,39.144,0,0,1,8.471.986" transform="translate(-17.73 -177.549)" fill="#e16142"/>
            <path id="Trazado_611499" data-name="Trazado 611499" d="M271.189,137.142c.609,4.818-1.152,13.209-5.312,18.2-.209.251.924.738,1.555.474,4.36-1.823,6.066-11.418,5.3-18.167s-1.541-.508-1.541-.508" transform="translate(-174.936 -88.32)" fill="#89463f"/>
            <path id="Trazado_611500" data-name="Trazado 611500" d="M56.193,290.284a3.8,3.8,0,0,0-.964-.442,6.646,6.646,0,0,0,.977-1.357c-2.162-.664-6.034-1.635-9.113-1.214-4.473.612-8.555,4.21-8.726,4.363l1.134,1.285c.038-.034,3.872-3.405,7.823-3.946,2.976-.407,6.988.706,8.869,1.311" transform="translate(-25.246 -188.552)" fill="#e16142"/>
            <path id="Trazado_611501" data-name="Trazado 611501" d="M91.059,423.891l1.326.447c.047-.442.294-1.251.384-1.682l-2.148-.609-6.7-21.88-1.073-.132c-.081.535-.162,1.093-.246,1.695l6.738,21.806c.087,3.448-.307,12.257-3.139,14.606a7.789,7.789,0,0,1-7.512,1.216l-.015.038a10.364,10.364,0,0,0,2.964.967,10.076,10.076,0,0,0,.368,1.167,8.879,8.879,0,0,0,5.285-2.065c3.679-3.052,3.806-12.834,3.767-15.574" transform="translate(-51.77 -262.657)" fill="#e16142"/>
            <path id="Trazado_611502" data-name="Trazado 611502" d="M127.246,472.034l-.177-.026.175.036Z" transform="translate(-83.614 -309.914)" fill="#e16142"/>
            <path id="Trazado_611503" data-name="Trazado 611503" d="M64.356,560.371C56.6,569.344,38.744,648.7,36.086,675.984c-1.179,12.1,2.186,75.12,2.186,75.12s45.786,1.749,61.049,1.773c21.563.034,54.435-2.4,54.435-2.4s5.957-124.576,3.7-139.3-19.079-51.232-19.079-51.232-14.4,3.827-36.8,4.676c-22.418.849-37.222-4.248-37.222-4.248" transform="translate(-23.58 -367.649)" fill="#ffba6c"/>
            <path id="Trazado_611504" data-name="Trazado 611504" d="M185.312,1421.78a.5.5,0,0,0,.2-.03c.527-.264,1.006-.512,1.443-.748-.3-2.716-1.006-5.352-2.6-5.36h0c-.6,0-1.761.6-6.863,3.383-8.34,4.546-23.864,13.008-31.318,13.581-5.346.411-8.873.419-9.939-.806-.6-.691-.627-2-.088-4.526l-.836-.18a14.669,14.669,0,0,0-1.245,2.607,4.387,4.387,0,0,0,.882,3.228c1.056,1.214,3,1.643,6.1,1.643,1.479,0,3.222-.1,5.258-.254,7.818-.6,22.957-8.853,32-13.784,2.673-1.457,5.208-2.839,5.985-3.133a12.138,12.138,0,0,1,1.019,4.378" transform="translate(-88.212 -929.487)" fill="#ffcb95"/>
            <path id="Trazado_611505" data-name="Trazado 611505" d="M277.592,104.556c-.639,4.933-4.588,8.909-8.82,8.882s-7.146-4.047-6.508-8.98,4.588-8.909,8.821-8.882,7.146,4.048,6.508,8.98" transform="translate(-172.517 -62.755)" fill="#f99976"/>
            <path id="Trazado_611506" data-name="Trazado 611506" d="M276.635,115.187c-.006-.029-.019-.081-.036-.154-1.623-6.706-.335-11.318,3.534-12.655L280.69,104c-4.165,1.44-3.086,7.91-2.429,10.626a1.584,1.584,0,0,1,.071.413h-.855Z" transform="translate(-181.556 -67.222)" fill="#e16142"/>
            <path id="Trazado_611523" data-name="Trazado 611523" d="M0,.008,6.1,0l0,1.716L0,1.724Z" transform="matrix(0.944, -0.329, 0.329, 0.944, 94.941, 42.493)" fill="#e16142"/>
            <path id="Trazado_611507" data-name="Trazado 611507" d="M41.481,349.412s1.736,5.534,5.806,4.436,4.637-5.4,4.637-5.4l.975.521,1.172,5.229s-.225,3.738-6.238,4.592-6.16-1.4-6.16-1.4l-1.007-7.077Z" transform="translate(-26.759 -228.785)" fill="#293549"/>
            <g id="Grupo_1074890" data-name="Grupo 1074890" transform="translate(12.321 195.517)" opacity="0.32">
              <g id="Grupo_1074889" data-name="Grupo 1074889">
                <g id="Grupo_1074888" data-name="Grupo 1074888" clip-path="url(#clip-path-6)">
                  <path id="Trazado_611508" data-name="Trazado 611508" d="M234.565,823.4c-4.1-.684-10.547-1.188-11.115-6.4-.506-4.639,2.48-8.216,4.594-11.986a11.583,11.583,0,0,0,1.819-7.128c-.328-2.426-1.826-4.306-3.469-6.015-2.984-3.1-6.966-5.792-8.758-9.845-1.141-2.58-.842-5.43-.334-8.125.526-2.791,1.1-5.556,1.422-8.383.315-2.776.748-5.957.23-8.728a5.722,5.722,0,0,0-4.353-4.439,35.392,35.392,0,0,0-7.489-1.048,20.058,20.058,0,0,0-7.868.853c-4.474,1.566-7.876,5.03-8.379,9.892-.533,5.148,2.021,10.139,4.8,14.275,2.961,4.409,6.662,8.531,8.374,13.652a12.972,12.972,0,0,1,.475,7.527,19.049,19.049,0,0,1-3.438,6.328c-2.973,3.952-6.452,7.583-7.758,12.508a11.955,11.955,0,0,0,4.158,12.631c7.95,6.6,18.959,8.786,28.716,11.175,9.044,2.214,18.666,4.76,25.891,10.992a27.821,27.821,0,0,1,4.548,4.959c.084-1.913.172-3.93.263-6.037-11.712-12.074-30.365-12.812-45.58-18.334-4.305-1.562-9.309-3.612-12.451-7.095-3.465-3.84-1.5-8.857,1.042-12.612s5.93-6.926,7.757-11.164c2.011-4.665,1.463-9.578-.512-14.151s-5.186-8.36-7.939-12.459c-2.516-3.747-5.609-9.017-3.844-13.679,1.754-4.633,7.486-5.415,11.748-5.14,1.333.086,2.659.259,3.98.451a9.741,9.741,0,0,1,3,.659c1.016.528.914,1.556.909,2.592-.008,1.461-.075,2.922-.192,4.379-.427,5.343-2.587,10.827-1.976,16.2.512,4.5,3.271,7.964,6.421,11.007,2.826,2.73,7.825,5.853,6.139,10.366-.831,2.226-2.4,4.088-3.552,6.139a19.9,19.9,0,0,0-2.165,5.62c-.8,3.814-.321,8.146,2.81,10.808,3.652,3.106,9.486,3.554,14.039,4.185,5.091.7,10.234,1.132,15.259,2.256a45.334,45.334,0,0,1,5.866,1.662q.084-2.072.167-4.189a47.539,47.539,0,0,0-7.046-1.877c-5.368-1.007-10.827-1.388-16.212-2.287" transform="translate(-137.868 -688.768)" fill="#fff"/>
                  <path id="Trazado_611509" data-name="Trazado 611509" d="M121.5,818.632a1.938,1.938,0,0,0-1.175-.916,1.97,1.97,0,0,0-1.1-.3,10.818,10.818,0,0,0-2.338,0l-.159-.169-.888-.944a1.8,1.8,0,0,0-1.886-.554,2.809,2.809,0,0,0-1.045-.744c-4.933-2.088-10.456.99-12.643,5.577-2.492,5.227-1.75,11.643.979,16.625,2.892,5.28,7.781,8.056,13.8,7.488,5.412-.511,11.2-2.866,13.145-8.412,2.412-6.87-3.485-12.346-6.689-17.653m2.732,16.558c-1.908,4.871-9.332,6.39-13.846,5.091-5.155-1.484-7.626-8.158-7.528-13.044.094-4.684,3.563-10.54,8.96-8.256a1.494,1.494,0,0,0,.966.059c.047.061.1.121.154.18.767.815,1.542,1.924,2.677,2.216a10.15,10.15,0,0,0,2.89.125c2.653,3.886,7.641,8.744,5.727,13.63" transform="translate(-77.294 -730.199)" fill="#fff"/>
                  <path id="Trazado_611510" data-name="Trazado 611510" d="M117.2,627.6c-.668-1.257-2.931-1.433-3.544,0-2.255,5.278-4.761,11.177-10.3,13.689-5.619,2.549-12.31,1.655-18.295,1.853-6.484.214-13.029,1.072-18.932,3.924-.472.228-.935.473-1.393.726-.8,3.259-1.6,6.589-2.386,9.952l5.579-6.989c5.936-2.939,12.745-3.446,19.258-3.54,6.036-.087,12.353.309,17.992-2.251,4.862-2.208,7.815-6.459,10.1-11.067a23.772,23.772,0,0,1-2.013,16.279c-3.252,6.5-9.025,11.24-15.412,14.46-7.449,3.755-15.787,5.374-24,6.383-4.314.53-8.645.9-12.966,1.37q-.936.1-1.869.218-.456,2.121-.9,4.225c2.409-.371,4.862-.54,7.256-.78,4.53-.454,9.06-.916,13.561-1.608,14.818-2.279,31.644-8.411,38.322-23.14,3.413-7.528,3.878-16.281-.065-23.7" transform="translate(-50.566 -606.926)" fill="#fff"/>
                  <path id="Trazado_611511" data-name="Trazado 611511" d="M305.6,654.132c-2.622-.637-4.9-1.552-5.7-4.351a59.883,59.883,0,0,1-1.66-9.593,96.6,96.6,0,0,1-.616-10.366,28.192,28.192,0,0,1,.1-4.892c.242-1.359,1.906-1.507,3.075-1.784a21.018,21.018,0,0,1,8.794-.176,22.423,22.423,0,0,1,3.825,1.1,6.967,6.967,0,0,1,2.017.942c.359.347.328.005.26.594-.036.306-.518.77-.7,1.01-1.642,2.206-3.1,4.6-3.11,7.459a7.627,7.627,0,0,0,3.286,6.227c2.025,1.475,4.491,2.115,6.833,2.893q2.014.669,3.955,1.517c-.4-1.544-.886-3.2-1.432-4.935q-1.666-.62-3.359-1.174c-2.18-.719-5.182-1.753-5.179-4.527,0-3.153,3.011-4.88,3.787-7.685-.587-1.522-1.184-3.042-1.784-4.542a14.054,14.054,0,0,0-2.957-1.541,25.321,25.321,0,0,0-9.141-1.822,22.385,22.385,0,0,0-9.058,1.6c-3.151,1.374-3.25,4.333-3.307,7.389a97.727,97.727,0,0,0,2.048,21.862c.583,2.772,1.633,5.221,4.062,6.835,2.386,1.586,5.335,2.046,8.077,2.634,6.775,1.451,14,3,19.64,7.286.055.042.109.086.163.128.007-1.717.006-3.338,0-4.851a31.939,31.939,0,0,0-5.008-2.64c-5.45-2.273-11.211-3.212-16.911-4.6" transform="translate(-205.458 -601.602)" fill="#fff"/>
                  <path id="Trazado_611512" data-name="Trazado 611512" d="M100.87,589.572c2.217-1.852,4.091-3.462,6.943-4.228,2.554-.686,5.2-.931,7.756-1.615a25.477,25.477,0,0,0,6.9-3c2.059-1.29,4.481-2.952,5.516-5.236a5.516,5.516,0,0,0,.489-2.2q-2.119-.065-4.106-.191a2.323,2.323,0,0,1-.294,1.027c-1.1,1.9-3.99,3.349-5.884,4.266-4.3,2.082-9.18,1.931-13.58,3.668a18.254,18.254,0,0,0-5.27,3.4,32.831,32.831,0,0,1-6.421,4.388q-.466.244-.947.5-.758,2.57-1.531,5.342c1.286-.608,2.541-1.258,3.76-1.878a34.98,34.98,0,0,0,6.672-4.243" transform="translate(-71.831 -571.809)" fill="#fff"/>
                  <path id="Trazado_611513" data-name="Trazado 611513" d="M254.311,582.279c-.9-7.6-16.474-1.678-14.46,5.7,1.1,4.03,5.768,4.461,9.183,3.74a7.234,7.234,0,0,0,4.664-2.837c1.019-1.624.04-3.209-.821-4.668a1.635,1.635,0,0,0,1.434-1.932m-10.266,3.792a6.051,6.051,0,0,1,3.013-2.628,6.5,6.5,0,0,1,1.765-.466,5.6,5.6,0,0,1,.781,0,1.989,1.989,0,0,0-.641,2.671c.22.4.558.878.82,1.357-1.867,1.314-6.88,1.341-5.738-.933" transform="translate(-170.03 -575.509)" fill="#fff"/>
                  <path id="Trazado_611514" data-name="Trazado 611514" d="M317.555,574.425q-.459.06-.917.134c-2.15.347-4.105,1.214-6.2,1.736-.641.16-4.417.469-3.661-1.017.292-.574,1.9-.833,2.416-.967a28.094,28.094,0,0,1,2.986-.616c1.543-.228,3.239-.254,4.845-.487-.656-1.494-1.237-2.8-1.717-3.875-.562.022-1.112.027-1.6.067a32.024,32.024,0,0,0-6.19,1.1c-3.424.985-6.734,4.147-4.022,7.757,2.542,3.384,6.959,2.411,10.367,1.27a24.212,24.212,0,0,1,5.4-1.151c-.6-1.4-1.172-2.724-1.7-3.946" transform="translate(-211.369 -569.331)" fill="#fff"/>
                  <path id="Trazado_611515" data-name="Trazado 611515" d="M340.519,814.821a39.026,39.026,0,0,0-8.367-6.476,87.5,87.5,0,0,0-9.269-4.733c-1.252-.58-2.758-1.247-3.488-2.492-.787-1.341-.694-3.379-.728-4.9-.076-3.327,1.048-5.852,4.315-6.979,2.111-.729,6.144-1.473,7.888.423.929,1.01.9,2.635,1.071,3.926a9.871,9.871,0,0,0,1.528,4.459c1.783,2.585,4.7,4.43,7.37,6.065q.069-2.451.13-4.841c-.16-.11-.323-.215-.481-.326-1.493-1.042-3.261-2.194-4.036-3.916-.767-1.705-.5-3.724-1.056-5.5-2.292-7.307-13.676-5.986-18.074-1.581-2.8,2.8-2.931,6.767-2.629,10.485a10.373,10.373,0,0,0,1.422,5.16,10.494,10.494,0,0,0,4.24,3.352,91.791,91.791,0,0,1,12.558,6.8c3.147,2.184,6.26,4.838,7.359,8.6q.128-3.788.248-7.536" transform="translate(-219.321 -710.513)" fill="#fff"/>
                  <path id="Trazado_611516" data-name="Trazado 611516" d="M298.444,751.749a1.922,1.922,0,0,0-1.2-.307,2.907,2.907,0,0,0-.873-.92c-1.67-1.138-3.594.022-4.971,1.048-2.595,1.933-4.54,5.647-2.18,8.585,2.271,2.829,6.794,1.8,9.278-.185,2.644-2.111,3.046-6.315-.053-8.221m-5.451,6.026c-.875-.146-.831-.839-.481-1.545a3.745,3.745,0,0,1,1.013-1.134c.151-.12.311-.226.47-.336a1.88,1.88,0,0,0,2.289.486c.03.021.057.042.089.061,1.425.877-2.627,2.592-3.38,2.467" transform="translate(-201.933 -687.989)" fill="#fff"/>
                  <path id="Trazado_611517" data-name="Trazado 611517" d="M59.975,807.5c.487-4.188-2.942-7.732-6.889-8.4a12.475,12.475,0,0,0-7.57,1.277q-.589,3.006-1.133,5.9l.206-.666c2.535-1.732,5.525-3.273,8.507-2.292a3.9,3.9,0,0,1,2.839,3.407c-.013,1.852-1.636,3.2-3.123,3.984-3.048,1.615-6.587,2.021-9.814,3.234q-.442,2.547-.83,4.937c2.444-1.916,7.584-2.659,9.412-3.258,3.855-1.262,7.878-3.683,8.395-8.123" transform="translate(-40.068 -720.089)" fill="#fff"/>
                  <path id="Trazado_611518" data-name="Trazado 611518" d="M40.915,986.639a17.748,17.748,0,0,0-2.732,3.481c.134,2.636.216,4.172.216,4.172l2.1.079a16.237,16.237,0,0,1,6.407-7.08,91.735,91.735,0,0,1,8.591-3.9,31.429,31.429,0,0,0,4.165-2.185c1.375-.882,3.238-2.027,3.619-3.753.685-3.1-3.062-6.349-5.027-8.227a33.724,33.724,0,0,1-6.946-8.419c-.79-1.48-1.944-3.49-1.8-5.231.156-1.892,2.261-2.662,3.719-3.42,3.4-1.769,7.108-3.308,10.276-5.477,2.543-1.74,4.79-4.365,4.081-7.671-.83-3.866-5.088-5.8-8.43-6.981a29.1,29.1,0,0,0-12.788-1.539,21.742,21.742,0,0,0-10.34,3.95c.03,1.745.069,3.574.116,5.464a15.962,15.962,0,0,1,10.224-5.293,25.441,25.441,0,0,1,9.99.851c2.022.569,7.254,2.006,7.27,4.79.014,2.5-4.25,4.08-6.015,5-3.044,1.58-6.486,2.935-9.253,4.98-5.891,4.354-1.407,12.229,2.045,16.7,1.924,2.493,4.326,4.459,6.482,6.729a18.049,18.049,0,0,1,1.407,1.622c.267.358.474.758.735,1.117a.41.41,0,0,0,.118.116,13.275,13.275,0,0,1-3.478,2.243c-4.946,2.584-10.637,3.892-14.756,7.88" transform="translate(-36.028 -806.354)" fill="#fff"/>
                  <path id="Trazado_611519" data-name="Trazado 611519" d="M192.1,1035.819c-1.7.4-3.349,1.318-5.094,1.47-1.872.164-1.994-.514-1.77-2.212.388-2.943,2.089-7.847-2.25-8.427-4.112-.549-8.116.513-12.2.538-8.486.052-11.738-9.006-16.164-14.621-4.345-5.512-11.77-6.614-18.314-5.426a13.79,13.79,0,0,0-8.989,5.346,23.1,23.1,0,0,0-3.811,9.852c-1.3,8.511,3.741,14.81,10.4,19.349,1.994,1.359,4.348,2.719,6.628,4.232,2.426.064,4.754.12,6.921.166a34.489,34.489,0,0,0-3.568-2.85c-5.346-3.738-12.061-6.572-15.257-12.634-1.677-3.181-1.489-6.747-.515-10.117.892-3.083,2.291-6.378,5.2-8.027,5.1-2.89,13.647-2.357,17.677,2.147,2.324,2.6,3.833,5.926,5.944,8.705a21.062,21.062,0,0,0,7.549,6.59c3.415,1.6,6.765,1.468,10.427,1.043a42.224,42.224,0,0,1,5.642-.3c.2,0,.708.08,1.069.076-.154.756-.143,1.856-.216,2.366-.417,2.883-.919,6.044,2.112,7.668,2.778,1.488,5.8.2,8.533-.634,1.393-.425,3.3-1.03,4.538.085a4.185,4.185,0,0,1,1.074,3.228,6.475,6.475,0,0,1-.176,1.294c1.507-.09,2.929-.178,4.246-.261a8.579,8.579,0,0,0-1.15-5.8c-1.83-3.022-5.27-3.612-8.486-2.846" transform="translate(-93.456 -856.507)" fill="#fff"/>
                  <path id="Trazado_611520" data-name="Trazado 611520" d="M367.087,1081.61c-1.36-1.583-2.862-3.632-3.173-5.53-.059-.359-.206-1.375.113-1.665-.042.039.417.129.73.324a7.726,7.726,0,0,1,2.178,2.406c.115.174.221.355.333.532.08-1.746.17-3.747.27-5.968-2.2-1.628-5.3-2.384-6.926.408-1.847,3.175-.4,6.8,1.5,9.546a30.858,30.858,0,0,0,3.088,3.994c1.094-.077,1.7-.122,1.7-.122s.067-1.4.184-3.925" transform="translate(-249.049 -898.227)" fill="#fff"/>
                  <path id="Trazado_611521" data-name="Trazado 611521" d="M155.444,933.784a1.985,1.985,0,0,0-1.816.472,4.126,4.126,0,0,0-3.045,1.729c-2.19,2.7-2.647,6.4.676,8.432a5.206,5.206,0,0,0,7.728-2.507c1.05-3.033-.065-7.383-3.543-8.126m-1.115,7.356c-.728.068-1.119-.158-1.277-.514a1.94,1.94,0,0,0,.5.233,1.835,1.835,0,0,0,1.482-.173.926.926,0,0,1-.706.455" transform="translate(-110.269 -808.59)" fill="#fff"/>
                </g>
              </g>
            </g>
            <g id="Grupo_1074893" data-name="Grupo 1074893" transform="translate(52.291 2.323)" opacity="0.11">
              <g id="Grupo_1074892" data-name="Grupo 1074892">
                <g id="Grupo_1074891" data-name="Grupo 1074891" clip-path="url(#clip-path-7)">
                  <path id="Trazado_611522" data-name="Trazado 611522" d="M153.849,11.062c-.322.367-.634.748-.942,1.136a6.654,6.654,0,0,0,.25.778c1,2.506,3.291,4.486,5.416,6.027a28.81,28.81,0,0,0,5.051,2.928,65.714,65.714,0,0,1,8.791-5.13s.677,3.5,1.972,7.793a40.534,40.534,0,0,0,30.172-11.264c-1.58-3.128-3.515-5.46-5.865-6.563a56.057,56.057,0,0,1-11.746,6c-7.512,2.775-18.482,4.446-24.946-1.621a11.146,11.146,0,0,1-2.375-3.194c-2.783.963-4.838,2.038-5.778,3.109" transform="translate(-152.907 -6.767)" fill="#fff"/>
                </g>
              </g>
            </g>
          </g>
        </g>
      </g>
    </g>
  </g>
</svg>
