<svg xmlns="http://www.w3.org/2000/svg" xmlns:xlink="http://www.w3.org/1999/xlink" width="400.165" height="615.818" viewBox="0 0 400.165 615.818">
  <defs>
    <clipPath id="clip-path">
      <rect id="Rectángulo_378963" data-name="Rectángulo 378963" width="59.624" height="59.629" fill="none"/>
    </clipPath>
    <clipPath id="clip-path-2">
      <rect id="Rectángulo_378964" data-name="Rectángulo 378964" width="74.098" height="53.761" fill="none"/>
    </clipPath>
    <clipPath id="clip-path-3">
      <rect id="Rectángulo_378965" data-name="Rectángulo 378965" width="55.677" height="55.896" fill="none"/>
    </clipPath>
  </defs>
  <g id="Grupo_1075368" data-name="Grupo 1075368" transform="translate(538 10452.791)">
    <rect id="Rectángulo_378854" data-name="Rectángulo 378854" width="400" height="453.818" transform="translate(-537.835 -10297.791)" fill="#fcf5e0"/>
    <path id="Trazado_612046" data-name="Trazado 612046" d="M8.842-5.229H3.779V0H1.143V-12.8H9.475v2.136h-5.7v3.3H8.842ZM13.518,0H10.969V-9.51h2.549Zm-2.7-11.971a1.251,1.251,0,0,1,.382-.94,1.436,1.436,0,0,1,1.042-.369,1.44,1.44,0,0,1,1.037.369,1.244,1.244,0,0,1,.387.94,1.247,1.247,0,0,1-.391.949,1.443,1.443,0,0,1-1.033.369,1.443,1.443,0,0,1-1.033-.369A1.247,1.247,0,0,1,10.819-11.971Zm4.395,7.146a5.731,5.731,0,0,1,1-3.542A3.237,3.237,0,0,1,18.94-9.686a2.913,2.913,0,0,1,2.294,1.037V-13.5h2.549V0H21.489l-.123-1.011A2.989,2.989,0,0,1,18.923.176a3.228,3.228,0,0,1-2.694-1.323A5.916,5.916,0,0,1,15.214-4.825Zm2.54.189a3.754,3.754,0,0,0,.466,2.051,1.517,1.517,0,0,0,1.354.713,1.7,1.7,0,0,0,1.661-.995V-6.625a1.675,1.675,0,0,0-1.644-.995Q17.754-7.62,17.754-4.636ZM30.129.176a4.668,4.668,0,0,1-3.406-1.283,4.561,4.561,0,0,1-1.314-3.419v-.246a5.745,5.745,0,0,1,.554-2.562,4.064,4.064,0,0,1,1.569-1.74,4.4,4.4,0,0,1,2.316-.611,3.947,3.947,0,0,1,3.072,1.23A5,5,0,0,1,34.04-4.966v1.037H27.984a2.36,2.36,0,0,0,.743,1.494,2.245,2.245,0,0,0,1.569.563A2.742,2.742,0,0,0,32.59-2.936l1.248,1.4A3.813,3.813,0,0,1,32.291-.277,5.075,5.075,0,0,1,30.129.176Zm-.29-7.813a1.587,1.587,0,0,0-1.226.512,2.651,2.651,0,0,0-.6,1.466h3.533v-.2a1.891,1.891,0,0,0-.457-1.311A1.638,1.638,0,0,0,29.839-7.638ZM38.162,0H35.613V-13.5h2.549Zm4.772,0H40.386V-9.51h2.549Zm-2.7-11.971a1.251,1.251,0,0,1,.382-.94,1.436,1.436,0,0,1,1.042-.369,1.44,1.44,0,0,1,1.037.369,1.244,1.244,0,0,1,.387.94,1.247,1.247,0,0,1-.391.949,1.443,1.443,0,0,1-1.033.369,1.443,1.443,0,0,1-1.033-.369A1.247,1.247,0,0,1,40.236-11.971Zm7.708,9.923h4.649V0H44.7V-1.547l4.474-5.915H44.833V-9.51h7.62v1.5ZM59.7,0a2.821,2.821,0,0,1-.255-.853,3.073,3.073,0,0,1-2.4,1.028,3.376,3.376,0,0,1-2.316-.809,2.6,2.6,0,0,1-.918-2.039,2.687,2.687,0,0,1,1.121-2.32,5.529,5.529,0,0,1,3.239-.817h1.169v-.545A1.567,1.567,0,0,0,59-7.409a1.331,1.331,0,0,0-1.068-.4,1.513,1.513,0,0,0-1.006.308,1.045,1.045,0,0,0-.365.844h-2.54a2.551,2.551,0,0,1,.51-1.529,3.37,3.37,0,0,1,1.441-1.1,5.253,5.253,0,0,1,2.092-.4,4.15,4.15,0,0,1,2.791.883,3.09,3.09,0,0,1,1.033,2.483V-2.2a4.546,4.546,0,0,0,.378,2.048V0Zm-2.1-1.767a2.188,2.188,0,0,0,1.037-.25,1.645,1.645,0,0,0,.7-.672V-4.324h-.949q-1.907,0-2.03,1.318l-.009.149a1.017,1.017,0,0,0,.334.782A1.3,1.3,0,0,0,57.595-1.767Zm10.2-.105a1.666,1.666,0,0,0,1.143-.387,1.355,1.355,0,0,0,.457-1.028h2.382a3.258,3.258,0,0,1-.527,1.771A3.48,3.48,0,0,1,69.825-.268a4.442,4.442,0,0,1-1.991.444,4.129,4.129,0,0,1-3.217-1.3A5.13,5.13,0,0,1,63.439-4.7v-.167a5.071,5.071,0,0,1,1.169-3.507,4.08,4.08,0,0,1,3.208-1.31A4,4,0,0,1,70.677-8.67a3.594,3.594,0,0,1,1.094,2.7H69.39a1.745,1.745,0,0,0-.457-1.206,1.524,1.524,0,0,0-1.16-.464,1.53,1.53,0,0,0-1.34.647,3.749,3.749,0,0,0-.453,2.1v.264a3.8,3.8,0,0,0,.448,2.113A1.549,1.549,0,0,0,67.79-1.872ZM75.9,0H73.354V-9.51H75.9ZM73.2-11.971a1.251,1.251,0,0,1,.382-.94,1.436,1.436,0,0,1,1.042-.369,1.44,1.44,0,0,1,1.037.369,1.244,1.244,0,0,1,.387.94,1.247,1.247,0,0,1-.391.949,1.443,1.443,0,0,1-1.033.369,1.443,1.443,0,0,1-1.033-.369A1.247,1.247,0,0,1,73.2-11.971ZM77.6-4.843a5.64,5.64,0,0,1,.545-2.522,3.989,3.989,0,0,1,1.569-1.714,4.577,4.577,0,0,1,2.377-.606,4.33,4.33,0,0,1,3.142,1.178,4.727,4.727,0,0,1,1.358,3.2l.018.65a4.97,4.97,0,0,1-1.222,3.511A4.247,4.247,0,0,1,82.107.176a4.268,4.268,0,0,1-3.283-1.318A5.058,5.058,0,0,1,77.6-4.729Zm2.54.18a3.555,3.555,0,0,0,.51,2.073,1.682,1.682,0,0,0,1.459.717,1.686,1.686,0,0,0,1.441-.709,3.89,3.89,0,0,0,.519-2.267,3.519,3.519,0,0,0-.519-2.06,1.686,1.686,0,0,0-1.459-.731,1.658,1.658,0,0,0-1.441.726A3.955,3.955,0,0,0,80.139-4.662ZM82.591-13.5h2.769l-2.435,2.725H80.859ZM90.51-9.51l.079,1.1a3.32,3.32,0,0,1,2.733-1.274,2.759,2.759,0,0,1,2.25.888,4.142,4.142,0,0,1,.756,2.654V0h-2.54V-6.082a1.648,1.648,0,0,0-.352-1.173,1.574,1.574,0,0,0-1.169-.365,1.747,1.747,0,0,0-1.608.914V0h-2.54V-9.51Z" transform="translate(-348.336 -10214)" fill="#12263f"/>
    <rect id="Rectángulo_378937" data-name="Rectángulo 378937" width="400" height="155" transform="translate(-538 -10146.973)" fill="#dbf8fd"/>
    <rect id="Rectángulo_378953" data-name="Rectángulo 378953" width="400" height="155" transform="translate(-538 -9991.973)" fill="#cac5f9"/>
    <path id="Trazado_612045" data-name="Trazado 612045" d="M11.188-4.263A4.528,4.528,0,0,1,9.664-1.011,5.355,5.355,0,0,1,6.038.176,4.816,4.816,0,0,1,2.167-1.481,6.793,6.793,0,0,1,.756-6.029v-.782a7.671,7.671,0,0,1,.65-3.252,4.874,4.874,0,0,1,1.859-2.158,5.207,5.207,0,0,1,2.808-.751,5.217,5.217,0,0,1,3.568,1.187,4.866,4.866,0,0,1,1.564,3.331H8.569a2.673,2.673,0,0,0-.69-1.8,2.555,2.555,0,0,0-1.806-.558A2.24,2.24,0,0,0,4.1-9.866a5.3,5.3,0,0,0-.672,2.931v.967a5.667,5.667,0,0,0,.628,3.032,2.2,2.2,0,0,0,1.982.958,2.6,2.6,0,0,0,1.824-.558,2.521,2.521,0,0,0,.69-1.727Zm1.169-.58A5.64,5.64,0,0,1,12.9-7.365a3.989,3.989,0,0,1,1.569-1.714,4.577,4.577,0,0,1,2.377-.606,4.33,4.33,0,0,1,3.142,1.178,4.727,4.727,0,0,1,1.358,3.2l.018.65a4.97,4.97,0,0,1-1.222,3.511A4.247,4.247,0,0,1,16.866.176a4.268,4.268,0,0,1-3.283-1.318,5.058,5.058,0,0,1-1.226-3.586Zm2.54.18a3.555,3.555,0,0,0,.51,2.073,1.682,1.682,0,0,0,1.459.717,1.686,1.686,0,0,0,1.441-.709,3.89,3.89,0,0,0,.519-2.267,3.519,3.519,0,0,0-.519-2.06,1.686,1.686,0,0,0-1.459-.731,1.658,1.658,0,0,0-1.441.726A3.955,3.955,0,0,0,14.9-4.662ZM25.269-9.51l.079,1.1a3.32,3.32,0,0,1,2.733-1.274,2.759,2.759,0,0,1,2.25.888,4.142,4.142,0,0,1,.756,2.654V0h-2.54V-6.082A1.648,1.648,0,0,0,28.2-7.255a1.574,1.574,0,0,0-1.169-.365,1.747,1.747,0,0,0-1.608.914V0h-2.54V-9.51ZM33.627,0V-7.646H32.212V-9.51h1.415v-.439a3.566,3.566,0,0,1,1.1-2.764,4.438,4.438,0,0,1,3.063-.971,10.16,10.16,0,0,1,2.883.519l-.369,2.1a11.248,11.248,0,0,0-1.336-.33,6.564,6.564,0,0,0-1.02-.075q-1.775,0-1.775,1.573v.387h1.872v1.863H36.176V0Zm8.235,0H39.313V-9.51h2.549Zm7.611,0a2.821,2.821,0,0,1-.255-.853,3.073,3.073,0,0,1-2.4,1.028A3.376,3.376,0,0,1,44.5-.633a2.6,2.6,0,0,1-.918-2.039,2.687,2.687,0,0,1,1.121-2.32,5.529,5.529,0,0,1,3.239-.817h1.169v-.545a1.567,1.567,0,0,0-.338-1.055,1.331,1.331,0,0,0-1.068-.4A1.513,1.513,0,0,0,46.7-7.5a1.045,1.045,0,0,0-.365.844H43.8a2.551,2.551,0,0,1,.51-1.529,3.37,3.37,0,0,1,1.441-1.1,5.253,5.253,0,0,1,2.092-.4,4.15,4.15,0,0,1,2.791.883,3.09,3.09,0,0,1,1.033,2.483V-2.2A4.546,4.546,0,0,0,52.04-.149V0Zm-2.1-1.767a2.188,2.188,0,0,0,1.037-.25,1.645,1.645,0,0,0,.7-.672V-4.324h-.949q-1.907,0-2.03,1.318l-.009.149a1.017,1.017,0,0,0,.334.782A1.3,1.3,0,0,0,47.373-1.767ZM55.951-9.51l.079,1.1a3.32,3.32,0,0,1,2.733-1.274,2.759,2.759,0,0,1,2.25.888,4.142,4.142,0,0,1,.756,2.654V0h-2.54V-6.082a1.648,1.648,0,0,0-.352-1.173,1.574,1.574,0,0,0-1.169-.365,1.747,1.747,0,0,0-1.608.914V0h-2.54V-9.51ZM66.612-2.048h4.649V0H63.369V-1.547l4.474-5.915H63.5V-9.51h7.62v1.5ZM78.363,0a2.821,2.821,0,0,1-.255-.853,3.073,3.073,0,0,1-2.4,1.028,3.376,3.376,0,0,1-2.316-.809,2.6,2.6,0,0,1-.918-2.039A2.687,2.687,0,0,1,73.6-4.992a5.529,5.529,0,0,1,3.239-.817H78v-.545a1.567,1.567,0,0,0-.338-1.055A1.331,1.331,0,0,0,76.6-7.8,1.513,1.513,0,0,0,75.59-7.5a1.045,1.045,0,0,0-.365.844h-2.54a2.551,2.551,0,0,1,.51-1.529,3.37,3.37,0,0,1,1.441-1.1,5.253,5.253,0,0,1,2.092-.4,4.15,4.15,0,0,1,2.791.883,3.09,3.09,0,0,1,1.033,2.483V-2.2A4.546,4.546,0,0,0,80.93-.149V0Zm-2.1-1.767a2.188,2.188,0,0,0,1.037-.25,1.645,1.645,0,0,0,.7-.672V-4.324h-.949q-1.907,0-2.03,1.318l-.009.149a1.017,1.017,0,0,0,.334.782A1.3,1.3,0,0,0,76.263-1.767Z" transform="translate(-348.336 -10062.973)" fill="#12263f"/>
    <path id="Trazado_612044" data-name="Trazado 612044" d="M7.778-3.357A1.353,1.353,0,0,0,7.251-4.5a6.917,6.917,0,0,0-1.9-.844,13.458,13.458,0,0,1-2.171-.875A3.547,3.547,0,0,1,1-9.4a3.09,3.09,0,0,1,.584-1.85,3.812,3.812,0,0,1,1.679-1.27,6.318,6.318,0,0,1,2.457-.457,5.751,5.751,0,0,1,2.443.5,3.891,3.891,0,0,1,1.666,1.4,3.668,3.668,0,0,1,.593,2.057H7.787a1.726,1.726,0,0,0-.554-1.367,2.276,2.276,0,0,0-1.556-.488,2.432,2.432,0,0,0-1.5.409,1.289,1.289,0,0,0-.536,1.077,1.235,1.235,0,0,0,.628,1.046,7.1,7.1,0,0,0,1.85.791A7.994,7.994,0,0,1,9.4-5.871a3.343,3.343,0,0,1,1.028,2.5A3.08,3.08,0,0,1,9.167-.769,5.5,5.5,0,0,1,5.783.176,6.534,6.534,0,0,1,3.094-.365a4.256,4.256,0,0,1-1.85-1.481,3.793,3.793,0,0,1-.637-2.18H3.252q0,2.118,2.531,2.118A2.462,2.462,0,0,0,7.251-2.29,1.244,1.244,0,0,0,7.778-3.357Zm3.867-1.485a5.64,5.64,0,0,1,.545-2.522,3.989,3.989,0,0,1,1.569-1.714,4.577,4.577,0,0,1,2.377-.606,4.33,4.33,0,0,1,3.142,1.178,4.727,4.727,0,0,1,1.358,3.2l.018.65a4.97,4.97,0,0,1-1.222,3.511A4.247,4.247,0,0,1,16.154.176a4.268,4.268,0,0,1-3.283-1.318,5.058,5.058,0,0,1-1.226-3.586Zm2.54.18a3.555,3.555,0,0,0,.51,2.073,1.682,1.682,0,0,0,1.459.717A1.686,1.686,0,0,0,17.6-2.581a3.89,3.89,0,0,0,.519-2.267,3.519,3.519,0,0,0-.519-2.06,1.686,1.686,0,0,0-1.459-.731,1.658,1.658,0,0,0-1.441.726A3.955,3.955,0,0,0,14.186-4.662ZM27.369-2.628a.818.818,0,0,0-.461-.734,5.241,5.241,0,0,0-1.481-.479q-3.393-.712-3.393-2.883a2.613,2.613,0,0,1,1.05-2.114,4.237,4.237,0,0,1,2.747-.848,4.56,4.56,0,0,1,2.9.853,2.687,2.687,0,0,1,1.085,2.215h-2.54a1.229,1.229,0,0,0-.352-.9,1.488,1.488,0,0,0-1.1-.356,1.52,1.52,0,0,0-.993.29.916.916,0,0,0-.352.738.783.783,0,0,0,.4.681,4.114,4.114,0,0,0,1.349.448,11.019,11.019,0,0,1,1.6.426,2.628,2.628,0,0,1,2.013,2.558,2.481,2.481,0,0,1-1.116,2.1,4.815,4.815,0,0,1-2.883.8A5.029,5.029,0,0,1,23.717-.25a3.561,3.561,0,0,1-1.455-1.169,2.716,2.716,0,0,1-.527-1.6h2.408a1.326,1.326,0,0,0,.5,1.037,1.987,1.987,0,0,0,1.248.36A1.839,1.839,0,0,0,27-1.9.861.861,0,0,0,27.369-2.628Zm7.146-9.22V-9.51h1.626v1.863H34.515V-2.9a1.133,1.133,0,0,0,.2.756,1.015,1.015,0,0,0,.773.229,4.051,4.051,0,0,0,.747-.062V-.053A5.229,5.229,0,0,1,34.7.176a2.425,2.425,0,0,1-2.725-2.7V-7.646H30.586V-9.51h1.389v-2.338ZM41.933.176a4.668,4.668,0,0,1-3.406-1.283,4.561,4.561,0,0,1-1.314-3.419v-.246a5.745,5.745,0,0,1,.554-2.562,4.064,4.064,0,0,1,1.569-1.74,4.4,4.4,0,0,1,2.316-.611,3.947,3.947,0,0,1,3.072,1.23,5,5,0,0,1,1.121,3.489v1.037H39.788a2.36,2.36,0,0,0,.743,1.494,2.245,2.245,0,0,0,1.569.563,2.742,2.742,0,0,0,2.294-1.063l1.248,1.4A3.813,3.813,0,0,1,44.095-.277,5.075,5.075,0,0,1,41.933.176Zm-.29-7.813a1.587,1.587,0,0,0-1.226.512,2.651,2.651,0,0,0-.6,1.466h3.533v-.2a1.891,1.891,0,0,0-.457-1.311A1.638,1.638,0,0,0,41.643-7.638Zm7.98-1.872.079,1.1a3.32,3.32,0,0,1,2.733-1.274,2.759,2.759,0,0,1,2.25.888,4.142,4.142,0,0,1,.756,2.654V0H52.9V-6.082a1.648,1.648,0,0,0-.352-1.173,1.574,1.574,0,0,0-1.169-.365,1.747,1.747,0,0,0-1.608.914V0h-2.54V-9.51ZM60.047,0H57.5V-9.51h2.549Zm-2.7-11.971a1.251,1.251,0,0,1,.382-.94,1.436,1.436,0,0,1,1.042-.369,1.44,1.44,0,0,1,1.037.369,1.244,1.244,0,0,1,.387.94,1.247,1.247,0,0,1-.391.949,1.443,1.443,0,0,1-1.033.369,1.443,1.443,0,0,1-1.033-.369A1.247,1.247,0,0,1,57.349-11.971Zm13.359,7.3A5.758,5.758,0,0,1,69.732-1.1,3.231,3.231,0,0,1,67.008.176a2.969,2.969,0,0,1-2.47-1.187L64.424,0H62.139V-13.5h2.54v4.843A2.893,2.893,0,0,1,66.99-9.686a3.258,3.258,0,0,1,2.729,1.279,5.767,5.767,0,0,1,.989,3.6Zm-2.54-.185a3.783,3.783,0,0,0-.457-2.1,1.545,1.545,0,0,0-1.362-.664,1.676,1.676,0,0,0-1.67.993v3.753a1.7,1.7,0,0,0,1.688,1,1.568,1.568,0,0,0,1.617-1.213A6.257,6.257,0,0,0,68.168-4.852ZM74.953,0H72.4V-9.51h2.549Zm-2.7-11.971a1.251,1.251,0,0,1,.382-.94,1.436,1.436,0,0,1,1.042-.369,1.44,1.44,0,0,1,1.037.369,1.244,1.244,0,0,1,.387.94,1.247,1.247,0,0,1-.391.949,1.443,1.443,0,0,1-1.033.369,1.443,1.443,0,0,1-1.033-.369A1.247,1.247,0,0,1,72.255-11.971ZM79.726,0H77.177V-13.5h2.549ZM84.5,0H81.949V-9.51H84.5ZM81.8-11.971a1.251,1.251,0,0,1,.382-.94,1.436,1.436,0,0,1,1.042-.369,1.44,1.44,0,0,1,1.037.369,1.244,1.244,0,0,1,.387.94,1.247,1.247,0,0,1-.391.949,1.443,1.443,0,0,1-1.033.369,1.443,1.443,0,0,1-1.033-.369A1.247,1.247,0,0,1,81.8-11.971Zm4.395,7.146a5.731,5.731,0,0,1,1-3.542,3.237,3.237,0,0,1,2.729-1.318,2.913,2.913,0,0,1,2.294,1.037V-13.5h2.549V0H92.47l-.123-1.011A2.989,2.989,0,0,1,89.9.176a3.228,3.228,0,0,1-2.694-1.323A5.916,5.916,0,0,1,86.194-4.825Zm2.54.189A3.754,3.754,0,0,0,89.2-2.585a1.517,1.517,0,0,0,1.354.713,1.7,1.7,0,0,0,1.661-.995V-6.625a1.675,1.675,0,0,0-1.644-.995Q88.734-7.62,88.734-4.636ZM102.243,0a2.821,2.821,0,0,1-.255-.853,3.073,3.073,0,0,1-2.4,1.028,3.376,3.376,0,0,1-2.316-.809,2.6,2.6,0,0,1-.918-2.039,2.687,2.687,0,0,1,1.121-2.32,5.529,5.529,0,0,1,3.239-.817h1.169v-.545a1.567,1.567,0,0,0-.338-1.055,1.331,1.331,0,0,0-1.068-.4A1.513,1.513,0,0,0,99.47-7.5a1.045,1.045,0,0,0-.365.844h-2.54a2.551,2.551,0,0,1,.51-1.529,3.37,3.37,0,0,1,1.441-1.1,5.253,5.253,0,0,1,2.092-.4A4.15,4.15,0,0,1,103.4-8.8a3.09,3.09,0,0,1,1.033,2.483V-2.2a4.546,4.546,0,0,0,.378,2.048V0Zm-2.1-1.767a2.188,2.188,0,0,0,1.037-.25,1.645,1.645,0,0,0,.7-.672V-4.324h-.949q-1.907,0-2.03,1.318l-.009.149a1.017,1.017,0,0,0,.334.782A1.3,1.3,0,0,0,100.143-1.767Zm5.845-3.059a5.731,5.731,0,0,1,1-3.542,3.237,3.237,0,0,1,2.729-1.318,2.913,2.913,0,0,1,2.294,1.037V-13.5h2.549V0h-2.294l-.123-1.011A2.989,2.989,0,0,1,109.7.176,3.228,3.228,0,0,1,107-1.147,5.916,5.916,0,0,1,105.987-4.825Zm2.54.189a3.754,3.754,0,0,0,.466,2.051,1.517,1.517,0,0,0,1.354.713,1.7,1.7,0,0,0,1.661-.995V-6.625a1.675,1.675,0,0,0-1.644-.995Q108.527-7.62,108.527-4.636Z" transform="translate(-348.336 -9907.973)" fill="#12263f"/>
    <rect id="Rectángulo_379151" data-name="Rectángulo 379151" width="400" height="155" transform="translate(-538 -10452.791)" fill="#f8e5b1"/>
    <g id="Grupo_1074956" data-name="Grupo 1074956" transform="translate(-758.377 -11470.942)">
      <g id="Grupo_1072053" data-name="Grupo 1072053" transform="translate(279.816 1198.717)">
        <circle id="Elipse_4742" data-name="Elipse 4742" cx="51.808" cy="51.808" r="51.808" transform="translate(0)" fill="#433c74"/>
      </g>
    </g>
    <g id="Grupo_1074957" data-name="Grupo 1074957" transform="translate(-758.377 -11321.942)">
      <g id="Grupo_1072053-2" data-name="Grupo 1072053" transform="translate(279.816 1198.717)">
        <circle id="Elipse_4742-2" data-name="Elipse 4742" cx="51.808" cy="51.808" r="51.808" transform="translate(0)" fill="#433c74"/>
      </g>
    </g>
    <g id="Grupo_1074958" data-name="Grupo 1074958" transform="translate(-758.377 -11167.942)">
      <g id="Grupo_1072053-3" data-name="Grupo 1072053" transform="translate(279.816 1198.717)">
        <circle id="Elipse_4742-3" data-name="Elipse 4742" cx="51.808" cy="51.808" r="51.808" transform="translate(0)" fill="#433c74"/>
      </g>
    </g>
    <g id="Grupo_1074960" data-name="Grupo 1074960" transform="translate(-456.565 -10250.232)">
      <g id="Grupo_1074959" data-name="Grupo 1074959" clip-path="url(#clip-path)">
        <path id="Trazado_611576" data-name="Trazado 611576" d="M100.629,0a7.2,7.2,0,0,0-7.1,7.1,7.2,7.2,0,0,0,7.1,7.1,7.105,7.105,0,0,0,0-14.208" transform="translate(-69.067 0)" fill="#fff"/>
        <path id="Trazado_611577" data-name="Trazado 611577" d="M98.519,54.333a10.418,10.418,0,0,1-7.756,3.494,10.672,10.672,0,0,1-7.872-3.494,10.4,10.4,0,0,0-2.726,6.988v1.747a1.746,1.746,0,0,0,1.747,1.747H99.5a1.746,1.746,0,0,0,1.747-1.747V61.321a10.4,10.4,0,0,0-2.726-6.988" transform="translate(-59.201 -40.124)" fill="#fff"/>
        <path id="Trazado_611578" data-name="Trazado 611578" d="M16.878,149.172l-8.9-17.849A3.494,3.494,0,0,0,3.3,129.752L.971,130.9a1.748,1.748,0,0,0-.787,2.347l10.482,20.963a1.749,1.749,0,0,0,2.339.785l2.3-1.138a3.494,3.494,0,0,0,1.576-4.69" transform="translate(0 -95.552)" fill="#fff"/>
        <path id="Trazado_611579" data-name="Trazado 611579" d="M87.465,106.622a3.483,3.483,0,0,0-4.612.454L73.3,118.816a4.224,4.224,0,0,1-2.586,1.118H62.577a1.747,1.747,0,1,1,0-3.494h6.988a3.494,3.494,0,0,0,0-6.988H60.411c-.871,0-1.3-.552-1.991-1.153a12.155,12.155,0,0,0-10.845-2.655,12.746,12.746,0,0,0-5.364,2.678l-.052-.042L39.632,110.5l9.93,19.912h20a10.525,10.525,0,0,0,8.385-4.193L88.2,111.549a3.521,3.521,0,0,0-.734-4.926" transform="translate(-29.268 -77.774)" fill="#fff"/>
      </g>
    </g>
    <g id="Grupo_1074962" data-name="Grupo 1074962" transform="translate(-463.802 -10094.263)">
      <g id="Grupo_1074961" data-name="Grupo 1074961" clip-path="url(#clip-path-2)">
        <path id="Trazado_611580" data-name="Trazado 611580" d="M92.107,175.074a2.822,2.822,0,0,0,.14,1.229,3.453,3.453,0,0,0,2.176,2.113,2.332,2.332,0,0,0,2.107-.2l1.914-2.054a2.407,2.407,0,0,0,.368-2.457,4.119,4.119,0,0,0-3.249-2.337Z" transform="translate(-67.749 -126.068)" fill="#fff"/>
        <path id="Trazado_611581" data-name="Trazado 611581" d="M71.242,144.955,67.9,148.543a2.936,2.936,0,0,0-.5,2.965,3.934,3.934,0,0,0,2.515,2.436,2.783,2.783,0,0,0,2.866-.655l3.1-3.322a2.91,2.91,0,0,0,.5-2.958,3.929,3.929,0,0,0-2.515-2.436A2.5,2.5,0,0,0,71.242,144.955Z" transform="translate(-49.445 -106.22)" fill="#fff"/>
        <path id="Trazado_611582" data-name="Trazado 611582" d="M46.869,122l-3.089,3.316a2.941,2.941,0,0,0-.5,2.967,3.939,3.939,0,0,0,2.515,2.433,2.849,2.849,0,0,0,2.535-.292l3.429-3.68a2.922,2.922,0,0,0,.5-2.963,3.919,3.919,0,0,0-2.516-2.433,2.831,2.831,0,0,0-2.874.652" transform="translate(-31.704 -89.167)" fill="#fff"/>
        <path id="Trazado_611583" data-name="Trazado 611583" d="M23.068,98.062l-3.424,3.682a2.9,2.9,0,0,0-.5,2.952,3.918,3.918,0,0,0,2.517,2.442,2.838,2.838,0,0,0,2.53-.3l3.433-3.68v0a2.89,2.89,0,0,0,.5-2.948,3.9,3.9,0,0,0-2.515-2.438A2.414,2.414,0,0,0,23.068,98.062Z" transform="translate(-13.946 -71.769)" fill="#fff"/>
        <path id="Trazado_611584" data-name="Trazado 611584" d="M124.041,16.4c-2.215,1.238-5.292,1.46-8.29,1.676a24.6,24.6,0,0,0-6.288.94l-9.347,3.449a.843.843,0,0,1-.195.049c-.451.071-.869.131-1.244.184-2.276.321-2.539.418-2.8,1.093a2.452,2.452,0,0,0,.671,2.283c.528.626,2.593,2.583,6.842,1.577l5.323-.7c2.981-.384,5.371,1.559,7.279,3.127l14.315,11.452.011-.006a20.268,20.268,0,0,0,8.284-5.743Z" transform="translate(-70.47 -12.064)" fill="#fff"/>
        <path id="Trazado_611585" data-name="Trazado 611585" d="M50.643,13.6c-.848.078-1.821.186-2.841.292-5.642.6-8.77.839-10.362.545L22.793,33.5a8.288,8.288,0,0,1,1.345,1.613,4.8,4.8,0,0,1,4.875-1.156A6.008,6.008,0,0,1,32.875,37.7a5.39,5.39,0,0,1,.277,2.264,5.181,5.181,0,0,1,2.238.17,6,6,0,0,1,3.857,3.744,5.37,5.37,0,0,1,.286,2.258,5.117,5.117,0,0,1,2.238.175,6.021,6.021,0,0,1,3.852,3.735,5.35,5.35,0,0,1,.088,3.311,4.983,4.983,0,0,1,.548.136,5.566,5.566,0,0,1,3.5,3.386,4.566,4.566,0,0,1-.592,4.341l2.6,2.078a2.277,2.277,0,0,0,2.428.14,3.492,3.492,0,0,0,1.855-2.413,2.759,2.759,0,0,0-.04-1.238l-3.3-2.637a1.062,1.062,0,0,1-.175-1.466,1.013,1.013,0,0,1,1.437-.18l3.962,3.176a2.845,2.845,0,0,0,2.555-.088,3.961,3.961,0,0,0,2.136-2.784,2.91,2.91,0,0,0-.909-2.85L58.131,50.09a1.052,1.052,0,0,1-.175-1.462,1,1,0,0,1,1.433-.18l5.21,4.167a2.8,2.8,0,0,0,2.948.224,3.974,3.974,0,0,0,2.133-2.792,2.9,2.9,0,0,0-.917-2.852L63.55,43.034a1.064,1.064,0,0,1-.175-1.473,1.016,1.016,0,0,1,1.439-.173s7.914,6.328,7.92,6.328a2.83,2.83,0,0,0,2.545-.1,3.94,3.94,0,0,0,2.142-2.78,2.907,2.907,0,0,0-.917-2.85l-15.49-12.4c-1.777-1.457-3.613-2.967-5.745-2.681l-5.216.681c-3.516.845-6.833.009-8.75-2.258a4.492,4.492,0,0,1-1.03-4.414c.728-1.884,2.123-2.079,4.425-2.4.344-.044.714-.1,1.122-.162l9.251-3.413a12.867,12.867,0,0,1,1.956-.516A13.411,13.411,0,0,0,50.643,13.6Z" transform="translate(-16.768 -9.958)" fill="#fff"/>
        <path id="Trazado_611586" data-name="Trazado 611586" d="M13.77.074C12.085-.054,10.546,1.216,8.332,4.1L2.669,11.477C.62,14.138-.147,15.793.023,17.2a4.789,4.789,0,0,0,1.733,2.921l2.686,2.145L19.03,3.275,17.141,1.764A6.547,6.547,0,0,0,13.77.074Z" transform="translate(0 -0.048)" fill="#fff"/>
        <path id="Trazado_611587" data-name="Trazado 611587" d="M214.312.007a6.51,6.51,0,0,0-3.391,1.649l-1.909,1.48L223.4,22.277l1.859-1.446c1.608-1.248,2.429-2.364,2.579-3.515.186-1.4-.558-3.067-2.573-5.762l-5.571-7.448C217.52,1.192,216-.1,214.312.007Z" transform="translate(-153.765 0)" fill="#fff"/>
      </g>
    </g>
    <g id="Grupo_1074964" data-name="Grupo 1074964" transform="translate(-456.565 -9945.365)">
      <g id="Grupo_1074963" data-name="Grupo 1074963" clip-path="url(#clip-path-3)">
        <path id="Trazado_611588" data-name="Trazado 611588" d="M67.064,77.695a1.638,1.638,0,0,0-1.638,1.638v3.275a1.638,1.638,0,0,0,3.276,0V79.333a1.638,1.638,0,0,0-1.638-1.638" transform="translate(-47.959 -56.952)" fill="#fff"/>
        <path id="Trazado_611589" data-name="Trazado 611589" d="M91.6,65.427a1.638,1.638,0,0,0-1.638,1.638v6.55a1.638,1.638,0,0,0,3.275,0v-6.55A1.638,1.638,0,0,0,91.6,65.427" transform="translate(-65.944 -47.96)" fill="#fff"/>
        <path id="Trazado_611590" data-name="Trazado 611590" d="M116.135,53.16A1.638,1.638,0,0,0,114.5,54.8v9.825a1.638,1.638,0,0,0,3.275,0V54.8a1.638,1.638,0,0,0-1.638-1.638" transform="translate(-83.929 -38.968)" fill="#fff"/>
        <path id="Trazado_611591" data-name="Trazado 611591" d="M140.67,65.427a1.638,1.638,0,0,0-1.638,1.638v6.55a1.638,1.638,0,1,0,3.275,0v-6.55a1.638,1.638,0,0,0-1.638-1.638" transform="translate(-101.914 -47.96)" fill="#fff"/>
        <path id="Trazado_611592" data-name="Trazado 611592" d="M165.2,57.249a1.638,1.638,0,0,0-1.638,1.638V67.62a1.638,1.638,0,1,0,3.275,0V58.887a1.638,1.638,0,0,0-1.638-1.638" transform="translate(-119.898 -41.965)" fill="#fff"/>
        <path id="Trazado_611593" data-name="Trazado 611593" d="M189.74,49.07a1.638,1.638,0,0,0-1.638,1.638V61.625a1.638,1.638,0,1,0,3.275,0V50.708a1.638,1.638,0,0,0-1.638-1.638" transform="translate(-137.883 -35.969)" fill="#fff"/>
        <path id="Trazado_611594" data-name="Trazado 611594" d="M90.292,1.163,83.842.025a1.638,1.638,0,0,0-.569,3.226L85.8,3.7l-9.793,6.78L71.515,5.984a1.637,1.637,0,0,0-1.953-.274L49.912,16.628a1.638,1.638,0,0,0,1.59,2.863L70.073,9.173l4.585,4.585a1.637,1.637,0,0,0,2.09.188L87.714,6.355l-.456,2.586a1.638,1.638,0,0,0,3.225.569L91.621,3.06a1.637,1.637,0,0,0-1.328-1.9" transform="translate(-35.969 0)" fill="#fff"/>
        <path id="Trazado_611595" data-name="Trazado 611595" d="M15.315,117.145l-14.5,8.369A1.638,1.638,0,0,0,0,126.933v11.856a1.638,1.638,0,0,0,1.638,1.638h8.734a1.639,1.639,0,0,0,1.119-.441l4.984-4.66,15.951.053a12.567,12.567,0,0,0,6.333-1.682l14.872-8.586a4.094,4.094,0,0,0-4.094-7.091l-5.874,3.392a7.367,7.367,0,0,1-8.639,7.609l-11.014-1.942a1.638,1.638,0,1,1,.569-3.225l11.014,1.942a4.094,4.094,0,1,0,1.422-8.063l-12.505-2.205A13.669,13.669,0,0,0,15.315,117.145Z" transform="translate(0 -84.53)" fill="#fff"/>
      </g>
    </g>
    <path id="Trazado_612047" data-name="Trazado 612047" d="M27.346,6.2l1.573,9.255L33.692,6.2H37.12L34.9,19H32.312l.633-3.647,1.248-5.7L29.289,19H27.522L25.808,9.332l-.826,6.3L24.393,19H21.818L24.042,6.2ZM42.542,19a2.566,2.566,0,0,1-.1-.861,3.221,3.221,0,0,1-2.426,1.037,2.919,2.919,0,0,1-2.07-.813,2.46,2.46,0,0,1-.769-1.964,2.843,2.843,0,0,1,1.305-2.386,5.924,5.924,0,0,1,3.335-.831l1.16.018.123-.571a1.984,1.984,0,0,0,.026-.554.952.952,0,0,0-.312-.646,1.075,1.075,0,0,0-.708-.242,1.514,1.514,0,0,0-.984.286,1.384,1.384,0,0,0-.519.875l-2.487.009a2.764,2.764,0,0,1,1.252-2.21,4.851,4.851,0,0,1,2.94-.831,3.507,3.507,0,0,1,2.531.962,2.816,2.816,0,0,1,.765,2.386l-.729,4.553-.044.563a2.714,2.714,0,0,0,.149,1.055L44.977,19Zm-1.907-1.749a2.27,2.27,0,0,0,1.872-.932l.308-1.644-.861-.009a2.406,2.406,0,0,0-1.978.835,1.454,1.454,0,0,0-.272.712.844.844,0,0,0,.2.751A1,1,0,0,0,40.635,17.251ZM53,11.872a5.117,5.117,0,0,0-.835-.088,2.4,2.4,0,0,0-2.1.993L48.967,19H46.489l1.652-9.51,2.329-.009-.229,1.16A2.615,2.615,0,0,1,52.457,9.3a3.615,3.615,0,0,1,.861.123Zm4.061,3.34-1.151,1L55.427,19H52.949L55.287,5.5h2.487l-1.283,7.33.483-.519L59.8,9.49h3.182L58.82,13.577,61.465,19H58.75Zm9.817,3.964a4.137,4.137,0,0,1-2.21-.611,3.7,3.7,0,0,1-1.437-1.652,4.605,4.605,0,0,1-.369-2.316l.026-.352A6.148,6.148,0,0,1,63.7,11.7a4.884,4.884,0,0,1,1.74-1.789,4.306,4.306,0,0,1,2.355-.593,3.29,3.29,0,0,1,2.782,1.351A4.631,4.631,0,0,1,71.292,14l-.141,1.083H65.324a2.041,2.041,0,0,0,.448,1.477,1.711,1.711,0,0,0,1.318.571,3.041,3.041,0,0,0,2.373-1.055L70.6,17.479a3.527,3.527,0,0,1-1.547,1.261A5.059,5.059,0,0,1,66.879,19.176Zm.791-7.813a1.761,1.761,0,0,0-1.217.431,3.784,3.784,0,0,0-.954,1.556h3.41l.053-.229a2.33,2.33,0,0,0,.009-.668,1.276,1.276,0,0,0-.431-.8A1.35,1.35,0,0,0,67.67,11.362Zm9.246-4.21L76.5,9.49h1.582l-.325,1.863H76.178l-.809,4.764a1.211,1.211,0,0,0,.07.686q.123.237.6.255.141.009.756-.044l-.176,1.942a4.169,4.169,0,0,1-1.424.2,2.234,2.234,0,0,1-1.819-.765,2.763,2.763,0,0,1-.492-2.021l.817-5.019H72.355L72.68,9.49h1.345l.4-2.338ZM80.494,19H78L79.65,9.49h2.5ZM79.94,7.073a1.238,1.238,0,0,1,.387-.976,1.488,1.488,0,0,1,1.951-.044,1.233,1.233,0,0,1,.431.932,1.273,1.273,0,0,1-.365.949,1.367,1.367,0,0,1-1,.422,1.39,1.39,0,0,1-.971-.334A1.227,1.227,0,0,1,79.94,7.073Zm6.574,2.408L86.3,10.606a3.422,3.422,0,0,1,2.769-1.292,2.281,2.281,0,0,1,1.986.984,3.966,3.966,0,0,1,.466,2.654l-1,6.047H88.043l1.02-6.073a2.844,2.844,0,0,0,.018-.624,1.007,1.007,0,0,0-1.125-.923,2.133,2.133,0,0,0-1.749.905L85.02,19H82.542l1.652-9.51Zm6.425,4.755a6.58,6.58,0,0,1,1.437-3.582,3.647,3.647,0,0,1,2.958-1.349A2.667,2.667,0,0,1,99.6,10.4l.325-.923,2.276.009-1.556,9.185a4.481,4.481,0,0,1-1.617,3.006,5.03,5.03,0,0,1-3.375,1.072,4.689,4.689,0,0,1-1.881-.426A4.022,4.022,0,0,1,92.3,21.206l1.23-1.512A2.642,2.642,0,0,0,95.6,20.775a2.436,2.436,0,0,0,1.652-.505,2.7,2.7,0,0,0,.932-1.525l.141-.571a3.092,3.092,0,0,1-2.329,1,2.732,2.732,0,0,1-2.206-1.033,4.44,4.44,0,0,1-.9-2.641A8.876,8.876,0,0,1,92.939,14.236Zm2.435,1.043a2.273,2.273,0,0,0,.347,1.325,1.215,1.215,0,0,0,1.006.524,2.219,2.219,0,0,0,1.793-.863l.738-4.031a1.458,1.458,0,0,0-1.4-.863,1.944,1.944,0,0,0-1.608.766,4.006,4.006,0,0,0-.826,2.1A9.241,9.241,0,0,0,95.374,15.279Zm17.921-3.407a6.9,6.9,0,0,0-.914-.07,1.86,1.86,0,0,0-1.89.976V19h-2.54V9.49h2.4l.07,1.134a2.354,2.354,0,0,1,2.118-1.31,2.662,2.662,0,0,1,.791.114Zm5.432,7.3a4.668,4.668,0,0,1-3.406-1.283,4.561,4.561,0,0,1-1.314-3.419v-.246a5.745,5.745,0,0,1,.554-2.562,4.064,4.064,0,0,1,1.569-1.74,4.4,4.4,0,0,1,2.316-.611,3.947,3.947,0,0,1,3.072,1.23,5,5,0,0,1,1.121,3.489v1.037h-6.056a2.36,2.36,0,0,0,.743,1.494,2.245,2.245,0,0,0,1.569.563,2.742,2.742,0,0,0,2.294-1.063l1.248,1.4a3.813,3.813,0,0,1-1.547,1.261A5.075,5.075,0,0,1,118.726,19.176Zm-.29-7.813a1.587,1.587,0,0,0-1.226.512,2.651,2.651,0,0,0-.6,1.466h3.533v-.2a1.891,1.891,0,0,0-.457-1.311A1.638,1.638,0,0,0,118.436,11.362ZM126.759,19H124.21V5.5h2.549Zm7.6,0a2.821,2.821,0,0,1-.255-.853,3.073,3.073,0,0,1-2.4,1.028,3.376,3.376,0,0,1-2.316-.809,2.6,2.6,0,0,1-.918-2.039,2.687,2.687,0,0,1,1.121-2.32,5.529,5.529,0,0,1,3.239-.817H134v-.545a1.567,1.567,0,0,0-.338-1.055,1.331,1.331,0,0,0-1.068-.4,1.513,1.513,0,0,0-1.006.308,1.045,1.045,0,0,0-.365.844h-2.54a2.551,2.551,0,0,1,.51-1.529,3.37,3.37,0,0,1,1.441-1.1,5.253,5.253,0,0,1,2.092-.4,4.15,4.15,0,0,1,2.791.883,3.09,3.09,0,0,1,1.033,2.483V16.8a4.546,4.546,0,0,0,.378,2.048V19Zm-2.1-1.767a2.188,2.188,0,0,0,1.037-.25,1.645,1.645,0,0,0,.7-.672V14.676h-.949q-1.907,0-2.03,1.318l-.009.149a1.017,1.017,0,0,0,.334.782A1.3,1.3,0,0,0,132.261,17.233Zm10.2-.105a1.666,1.666,0,0,0,1.143-.387,1.355,1.355,0,0,0,.457-1.028h2.382a3.258,3.258,0,0,1-.527,1.771,3.48,3.48,0,0,1-1.419,1.248,4.442,4.442,0,0,1-1.991.444,4.129,4.129,0,0,1-3.217-1.3,5.13,5.13,0,0,1-1.178-3.582v-.167a5.071,5.071,0,0,1,1.169-3.507,4.08,4.08,0,0,1,3.208-1.31,4,4,0,0,1,2.861,1.015,3.594,3.594,0,0,1,1.094,2.7h-2.382a1.745,1.745,0,0,0-.457-1.206,1.7,1.7,0,0,0-2.5.183,3.749,3.749,0,0,0-.453,2.1v.264a3.8,3.8,0,0,0,.448,2.113A1.549,1.549,0,0,0,142.457,17.128ZM150.569,19H148.02V9.49h2.549Zm-2.7-11.971a1.251,1.251,0,0,1,.382-.94,1.648,1.648,0,0,1,2.079,0,1.244,1.244,0,0,1,.387.94,1.247,1.247,0,0,1-.391.949,1.629,1.629,0,0,1-2.065,0A1.247,1.247,0,0,1,147.871,7.029Zm4.395,7.128a5.64,5.64,0,0,1,.545-2.522,3.989,3.989,0,0,1,1.569-1.714,4.577,4.577,0,0,1,2.377-.606,4.33,4.33,0,0,1,3.142,1.178,4.727,4.727,0,0,1,1.358,3.2l.018.65a4.97,4.97,0,0,1-1.222,3.511,4.735,4.735,0,0,1-6.561,0,5.058,5.058,0,0,1-1.226-3.586Zm2.54.18a3.555,3.555,0,0,0,.51,2.073,1.831,1.831,0,0,0,2.9.009,3.89,3.89,0,0,0,.519-2.267,3.519,3.519,0,0,0-.519-2.06,1.686,1.686,0,0,0-1.459-.731,1.658,1.658,0,0,0-1.441.726A3.955,3.955,0,0,0,154.805,14.338ZM165.176,9.49l.079,1.1a3.32,3.32,0,0,1,2.733-1.274,2.759,2.759,0,0,1,2.25.888,4.142,4.142,0,0,1,.756,2.654V19h-2.54V12.918a1.648,1.648,0,0,0-.352-1.173,1.574,1.574,0,0,0-1.169-.365,1.747,1.747,0,0,0-1.608.914V19h-2.54V9.49ZM178.43,19a2.821,2.821,0,0,1-.255-.853,3.073,3.073,0,0,1-2.4,1.028,3.376,3.376,0,0,1-2.316-.809,2.6,2.6,0,0,1-.918-2.039,2.687,2.687,0,0,1,1.121-2.32,5.529,5.529,0,0,1,3.239-.817h1.169v-.545a1.567,1.567,0,0,0-.338-1.055,1.331,1.331,0,0,0-1.068-.4,1.513,1.513,0,0,0-1.006.308,1.045,1.045,0,0,0-.365.844h-2.54a2.551,2.551,0,0,1,.51-1.529,3.37,3.37,0,0,1,1.441-1.1,5.253,5.253,0,0,1,2.092-.4,4.15,4.15,0,0,1,2.791.883,3.09,3.09,0,0,1,1.033,2.483V16.8A4.546,4.546,0,0,0,181,18.851V19Zm-2.1-1.767a2.188,2.188,0,0,0,1.037-.25,1.645,1.645,0,0,0,.7-.672V14.676h-.949q-1.907,0-2.03,1.318l-.009.149a1.017,1.017,0,0,0,.334.782A1.3,1.3,0,0,0,176.33,17.233ZM185.25,19H182.7V5.5h2.549Z" transform="translate(-389.5 -10383)" fill="#255f68"/>
    <g id="_x31_5" transform="translate(-450.5 -10414.296)">
      <path id="Trazado_612002" data-name="Trazado 612002" d="M24.942,2A16.782,16.782,0,0,0,14.265,5.8a2.086,2.086,0,0,0-2.029-1.679,2.116,2.116,0,0,0-2.118,2.118v4.235a2.116,2.116,0,0,0,2.118,2.118h4.235a2.116,2.116,0,0,0,2.118-2.118A2.089,2.089,0,0,0,17.5,8.656a12.584,12.584,0,0,1,7.443-2.421A12.706,12.706,0,1,1,12.235,18.942a2.118,2.118,0,1,0-4.235,0A16.942,16.942,0,1,0,24.942,2Z" transform="translate(6.706)" fill="#255f68"/>
      <path id="Trazado_612003" data-name="Trazado 612003" d="M6.235,17H2V42.412H6.235a2.118,2.118,0,0,0,2.118-2.118V19.118A2.118,2.118,0,0,0,6.235,17Z" transform="translate(0 16.766)" fill="#255f68"/>
      <path id="Trazado_612004" data-name="Trazado 612004" d="M54.4,18.715a4.969,4.969,0,0,0-4.948-.108L35.582,26.062a5.283,5.283,0,0,1-5.229,4.646H21.84a1.059,1.059,0,1,1,0-2.117h8.513a3.172,3.172,0,0,0,.1-6.342c-.634-.007-10.868-.01-10.868-.01l-3.615-3.614a2.118,2.118,0,0,0-1.5-.62H6V39.182H9.739L16.589,41.3c2.846.915,5.889,2.117,9.262,2.117a14.153,14.153,0,0,0,8.648-3L54.666,27.067a4.954,4.954,0,0,0-.268-8.352Z" transform="translate(4.471 17.883)" fill="#255f68"/>
      <circle id="Elipse_6025" data-name="Elipse 6025" cx="6.379" cy="6.379" r="6.379" transform="translate(25.123 8.671)" fill="#255f68"/>
      <path id="Trazado_612005" data-name="Trazado 612005" d="M11.565,13.669a10.5,10.5,0,0,0,18.782,0A6.337,6.337,0,0,0,25.192,11H16.721A6.337,6.337,0,0,0,11.565,13.669Z" transform="translate(10.691 10.059)" fill="#255f68"/>
    </g>
  </g>
</svg>
